<svg width="32" height="32" viewBox="0 0 32 32" fill="none" xmlns="http://www.w3.org/2000/svg">
<path d="M7.81297 24.9109C8.66768 24.6424 9.54544 24.4186 10.3372 23.9996C10.8344 23.7364 11.3115 23.3852 11.6553 22.935C11.8868 22.632 12.0444 22.2743 12.1702 21.9082C12.0164 21.8468 11.8645 21.7817 11.7147 21.7131C11.5229 22.0871 11.2109 22.3858 10.8287 22.5611C10.4466 22.7364 10.0166 22.7782 9.60783 22.6796C9.19908 22.5811 8.83537 22.348 8.57519 22.0179C8.31501 21.6878 8.17349 21.2798 8.17339 20.8595C8.17339 20.824 8.17473 20.7886 8.17675 20.7535C7.64645 20.9149 7.07718 20.8927 6.56106 20.6906C6.04493 20.4885 5.61213 20.1182 5.3327 19.6397C5.05326 19.1612 4.94353 18.6025 5.02127 18.0539C5.09901 17.5053 5.35966 16.999 5.76105 16.6169C5.57522 16.5051 5.43306 16.3334 5.35801 16.13C5.28296 15.9266 5.27952 15.7038 5.34825 15.4982C4.96604 15.2892 4.64613 14.9827 4.42116 14.6098C4.19619 14.237 4.07422 13.8111 4.06768 13.3758C4.06115 12.9404 4.1703 12.5111 4.38398 12.1317C4.59766 11.7522 4.90823 11.4362 5.284 11.2159C5.12721 11.021 5.05341 10.7723 5.07854 10.5235C5.10367 10.2746 5.22571 10.0457 5.41832 9.88599C5.11095 9.529 4.91252 9.09136 4.84658 8.62501C4.78065 8.15867 4.84997 7.68321 5.04632 7.25507C5.24267 6.82693 5.55781 6.46409 5.95433 6.20962C6.35084 5.95514 6.81209 5.81972 7.28331 5.81943C7.36547 5.81943 7.44695 5.82368 7.5271 5.83151C7.49632 5.7083 7.49047 5.58019 7.50989 5.45469C7.52931 5.32919 7.57361 5.20883 7.64018 5.10067C7.70676 4.99251 7.79428 4.89873 7.8976 4.82482C8.00093 4.75091 8.11798 4.69837 8.24189 4.67028C8.12213 4.17577 8.15864 3.65632 8.34642 3.1834C8.53419 2.71049 8.86399 2.30736 9.29043 2.0295C9.71687 1.75164 10.219 1.61269 10.7277 1.63179C11.2364 1.65089 11.7267 1.82709 12.1311 2.13615C12.1961 2.00541 12.2904 1.89136 12.4066 1.80282C12.5228 1.71428 12.6578 1.65362 12.8011 1.62551C12.9445 1.5974 13.0924 1.6026 13.2335 1.6407C13.3745 1.67881 13.5049 1.7488 13.6146 1.84528C13.7512 1.31711 14.0595 0.849266 14.491 0.515256C14.9226 0.181245 15.4529 0 15.9987 0C16.5445 0 17.0749 0.181245 17.5064 0.515256C17.938 0.849266 18.2463 1.31711 18.3829 1.84528C18.4925 1.74894 18.6229 1.67905 18.7638 1.64102C18.9048 1.60299 19.0526 1.59783 19.1959 1.62593C19.3392 1.65404 19.4741 1.71466 19.5902 1.80312C19.7064 1.89158 19.8006 2.00552 19.8657 2.13615C20.27 1.82676 20.7604 1.65026 21.2692 1.63094C21.778 1.61161 22.2804 1.75043 22.707 2.02826C23.1336 2.3061 23.4636 2.70929 23.6514 3.18232C23.8393 3.65536 23.8758 4.17497 23.756 4.66961C23.8799 4.6977 23.997 4.75024 24.1003 4.82415C24.2036 4.89806 24.2911 4.99184 24.3577 5.1C24.4243 5.20816 24.4686 5.32852 24.488 5.45402C24.5074 5.57952 24.5016 5.70763 24.4708 5.83084C24.5512 5.82301 24.6324 5.81876 24.7146 5.81876C25.1853 5.81881 25.6461 5.95368 26.0424 6.2074C26.4388 6.46112 26.7541 6.82305 26.951 7.25034C27.1479 7.67763 27.2181 8.15237 27.1534 8.61833C27.0887 9.0843 26.8917 9.52197 26.5858 9.8795C26.6832 9.95851 26.764 10.0559 26.8237 10.1662C26.8833 10.2765 26.9206 10.3974 26.9334 10.5221C26.9462 10.6468 26.9343 10.7728 26.8983 10.8929C26.8623 11.013 26.803 11.1248 26.7237 11.222C27.0947 11.4419 27.4013 11.7553 27.613 12.1308C27.8247 12.5064 27.934 12.9309 27.9299 13.362C27.9259 13.793 27.8086 14.2154 27.5899 14.5869C27.3712 14.9585 27.0587 15.266 26.6837 15.4789C26.7566 15.6822 26.7583 15.9041 26.6886 16.1085C26.6189 16.3128 26.4819 16.4875 26.3 16.6039C26.7113 16.9902 26.9774 17.506 27.0538 18.0649C27.1301 18.6239 27.0119 19.1921 26.7192 19.6744C26.4264 20.1567 25.9767 20.5238 25.4454 20.7143C24.9142 20.9048 24.3335 20.9071 23.8008 20.7208C23.8041 20.7656 23.8064 20.8128 23.8064 20.8593C23.8063 21.279 23.6652 21.6865 23.4057 22.0165C23.1462 22.3464 22.7834 22.5797 22.3754 22.6789C21.9673 22.7781 21.5378 22.7375 21.1557 22.5635C20.7735 22.3896 20.4609 22.0924 20.268 21.7196C20.1234 21.7846 19.9775 21.847 19.8303 21.9067C19.9566 22.2732 20.1144 22.6314 20.3452 22.9359C20.6891 23.3861 21.1661 23.7373 21.6633 24.0005C22.4551 24.4198 23.3329 24.6428 24.1876 24.9118C25.7099 25.3908 27.2209 26.0506 28.3555 27.1716V32H3.6451V27.1716C4.77964 26.0497 6.29071 25.3899 7.81297 24.9109ZM22.0506 14.4748C22.747 11.3871 20.6192 10.0789 18.5716 10.067C16.6036 10.0567 16.0081 11.9948 16.0081 11.9948C16.0081 11.9948 15.4279 10.0509 13.4606 10.0435C11.4129 10.0325 9.27076 11.3229 9.93966 14.4157C10.2472 15.8477 11.6258 17.1064 12.6954 18.1822C14.3083 19.8008 15.7914 20.9271 15.9492 21.0461H15.9768C16.1368 20.9282 17.6291 19.8155 19.2564 18.2131C20.3405 17.1485 21.7285 15.9036 22.0517 14.4748H22.0506Z" fill="#76A6EE"/>
</svg>
