<svg width="92" height="64" viewBox="0 0 92 64" fill="none" xmlns="http://www.w3.org/2000/svg">
    <g clip-path="url(#clip0)">
        <path d="M55.8771 28.5898H12.2138C12.0697 28.5898 11.9529 28.7067 11.9529 28.8508V29.8945C11.9529 30.0386 12.0697 30.1555 12.2138 30.1555H55.8771C56.0212 30.1555 56.138 30.0386 56.138 29.8945V28.8508C56.138 28.7067 56.0212 28.5898 55.8771 28.5898Z" fill="#32353B"/>
        <path d="M78.1475 34.3304H45.6175C45.4734 34.3304 45.3566 34.4473 45.3566 34.5914V35.6351C45.3566 35.7792 45.4734 35.8961 45.6175 35.8961H78.1475C78.2916 35.8961 78.4085 35.7792 78.4085 35.6351V34.5914C78.4085 34.4473 78.2916 34.3304 78.1475 34.3304Z" fill="#32353B" fill-opacity="0.3"/>
        <path d="M29.4356 34.3304H12.2138C12.0697 34.3304 11.9529 34.4473 11.9529 34.5914V35.6351C11.9529 35.7792 12.0697 35.8961 12.2138 35.8961H29.4356C29.5797 35.8961 29.6965 35.7792 29.6965 35.6351V34.5914C29.6965 34.4473 29.5797 34.3304 29.4356 34.3304Z" fill="#32353B" fill-opacity="0.3"/>
        <path d="M43.3559 34.3304H31.8747C31.7306 34.3304 31.6138 34.4473 31.6138 34.5914V35.6351C31.6138 35.7792 31.7306 35.8961 31.8747 35.8961H43.3559C43.5 35.8961 43.6168 35.7792 43.6168 35.6351V34.5914C43.6168 34.4473 43.5 34.3304 43.3559 34.3304Z" fill="#32353B" fill-opacity="0.3"/>
        <path d="M80.2079 53.7717H48.0258C47.8817 53.7717 47.7649 53.8886 47.7649 54.0327V55.0764C47.7649 55.2205 47.8817 55.3373 48.0258 55.3373H80.2079C80.3521 55.3373 80.4689 55.2205 80.4689 55.0764V54.0327C80.4689 53.8886 80.3521 53.7717 80.2079 53.7717Z" fill="#32353B" fill-opacity="0.3"/>
        <path d="M11.9564 64V46.1639H43.6167V64" fill="#EDEDEF"/>
        <path d="M80.3718 46.1639H68.5427C68.3986 46.1639 68.2817 46.2808 68.2817 46.4249V47.4686C68.2817 47.6127 68.3986 47.7296 68.5427 47.7296H80.3718C80.5159 47.7296 80.6327 47.6127 80.6327 47.4686V46.4249C80.6327 46.2808 80.5159 46.1639 80.3718 46.1639Z" fill="#32353B" fill-opacity="0.3"/>
        <path d="M59.8549 49.9678H48.0258C47.8817 49.9678 47.7649 50.0846 47.7649 50.2287V51.2725C47.7649 51.4166 47.8817 51.5334 48.0258 51.5334H59.8549C59.999 51.5334 60.1159 51.4166 60.1159 51.2725V50.2287C60.1159 50.0846 59.999 49.9678 59.8549 49.9678Z" fill="#32353B" fill-opacity="0.3"/>
        <path d="M74.4711 49.9678H62.642C62.4979 49.9678 62.3811 50.0846 62.3811 50.2287V51.2725C62.3811 51.4166 62.4979 51.5334 62.642 51.5334H74.4711C74.6153 51.5334 74.7321 51.4166 74.7321 51.2725V50.2287C74.7321 50.0846 74.6153 49.9678 74.4711 49.9678Z" fill="#32353B" fill-opacity="0.3"/>
        <path d="M80.3718 57.5756H68.5427C68.3986 57.5756 68.2817 57.6924 68.2817 57.8365V58.8802C68.2817 59.0243 68.3986 59.1412 68.5427 59.1412H80.3718C80.5159 59.1412 80.6327 59.0243 80.6327 58.8802V57.8365C80.6327 57.6924 80.5159 57.5756 80.3718 57.5756Z" fill="#32353B" fill-opacity="0.3"/>
        <path d="M65.2471 46.1639H48.0253C47.8812 46.1639 47.7644 46.2808 47.7644 46.4249V47.4686C47.7644 47.6127 47.8812 47.7296 48.0253 47.7296H65.2471C65.3912 47.7296 65.5081 47.6127 65.5081 47.4686V46.4249C65.5081 46.2808 65.3912 46.1639 65.2471 46.1639Z" fill="#32353B" fill-opacity="0.3"/>
        <path d="M65.2476 57.5756H48.0258C47.8817 57.5756 47.7649 57.6924 47.7649 57.8365V58.8802C47.7649 59.0243 47.8817 59.1412 48.0258 59.1412H65.2476C65.3917 59.1412 65.5085 59.0243 65.5085 58.8802V57.8365C65.5085 57.6924 65.3917 57.5756 65.2476 57.5756Z" fill="#32353B" fill-opacity="0.3"/>
        <rect x="11.9529" y="9.521" width="25.1803" height="12.5902" rx="1" fill="#32353B"/>
        <path d="M15.417 19.2259H16.4886V16.7903H18.1448C19.4697 16.7903 20.4342 15.8161 20.4342 14.5984C20.4342 13.3806 19.4697 12.4064 18.1448 12.4064H15.417V19.2259ZM16.4886 15.8161V13.3806H18.1448C18.8267 13.3806 19.3626 13.9164 19.3626 14.5984C19.3626 15.2803 18.8267 15.8161 18.1448 15.8161H16.4886Z" fill="white"/>
        <path d="M22.0919 19.2259H24.3813C26.3784 19.2259 27.9372 17.6574 27.9372 15.8161C27.9372 13.9749 26.3784 12.4064 24.3813 12.4064H22.0919V19.2259ZM23.1635 18.2517V13.3806H24.3813C25.7939 13.3806 26.8656 14.4522 26.8656 15.8161C26.8656 17.18 25.7939 18.2517 24.3813 18.2517H23.1635Z" fill="white"/>
        <path d="M29.6896 19.2259H30.7613V16.4007H33.6839V15.3777H30.7613V13.4293H34.4633V12.4064H29.6896V19.2259Z" fill="white"/>
        <path d="M71.9965 0H1.63072C1.33098 0.000460085 1.04364 0.119737 0.831689 0.331689C0.619737 0.543641 0.50046 0.830978 0.5 1.13072V63.5651C0.5 63.6804 0.545819 63.7911 0.627377 63.8726C0.708936 63.9542 0.819552 64 0.934893 64C1.05023 64 1.16085 63.9542 1.24241 63.8726C1.32397 63.7911 1.36979 63.6804 1.36979 63.5651V1.13072C1.36979 1.06152 1.39728 0.995148 1.44621 0.946213C1.49515 0.897278 1.56152 0.869787 1.63072 0.869787H72.8663L71.9965 0Z" fill="#32353B"/>
        <path d="M91.7787 19.7822V63.5651C91.7787 63.6804 91.7329 63.7911 91.6513 63.8726C91.5697 63.9542 91.4591 64 91.3438 64C91.2285 64 91.1178 63.9542 91.0363 63.8726C90.9547 63.7911 90.9089 63.6804 90.9089 63.5651V18.9124L91.7787 19.7822Z" fill="#32353B"/>
        <path fill-rule="evenodd" clip-rule="evenodd" d="M92.1621 20.7592L70.7821 -0.620849L71.3756 -1.21436L92.7556 20.1656L92.1621 20.7592Z" fill="#32353B"/>
    </g>
    <defs>
        <clipPath id="clip0">
            <rect width="91.2787" height="64" fill="white" transform="translate(0.5)"/>
        </clipPath>
    </defs>
</svg>
