<svg width="246" height="180" viewBox="0 0 246 180" fill="none" xmlns="http://www.w3.org/2000/svg">
<g clip-path="url(#clip0)">
<path d="M152.953 25.4146H64.8186C64.4323 25.4146 64.1191 25.7277 64.1191 26.114V28.912C64.1191 29.2983 64.4323 29.6114 64.8186 29.6114H152.953C153.34 29.6114 153.653 29.2983 153.653 28.912V26.114C153.653 25.7277 153.34 25.4146 152.953 25.4146Z" fill="#32353B"/>
<path d="M152.953 29.8446H64.8184C64.571 29.8446 64.3338 29.7463 64.1589 29.5714C63.984 29.3965 63.8857 29.1593 63.8857 28.912V26.114C63.8857 25.8667 63.984 25.6295 64.1589 25.4546C64.3338 25.2797 64.571 25.1814 64.8184 25.1814H152.953C153.2 25.1814 153.438 25.2797 153.613 25.4546C153.787 25.6295 153.886 25.8667 153.886 26.114V28.912C153.886 29.1593 153.787 29.3965 153.613 29.5714C153.438 29.7463 153.2 29.8446 152.953 29.8446ZM64.8184 25.6477C64.6947 25.6477 64.5761 25.6968 64.4886 25.7843C64.4012 25.8718 64.3521 25.9904 64.3521 26.114V28.912C64.3521 29.0356 64.4012 29.1543 64.4886 29.2417C64.5761 29.3292 64.6947 29.3783 64.8184 29.3783H152.953C153.077 29.3783 153.195 29.3292 153.283 29.2417C153.37 29.1543 153.419 29.0356 153.419 28.912V26.114C153.419 25.9904 153.37 25.8718 153.283 25.7843C153.195 25.6968 153.077 25.6477 152.953 25.6477H64.8184Z" fill="#32353B"/>
<path d="M192.591 41.7358H104.456C104.07 41.7358 103.757 42.049 103.757 42.4353V45.2332C103.757 45.6196 104.07 45.9327 104.456 45.9327H192.591C192.977 45.9327 193.291 45.6196 193.291 45.2332V42.4353C193.291 42.049 192.977 41.7358 192.591 41.7358Z" fill="#32353B" fill-opacity="0.3"/>
<path d="M192.591 79.5078H104.456C104.07 79.5078 103.757 79.821 103.757 80.2073V83.0052C103.757 83.3915 104.07 83.7047 104.456 83.7047H192.591C192.977 83.7047 193.291 83.3915 193.291 83.0052V80.2073C193.291 79.821 192.977 79.5078 192.591 79.5078Z" fill="#32353B" fill-opacity="0.3"/>
<path d="M192.591 116.813H104.456C104.07 116.813 103.757 117.127 103.757 117.513V120.311C103.757 120.697 104.07 121.01 104.456 121.01H192.591C192.977 121.01 193.291 120.697 193.291 120.311V117.513C193.291 117.127 192.977 116.813 192.591 116.813Z" fill="#32353B" fill-opacity="0.3"/>
<path d="M192.591 153.653H104.456C104.07 153.653 103.757 153.966 103.757 154.352V157.15C103.757 157.537 104.07 157.85 104.456 157.85H192.591C192.977 157.85 193.291 157.537 193.291 157.15V154.352C193.291 153.966 192.977 153.653 192.591 153.653Z" fill="#32353B" fill-opacity="0.3"/>
<path d="M156.218 97.228H64.8186C64.4323 97.228 64.1191 97.5412 64.1191 97.9275V100.725C64.1191 101.112 64.4323 101.425 64.8186 101.425H156.218C156.604 101.425 156.917 101.112 156.917 100.725V97.9275C156.917 97.5412 156.604 97.228 156.218 97.228Z" fill="#32353B"/>
<path d="M156.217 101.658H64.8184C64.571 101.658 64.3338 101.56 64.1589 101.385C63.984 101.21 63.8857 100.973 63.8857 100.725V97.9275C63.8857 97.6802 63.984 97.4429 64.1589 97.268C64.3338 97.0931 64.571 96.9949 64.8184 96.9949H156.217C156.465 96.9949 156.702 97.0931 156.877 97.268C157.052 97.4429 157.15 97.6802 157.15 97.9275V100.725C157.15 100.973 157.052 101.21 156.877 101.385C156.702 101.56 156.465 101.658 156.217 101.658ZM64.8184 97.4612C64.6947 97.4612 64.5761 97.5103 64.4886 97.5978C64.4012 97.6852 64.3521 97.8038 64.3521 97.9275V100.725C64.3521 100.849 64.4012 100.968 64.4886 101.055C64.5761 101.143 64.6947 101.192 64.8184 101.192H156.217C156.341 101.192 156.46 101.143 156.547 101.055C156.635 100.968 156.684 100.849 156.684 100.725V97.9275C156.684 97.8038 156.635 97.6852 156.547 97.5978C156.46 97.5103 156.341 97.4612 156.217 97.4612H64.8184Z" fill="#32353B"/>
<path d="M138.497 135.933H64.8186C64.4323 135.933 64.1191 136.246 64.1191 136.632V139.43C64.1191 139.816 64.4323 140.13 64.8186 140.13H138.497C138.884 140.13 139.197 139.816 139.197 139.43V136.632C139.197 136.246 138.884 135.933 138.497 135.933Z" fill="#32353B"/>
<path d="M138.497 140.363H64.8184C64.571 140.363 64.3338 140.264 64.1589 140.09C63.984 139.915 63.8857 139.677 63.8857 139.43V136.632C63.8857 136.385 63.984 136.148 64.1589 135.973C64.3338 135.798 64.571 135.699 64.8184 135.699H138.497C138.744 135.699 138.982 135.798 139.157 135.973C139.332 136.148 139.43 136.385 139.43 136.632V139.43C139.43 139.677 139.332 139.915 139.157 140.09C138.982 140.264 138.744 140.363 138.497 140.363ZM64.8184 136.166C64.6947 136.166 64.5761 136.215 64.4886 136.302C64.4012 136.39 64.3521 136.508 64.3521 136.632V139.43C64.3521 139.554 64.4012 139.672 64.4886 139.76C64.5761 139.847 64.6947 139.896 64.8184 139.896H138.497C138.621 139.896 138.739 139.847 138.827 139.76C138.914 139.672 138.963 139.554 138.963 139.43V136.632C138.963 136.508 138.914 136.39 138.827 136.302C138.739 136.215 138.621 136.166 138.497 136.166H64.8184Z" fill="#32353B"/>
<path d="M132.435 61.3213H64.8186C64.4323 61.3213 64.1191 61.6345 64.1191 62.0208V64.8187C64.1191 65.205 64.4323 65.5182 64.8186 65.5182H132.435C132.822 65.5182 133.135 65.205 133.135 64.8187V62.0208C133.135 61.6345 132.822 61.3213 132.435 61.3213Z" fill="#32353B"/>
<path d="M132.435 65.7514H64.8184C64.571 65.7514 64.3338 65.6531 64.1589 65.4782C63.984 65.3033 63.8857 65.0661 63.8857 64.8187V62.0208C63.8857 61.7734 63.984 61.5362 64.1589 61.3613C64.3338 61.1864 64.571 61.0881 64.8184 61.0881H132.435C132.682 61.0881 132.92 61.1864 133.094 61.3613C133.269 61.5362 133.368 61.7734 133.368 62.0208V64.8187C133.368 65.0661 133.269 65.3033 133.094 65.4782C132.92 65.6531 132.682 65.7514 132.435 65.7514ZM64.8184 61.5545C64.6947 61.5545 64.5761 61.6036 64.4886 61.691C64.4012 61.7785 64.3521 61.8971 64.3521 62.0208V64.8187C64.3521 64.9424 64.4012 65.061 64.4886 65.1484C64.5761 65.2359 64.6947 65.285 64.8184 65.285H132.435C132.559 65.285 132.677 65.2359 132.765 65.1484C132.852 65.061 132.901 64.9424 132.901 64.8187V62.0208C132.901 61.8971 132.852 61.7785 132.765 61.691C132.677 61.6036 132.559 61.5545 132.435 61.5545H64.8184Z" fill="#32353B"/>
<path d="M244.119 180C243.81 180 243.513 179.877 243.295 179.659C243.076 179.44 242.953 179.143 242.953 178.834V3.03109C242.953 2.84557 242.88 2.66766 242.748 2.53648C242.617 2.4053 242.439 2.33161 242.254 2.33161H3.03109C2.84557 2.33161 2.66766 2.4053 2.53648 2.53648C2.4053 2.66766 2.33161 2.84557 2.33161 3.03109V178.834C2.33161 179.143 2.20878 179.44 1.99015 179.659C1.77152 179.877 1.47499 180 1.1658 180C0.856613 180 0.560086 179.877 0.341456 179.659C0.122825 179.44 0 179.143 0 178.834L0 3.03109C0.00123333 2.22757 0.320975 1.45732 0.889147 0.889147C1.45732 0.320975 2.22757 0.00123333 3.03109 0L242.254 0C243.057 0.00123333 243.828 0.320975 244.396 0.889147C244.964 1.45732 245.284 2.22757 245.285 3.03109V178.834C245.285 179.143 245.162 179.44 244.944 179.659C244.725 179.877 244.428 180 244.119 180Z" fill="#32353B"/>
<path d="M111.451 144.793H64.8186C64.4323 144.793 64.1191 145.106 64.1191 145.492V148.29C64.1191 148.676 64.4323 148.99 64.8186 148.99H111.451C111.837 148.99 112.15 148.676 112.15 148.29V145.492C112.15 145.106 111.837 144.793 111.451 144.793Z" fill="#32353B" fill-opacity="0.3"/>
<path d="M111.451 33.342H64.8186C64.4323 33.342 64.1191 33.6552 64.1191 34.0415V36.8395C64.1191 37.2258 64.4323 37.5389 64.8186 37.5389H111.451C111.837 37.5389 112.15 37.2258 112.15 36.8395V34.0415C112.15 33.6552 111.837 33.342 111.451 33.342Z" fill="#32353B" fill-opacity="0.3"/>
<path d="M147.823 33.342H117.046C116.66 33.342 116.347 33.6552 116.347 34.0415V36.8395C116.347 37.2258 116.66 37.5389 117.046 37.5389H147.823C148.21 37.5389 148.523 37.2258 148.523 36.8395V34.0415C148.523 33.6552 148.21 33.342 147.823 33.342Z" fill="#32353B" fill-opacity="0.3"/>
<path d="M95.5958 41.7358H64.8186C64.4323 41.7358 64.1191 42.049 64.1191 42.4353V45.2332C64.1191 45.6196 64.4323 45.9327 64.8186 45.9327H95.5958C95.9821 45.9327 96.2953 45.6196 96.2953 45.2332V42.4353C96.2953 42.049 95.9821 41.7358 95.5958 41.7358Z" fill="#32353B" fill-opacity="0.3"/>
<path d="M147.823 70.6477H117.046C116.66 70.6477 116.347 70.9609 116.347 71.3472V74.1451C116.347 74.5314 116.66 74.8446 117.046 74.8446H147.823C148.21 74.8446 148.523 74.5314 148.523 74.1451V71.3472C148.523 70.9609 148.21 70.6477 147.823 70.6477Z" fill="#32353B" fill-opacity="0.3"/>
<path d="M95.5958 79.5078H64.8186C64.4323 79.5078 64.1191 79.821 64.1191 80.2073V83.0052C64.1191 83.3915 64.4323 83.7047 64.8186 83.7047H95.5958C95.9821 83.7047 96.2953 83.3915 96.2953 83.0052V80.2073C96.2953 79.821 95.9821 79.5078 95.5958 79.5078Z" fill="#32353B" fill-opacity="0.3"/>
<path d="M95.5958 116.813H64.8186C64.4323 116.813 64.1191 117.127 64.1191 117.513V120.311C64.1191 120.697 64.4323 121.01 64.8186 121.01H95.5958C95.9821 121.01 96.2953 120.697 96.2953 120.311V117.513C96.2953 117.127 95.9821 116.813 95.5958 116.813Z" fill="#32353B" fill-opacity="0.3"/>
<path d="M147.823 107.953H117.046C116.66 107.953 116.347 108.267 116.347 108.653V111.451C116.347 111.837 116.66 112.15 117.046 112.15H147.823C148.21 112.15 148.523 111.837 148.523 111.451V108.653C148.523 108.267 148.21 107.953 147.823 107.953Z" fill="#32353B" fill-opacity="0.3"/>
<path d="M147.823 144.793H117.046C116.66 144.793 116.347 145.106 116.347 145.492V148.29C116.347 148.676 116.66 148.99 117.046 148.99H147.823C148.21 148.99 148.523 148.676 148.523 148.29V145.492C148.523 145.106 148.21 144.793 147.823 144.793Z" fill="#32353B" fill-opacity="0.3"/>
<path d="M95.5958 153.653H64.8186C64.4323 153.653 64.1191 153.966 64.1191 154.352V157.15C64.1191 157.537 64.4323 157.85 64.8186 157.85H95.5958C95.9821 157.85 96.2953 157.537 96.2953 157.15V154.352C96.2953 153.966 95.9821 153.653 95.5958 153.653Z" fill="#32353B" fill-opacity="0.3"/>
<path d="M109.585 107.953H64.8186C64.4323 107.953 64.1191 108.267 64.1191 108.653V111.451C64.1191 111.837 64.4323 112.15 64.8186 112.15H109.585C109.972 112.15 110.285 111.837 110.285 111.451V108.653C110.285 108.267 109.972 107.953 109.585 107.953Z" fill="#32353B" fill-opacity="0.3"/>
<path d="M109.585 70.6477H64.8186C64.4323 70.6477 64.1191 70.9609 64.1191 71.3472V74.1451C64.1191 74.5314 64.4323 74.8446 64.8186 74.8446H109.585C109.972 74.8446 110.285 74.5314 110.285 74.1451V71.3472C110.285 70.9609 109.972 70.6477 109.585 70.6477Z" fill="#32353B" fill-opacity="0.3"/>
<path d="M47.798 44.7668H36.14C35.4601 44.7656 34.8085 44.495 34.3278 44.0143C33.847 43.5335 33.5764 42.8819 33.5752 42.202V30.544C33.5764 29.8642 33.847 29.2125 34.3278 28.7318C34.8085 28.2511 35.4601 27.9805 36.14 27.9792H47.798C48.4778 27.9805 49.1295 28.2511 49.6102 28.7318C50.0909 29.2125 50.3615 29.8642 50.3628 30.544V42.202C50.3615 42.8819 50.0909 43.5335 49.6102 44.0143C49.1295 44.495 48.4778 44.7656 47.798 44.7668ZM36.14 29.3782C35.8308 29.3782 35.5342 29.501 35.3156 29.7197C35.097 29.9383 34.9742 30.2348 34.9742 30.544V42.202C34.9742 42.5112 35.097 42.8078 35.3156 43.0264C35.5342 43.245 35.8308 43.3679 36.14 43.3679H47.798C48.1072 43.3679 48.4037 43.245 48.6223 43.0264C48.841 42.8078 48.9638 42.5112 48.9638 42.202V30.544C48.9638 30.2348 48.841 29.9383 48.6223 29.7197C48.4037 29.501 48.1072 29.3782 47.798 29.3782H36.14Z" fill="#777E8C"/>
<path d="M47.798 81.1399H36.14C35.4601 81.1386 34.8085 80.868 34.3278 80.3873C33.847 79.9066 33.5764 79.2549 33.5752 78.5751V66.9171C33.5764 66.2372 33.847 65.5856 34.3278 65.1049C34.8085 64.6241 35.4601 64.3535 36.14 64.3523H47.798C48.4778 64.3535 49.1295 64.6241 49.6102 65.1049C50.0909 65.5856 50.3615 66.2372 50.3628 66.9171V78.5751C50.3615 79.2549 50.0909 79.9066 49.6102 80.3873C49.1295 80.868 48.4778 81.1386 47.798 81.1399ZM36.14 65.7513C35.8308 65.7513 35.5342 65.8741 35.3156 66.0927C35.097 66.3113 34.9742 66.6079 34.9742 66.9171V78.5751C34.9742 78.8843 35.097 79.1808 35.3156 79.3994C35.5342 79.6181 35.8308 79.7409 36.14 79.7409H47.798C48.1072 79.7409 48.4037 79.6181 48.6223 79.3994C48.841 79.1808 48.9638 78.8843 48.9638 78.5751V66.9171C48.9638 66.6079 48.841 66.3113 48.6223 66.0927C48.4037 65.8741 48.1072 65.7513 47.798 65.7513H36.14Z" fill="#777E8C"/>
<path d="M47.798 117.979H36.14C35.4601 117.978 34.8085 117.707 34.3278 117.227C33.847 116.746 33.5764 116.094 33.5752 115.414V103.756C33.5764 103.077 33.847 102.425 34.3278 101.944C34.8085 101.463 35.4601 101.193 36.14 101.192H47.798C48.4778 101.193 49.1295 101.463 49.6102 101.944C50.0909 102.425 50.3615 103.077 50.3628 103.756V115.414C50.3615 116.094 50.0909 116.746 49.6102 117.227C49.1295 117.707 48.4778 117.978 47.798 117.979ZM36.14 102.591C35.8308 102.591 35.5342 102.713 35.3156 102.932C35.097 103.151 34.9742 103.447 34.9742 103.756V115.414C34.9742 115.724 35.097 116.02 35.3156 116.239C35.5342 116.457 35.8308 116.58 36.14 116.58H47.798C48.1072 116.58 48.4037 116.457 48.6223 116.239C48.841 116.02 48.9638 115.724 48.9638 115.414V103.756C48.9638 103.447 48.841 103.151 48.6223 102.932C48.4037 102.713 48.1072 102.591 47.798 102.591H36.14Z" fill="#777E8C"/>
<path d="M47.798 154.352H36.14C35.4601 154.351 34.8085 154.08 34.3278 153.6C33.847 153.119 33.5764 152.467 33.5752 151.787V140.129C33.5764 139.45 33.847 138.798 34.3278 138.317C34.8085 137.837 35.4601 137.566 36.14 137.565H47.798C48.4778 137.566 49.1295 137.837 49.6102 138.317C50.0909 138.798 50.3615 139.45 50.3628 140.129V151.787C50.3615 152.467 50.0909 153.119 49.6102 153.6C49.1295 154.08 48.4778 154.351 47.798 154.352ZM36.14 138.964C35.8308 138.964 35.5342 139.086 35.3156 139.305C35.097 139.524 34.9742 139.82 34.9742 140.129V151.787C34.9742 152.097 35.097 152.393 35.3156 152.612C35.5342 152.83 35.8308 152.953 36.14 152.953H47.798C48.1072 152.953 48.4037 152.83 48.6223 152.612C48.841 152.393 48.9638 152.097 48.9638 151.787V140.129C48.9638 139.82 48.841 139.524 48.6223 139.305C48.4037 139.086 48.1072 138.964 47.798 138.964H36.14Z" fill="#777E8C"/>
<path d="M40.3369 41.5027C40.1836 41.5032 40.0318 41.4734 39.8902 41.415C39.7485 41.3565 39.6198 41.2707 39.5115 41.1623L33.4493 35.1001C33.2304 34.8812 33.1074 34.5843 33.1074 34.2747C33.1074 33.9651 33.2304 33.6682 33.4493 33.4493C33.6682 33.2304 33.9651 33.1074 34.2747 33.1074C34.5843 33.1074 34.8812 33.2304 35.1001 33.4493L41.1623 39.5115C41.3793 39.7314 41.5009 40.0279 41.5009 40.3369C41.5009 40.6458 41.3793 40.9423 41.1623 41.1623C41.0539 41.2707 40.9253 41.3565 40.7836 41.415C40.6419 41.4734 40.4901 41.5032 40.3369 41.5027Z" fill="#32353B"/>
<path d="M40.3365 41.5026C40.1113 41.5026 39.8909 41.4373 39.702 41.3147C39.5131 41.1921 39.3638 41.0174 39.272 40.8117C39.1803 40.606 39.1501 40.3782 39.1851 40.1557C39.22 39.9332 39.3187 39.7257 39.4692 39.5581L52.0598 25.5684C52.2678 25.3439 52.5557 25.2101 52.8615 25.1961C53.1672 25.182 53.4662 25.2887 53.694 25.4932C53.9217 25.6976 54.0599 25.9835 54.0787 26.289C54.0975 26.5944 53.9955 26.8951 53.7945 27.1259L41.2039 41.1156C41.0944 41.2371 40.9606 41.3344 40.8112 41.401C40.6618 41.4677 40.5001 41.5023 40.3365 41.5026Z" fill="#32353B"/>
<path d="M39.8701 115.648C39.7168 115.648 39.565 115.618 39.4234 115.56C39.2817 115.502 39.153 115.416 39.0447 115.307L32.9825 109.245C32.7636 109.026 32.6406 108.729 32.6406 108.42C32.6406 108.11 32.7636 107.813 32.9825 107.594C33.2014 107.375 33.4983 107.252 33.8079 107.252C34.1175 107.252 34.4144 107.375 34.6333 107.594L40.6955 113.656C40.9125 113.876 41.0341 114.173 41.0341 114.482C41.0341 114.791 40.9125 115.087 40.6955 115.307C40.5872 115.416 40.4585 115.502 40.3168 115.56C40.1751 115.618 40.0233 115.648 39.8701 115.648Z" fill="#32353B"/>
<path d="M39.8707 115.648C39.6455 115.648 39.4251 115.582 39.2362 115.46C39.0473 115.337 38.8979 115.162 38.8062 114.957C38.7144 114.751 38.6842 114.523 38.7192 114.301C38.7542 114.078 38.8529 113.871 39.0033 113.703L51.594 99.7135C51.6955 99.5968 51.8192 99.5016 51.9579 99.4332C52.0965 99.3648 52.2474 99.3247 52.4018 99.3152C52.5561 99.3057 52.7108 99.327 52.8568 99.3778C53.0028 99.4287 53.1372 99.508 53.2523 99.6113C53.3673 99.7146 53.4607 99.8398 53.5269 99.9795C53.5931 100.119 53.6309 100.271 53.638 100.425C53.6451 100.58 53.6214 100.734 53.5683 100.879C53.5152 101.024 53.4338 101.158 53.3287 101.271L40.7381 115.261C40.6286 115.382 40.4948 115.479 40.3454 115.546C40.196 115.613 40.0343 115.647 39.8707 115.648Z" fill="#32353B"/>
</g>
<defs>
<clipPath id="clip0">
<rect width="245.285" height="180" fill="white"/>
</clipPath>
</defs>
</svg>
