<svg width="131" height="54" fill="none" xmlns="http://www.w3.org/2000/svg"><g clip-path="url(#clip0)"><path d="M5.51 46.87H3.532l-.375-4.249H5.14l.372 4.25zm119.976 0h1.983l.378-4.249h-1.983l-.378 4.25zM1.983 42.622H.003l.378 4.25h1.984l-.382-4.25zm126.649 4.25h1.983l.379-4.25h-1.983l-.379 4.25zM15.539 47.905a2.678 2.678 0 0 1-2.692 2.78 2.724 2.724 0 0 1-2.708-2.812v-.028c0-1.504 1.075-2.78 2.68-2.78a2.726 2.726 0 0 1 2.724 2.812v.028h-.003zm-8.41 0c0 2.989 2.42 5.385 5.674 5.385 3.254 0 5.722-2.425 5.722-5.417v-.028c0-2.992-2.421-5.385-5.675-5.385-3.253 0-5.722 2.425-5.722 5.416v.029zm13.24 5.177h2.936v-3.72h5.003v-2.397h-5.01v-1.771h5.54V42.67h-8.475v10.404l.006.007zm10.184 0h2.935v-3.72h5.01v-2.397h-5.013v-1.771h5.539V42.67h-8.478v10.404l.007.007zm16.737 0h2.935V45.2h3.178v-2.522h-9.297V45.2h3.187v7.882h-.003zm8.043 0h2.935v-3.957h3.783v3.957h2.935V42.678h-2.935v3.897h-3.783v-3.907h-2.935v10.414zm11.63 0h8.597v-2.456h-5.697v-1.652h5.086v-2.277h-5.086v-1.576h5.615v-2.456h-8.512V53.07l-.003.013zm16.662.075h2.556l2.12-5.99 2.133 5.99h2.557l3.54-10.489H93.49l-1.847 6.025-2.043-6.056h-2.522l-2.043 6.056-1.848-6.025h-3.105l3.544 10.49zm16.343-4.18l1.195-2.96 1.179 2.96h-2.377.003zm-4.707 4.098h3.087l.756-1.86h4.099l.772 1.86h3.153l-4.508-10.489h-2.838l-4.52 10.49zm13.241 0h8.068v-2.522h-5.123v-7.881h-2.935v10.403h-.01zm9.701 0h8.068v-2.522h-5.123v-7.881h-2.935v10.403h-.01z" fill="#000"/><path d="M113.563 16.466h-5.694c-.552-1.4-1.17-2.487-4.36-2.487-2.207 0-3.153.908-3.153 1.82 0 .995.785 1.834 3.216 2.373l5.157 1.375c3.377.901 5.013 3.581 5.013 6.412 0 1.576-.34 3.468-1.835 5.044-1.116 1.164-2.805 2.7-8.408 2.7-7.705 0-10.236-4.872-10.236-7.813h5.99c.59 2.15 2.065 2.966 4.984 2.966 2.024 0 3.761-.722 3.761-2.27 0-1.472-1.261-2.027-2.885-2.471l-4.076-1.1c-1.964-.6-3.607-1.079-4.767-2.06-3.036-2.572-2.815-7.216.486-9.63 1.828-1.337 3.701-2.034 6.674-2.034 3.493 0 5.489.996 7.059 2.08 1.393.947 3.048 3.273 3.048 5.108l.026-.013zM17.381.013c.047.205 11.917 33.418 11.917 33.418h7.084L47.293 5.782h67.783l.514-5.779H42.1l-9.054 22.91L24.91 0h-7.512l-.016.013zm58.602 21.454l8.846 11.945h5.536V9.79H83.99v12.847L75.983 9.79h-6.117v23.623h6.117V21.467zm39.834 10.719a1.258 1.258 0 0 0-.779-1.165 1.26 1.26 0 0 0-1.647 1.647 1.26 1.26 0 0 0 1.165.779 1.258 1.258 0 0 0 1.276-1.261h-.015zm-.145 0a1.117 1.117 0 0 1-.688 1.023 1.112 1.112 0 0 1-1.511-.813 1.108 1.108 0 0 1 1.092-1.323 1.1 1.1 0 0 1 1.039.683c.057.136.085.282.083.43h-.015zm-.511-.262a.454.454 0 0 0-.523-.441h-.593v1.336h.296v-.428h.234l.283.428h.344l-.315-.479a.415.415 0 0 0 .29-.416h-.016zm-.3.016a.182.182 0 0 1-.017.083.204.204 0 0 1-.05.067.198.198 0 0 1-.16.045h-.296v-.39h.287a.2.2 0 0 1 .177.034.202.202 0 0 1 .075.164l-.016-.003zm-72.612 1.472h6.794l1.261-3.695H59.3l1.302 3.695h6.69L58.728 9.79h-7.204L42.25 33.412zm9.962-7.97l2.633-7.853 2.598 7.853h-5.246.016z" fill="#D51920"/></g><defs><clipPath id="clip0"><path fill="#fff" d="M0 0h131v53.29H0z"/></clipPath></defs></svg>