<svg width="15" height="22" viewBox="0 0 15 22" fill="none" xmlns="http://www.w3.org/2000/svg">
<path fill-rule="evenodd" clip-rule="evenodd" d="M14.6738 7.88477V7.94922C14.6738 9.4961 14.3372 11.0644 13.6641 12.6543C13.0052 14.2585 12.2712 15.7158 11.4619 17.0264C10.6527 18.3369 9.91146 19.4147 9.23828 20.2598C8.5651 21.1048 8.21419 21.5417 8.18555 21.5703C8.07096 21.7279 7.93848 21.8389 7.78808 21.9033C7.63769 21.9678 7.49089 22 7.34766 22C7.1901 22 7.03613 21.9606 6.88574 21.8818C6.73535 21.8031 6.60286 21.6992 6.48828 21.5703L5.47852 20.3457C4.80533 19.515 4.06413 18.4479 3.25488 17.1445C2.44563 15.8411 1.69727 14.3802 1.00977 12.7617C0.336585 11.1432 0 9.53907 0 7.94922V7.88477C0 6.79622 0.193358 5.77214 0.580078 4.8125C0.966799 3.86718 1.49316 3.03646 2.15918 2.32031C2.8252 1.60416 3.60221 1.03841 4.49023 0.623047C5.37826 0.20768 6.33072 0 7.34766 0C8.35026 0 9.29557 0.20768 10.1836 0.623047C11.0716 1.03841 11.8486 1.60416 12.5146 2.32031C13.1807 3.03646 13.707 3.86718 14.0937 4.8125C14.4805 5.77214 14.6738 6.79622 14.6738 7.88477ZM7.34629 10.9999C8.3489 10.9999 9.20826 10.6418 9.92441 9.92568C10.6406 9.20953 10.9986 8.343 10.9986 7.32607C10.9986 6.32346 10.6406 5.46409 9.92441 4.74794C9.20826 4.03179 8.3489 3.67372 7.34629 3.67372C6.32936 3.67372 5.46283 4.03179 4.74668 4.74794C4.03053 5.46409 3.67246 6.32346 3.67246 7.32607C3.67246 8.343 4.03053 9.20953 4.74668 9.92568C5.46283 10.6418 6.32936 10.9999 7.34629 10.9999Z" fill="white"/>
</svg>
