<svg width="21" height="19" viewBox="0 0 21 19" fill="none" xmlns="http://www.w3.org/2000/svg">
<path fill-rule="evenodd" clip-rule="evenodd" d="M0 0V1.91978L2.76213 1.84142L7.24813 14.0653H18.7864L21 4.85821H6.01399L4.34888 0H0ZM9.72621 15.2994C9.38013 14.9729 8.96549 14.8097 8.48228 14.8097C7.98601 14.8097 7.57463 14.9729 7.24813 15.2994C6.92164 15.6259 6.7584 16.0373 6.7584 16.5336C6.7584 16.9907 6.92817 17.3923 7.26772 17.7383C7.60728 18.0844 8.01213 18.2575 8.48228 18.2575C8.93937 18.2575 9.33769 18.0942 9.67724 17.7677C10.0168 17.4412 10.1866 17.0299 10.1866 16.5336C10.2257 16.0373 10.0723 15.6259 9.72621 15.2994ZM16.514 14.8097C17.0103 14.8097 17.4216 14.9729 17.7481 15.2994C18.0746 15.6259 18.2379 16.0373 18.2379 16.5336C18.2379 17.0299 18.0746 17.4412 17.7481 17.7677C17.4216 18.0942 17.0103 18.2575 16.514 18.2575C16.0569 18.2575 15.6586 18.0844 15.319 17.7383C14.9795 17.3923 14.8097 16.9907 14.8097 16.5336C14.8097 16.0373 14.9729 15.6259 15.2994 15.2994C15.6259 14.9729 16.0308 14.8097 16.514 14.8097ZM6.75809 6.75838L8.59951 12.1651H17.3169L18.4922 6.75838H6.75809Z" fill="#C9192E"/>
</svg>
