<svg width="35" height="27" viewBox="0 0 35 27" fill="none" xmlns="http://www.w3.org/2000/svg">
<path fill-rule="evenodd" clip-rule="evenodd" d="M23.3373 24.411H22.3522V25.6635C22.3522 25.9541 22.451 26.1284 22.7532 26.1284C22.9418 26.1222 23.1258 26.0682 23.2879 25.9715L23.4622 26.4888C23.2357 26.6302 22.9738 26.7047 22.7067 26.7038C21.9918 26.7038 21.7419 26.3202 21.7419 25.6751V24.411H21.1781V23.8588H21.7419V23.0161H22.3522V23.8588H23.3373V24.411ZM28.1002 23.9053C27.9153 23.8319 27.718 23.7944 27.519 23.7949L27.5132 23.7862C27.3058 23.7854 27.1003 23.8259 26.9087 23.9053C26.733 23.976 26.573 24.0807 26.438 24.2134C26.3048 24.3453 26.1991 24.5024 26.127 24.6754C25.9755 25.0481 25.9755 25.4652 26.127 25.8378C26.1991 26.0109 26.3048 26.1679 26.438 26.2999C26.573 26.4326 26.733 26.5373 26.9087 26.6079C27.2919 26.7568 27.717 26.7568 28.1002 26.6079C28.2767 26.5372 28.4377 26.4326 28.5739 26.2999C28.7084 26.1684 28.8151 26.0113 28.8877 25.8378C29.0395 25.4652 29.0395 25.048 28.8877 24.6754C28.815 24.502 28.7083 24.3449 28.5739 24.2134C28.4377 24.0807 28.2767 23.976 28.1002 23.9053ZM11.2048 24.8905V26.6341H10.5975V25.091C10.5975 24.6202 10.3999 24.3587 9.9872 24.3587C9.79365 24.3493 9.60591 24.4262 9.47461 24.5687C9.34332 24.7113 9.282 24.9047 9.3072 25.0968V26.6341H8.69695V25.091C8.69695 24.6202 8.49353 24.3587 8.0925 24.3587C7.89834 24.3471 7.70926 24.4234 7.57747 24.5665C7.44569 24.7095 7.38512 24.9042 7.4125 25.0968V26.6341H6.80225V23.8588H7.40669V24.2018C7.58557 23.9297 7.89516 23.7727 8.22037 23.7891C8.59387 23.7731 8.94622 23.9626 9.13866 24.2831C9.34973 23.9528 9.72387 23.7635 10.1151 23.7891C10.4111 23.7717 10.7004 23.8825 10.909 24.0934C11.1176 24.3042 11.2254 24.5946 11.2048 24.8905ZM14.6048 23.8618V25.2479L14.599 26.6283H13.9946V26.2912C13.7866 26.5595 13.462 26.711 13.1228 26.698C12.3203 26.698 11.6698 26.0475 11.6698 25.245C11.6698 24.4425 12.3203 23.792 13.1228 23.792C13.462 23.779 13.7866 23.9305 13.9946 24.1988V23.8618H14.6048ZM12.3585 25.2479C12.3854 24.7919 12.7718 24.4409 13.2284 24.4581C13.6849 24.4752 14.044 24.8541 14.0366 25.3109C14.0292 25.7677 13.6581 26.1348 13.2012 26.1371C12.9673 26.1426 12.742 26.0493 12.5805 25.88C12.4189 25.7108 12.3362 25.4813 12.3527 25.2479H12.3585ZM27.519 24.3761C27.4006 24.3745 27.2831 24.3962 27.1732 24.44C27.0696 24.4816 26.9757 24.5439 26.8971 24.6231C26.817 24.7065 26.7547 24.8054 26.714 24.9137C26.6253 25.1457 26.6253 25.4024 26.714 25.6344C26.7546 25.7427 26.8169 25.8416 26.8971 25.925C26.9756 26.0043 27.0696 26.0666 27.1732 26.1081C27.3946 26.1948 27.6405 26.1948 27.8619 26.1081C27.9705 26.068 28.0694 26.0056 28.1525 25.925C28.2328 25.8417 28.2951 25.7428 28.3356 25.6344C28.4244 25.4024 28.4244 25.1457 28.3356 24.9137C28.2951 24.8053 28.2328 24.7064 28.1525 24.6231C28.0694 24.5425 27.9705 24.4802 27.8619 24.44C27.7523 24.3899 27.6337 24.3622 27.5132 24.3587L27.519 24.3761ZM16.5722 23.7949C17.3481 23.7949 17.8886 24.3761 17.8886 25.2479C17.8886 25.3293 17.8886 25.4019 17.8799 25.4746H15.8195C15.8668 25.8889 16.2352 26.1903 16.6506 26.1546C16.9447 26.1503 17.229 26.048 17.4585 25.864L17.7491 26.3115C17.431 26.5764 17.0266 26.715 16.6128 26.7009C15.8104 26.7121 15.1507 26.0707 15.1395 25.2682C15.1283 24.4658 15.7697 23.8062 16.5722 23.7949ZM15.8224 25.0038C15.8457 24.6204 16.1678 24.324 16.5518 24.3325C16.7345 24.3286 16.9112 24.3975 17.0431 24.5239C17.175 24.6504 17.2513 24.824 17.2551 25.0067L15.8224 25.0038ZM19.5595 24.3296C19.8657 24.333 20.1659 24.4151 20.4313 24.5679L20.7016 24.0797C20.3603 23.8767 19.968 23.7758 19.5711 23.7891C18.8621 23.7891 18.4087 24.1262 18.4087 24.6783C18.4087 25.1317 18.7458 25.4106 19.3677 25.4978L19.6583 25.5385C19.9896 25.585 20.1465 25.6722 20.1465 25.8291C20.1465 26.0441 19.9257 26.1662 19.513 26.1662C19.1811 26.1758 18.8556 26.0734 18.5889 25.8756L18.2983 26.3464C18.6495 26.5918 19.0702 26.7181 19.4985 26.7067C20.2976 26.7067 20.7626 26.2882 20.7626 25.8C20.7626 25.3118 20.3964 25.0561 19.792 24.9689L19.5014 24.9283C19.2399 24.8934 19.0306 24.8585 19.0306 24.6551C19.0306 24.4517 19.2282 24.3296 19.5595 24.3296ZM25.8568 23.8647C25.7187 23.8152 25.5733 23.7897 25.4267 23.7891L25.4383 23.8007C25.1381 23.7919 24.8571 23.948 24.706 24.2076V23.8705H24.1074V26.6457H24.7118V25.091C24.7118 24.6318 24.8978 24.3761 25.293 24.3761C25.4223 24.3743 25.5507 24.398 25.6708 24.4459L25.8568 23.8647ZM29.6055 26.2301C29.6433 26.2297 29.6808 26.2366 29.7159 26.2505C29.7493 26.2641 29.7798 26.2838 29.806 26.3086C29.8315 26.3336 29.8522 26.3632 29.867 26.3958C29.8968 26.4644 29.8968 26.5422 29.867 26.6108C29.8522 26.6434 29.8315 26.6729 29.806 26.698C29.7798 26.7228 29.7493 26.7425 29.7159 26.7561C29.6811 26.7715 29.6435 26.7794 29.6055 26.7794C29.493 26.7785 29.3912 26.7129 29.344 26.6108C29.3146 26.5421 29.3146 26.4644 29.344 26.3958C29.3588 26.3632 29.3794 26.3336 29.405 26.3086C29.4311 26.2838 29.4617 26.2641 29.4951 26.2505C29.5257 26.2383 29.5581 26.2314 29.591 26.2301H29.6055ZM29.6898 26.7038C29.6632 26.7155 29.6345 26.7214 29.6055 26.7212V26.7096C29.5476 26.7099 29.4921 26.6868 29.4515 26.6457C29.3761 26.5635 29.3761 26.4373 29.4515 26.3551C29.4714 26.3351 29.4951 26.3193 29.5212 26.3086C29.5479 26.2972 29.5765 26.2913 29.6055 26.2912C29.6345 26.2911 29.6632 26.297 29.6898 26.3086C29.7549 26.3369 29.8018 26.3956 29.8152 26.4653C29.8286 26.5351 29.8066 26.6069 29.7566 26.6573C29.7374 26.6769 29.7148 26.6926 29.6898 26.7038ZM29.6229 26.3754C29.6501 26.3741 29.6768 26.3823 29.6985 26.3987C29.7165 26.4136 29.7263 26.4363 29.7246 26.4597C29.7255 26.4792 29.7181 26.4982 29.7043 26.512C29.6875 26.5273 29.666 26.5365 29.6433 26.5382L29.7275 26.6341H29.6607L29.5822 26.5382H29.5561V26.6341H29.5009V26.3667L29.6229 26.3754ZM29.559 26.4946V26.4248L29.6229 26.4423C29.6343 26.4389 29.6464 26.4389 29.6578 26.4423C29.6619 26.4505 29.6619 26.4602 29.6578 26.4684C29.6619 26.4766 29.6619 26.4863 29.6578 26.4946C29.6464 26.498 29.6343 26.498 29.6229 26.4946H29.559Z" fill="black"/>
<rect x="13.3116" y="2.68604" width="9.15385" height="16.4508" fill="#7673C0"/>
<path d="M13.8929 10.9129C13.8894 7.70219 15.3629 4.66835 17.8886 2.68602C13.5993 -0.684901 7.43969 -0.193896 3.73859 3.81397C0.0374935 7.82184 0.0374935 14.001 3.73859 18.0088C7.43969 22.0167 13.5993 22.5077 17.8886 19.1368C15.3637 17.1551 13.8903 14.1225 13.8929 10.9129Z" fill="#EB001B"/>
<path d="M34.8131 10.9128C34.8121 14.9171 32.5254 18.5696 28.9238 20.3197C25.3221 22.0698 21.0374 21.6105 17.8886 19.1367C20.4123 17.1533 21.8859 14.1212 21.8859 10.9113C21.8859 7.70149 20.4123 4.66932 17.8886 2.68594C21.0374 0.21036 25.3233 -0.250018 28.926 1.50033C32.5288 3.25067 34.8159 6.90444 34.816 10.9099L34.8131 10.9128Z" fill="#00A1DF"/>
</svg>
