<svg width="8" height="7" viewBox="0 0 8 7" fill="none" xmlns="http://www.w3.org/2000/svg">
<path d="M7.85553 1.54402C7.95184 1.4477 8 1.33032 8 1.19187C8 1.05944 7.95184 0.945072 7.85553 0.848759L7.15124 0.14447C7.05493 0.048156 6.93755 0 6.7991 0C6.66065 0 6.54327 0.048156 6.44695 0.14447L3.06998 3.53047L1.55305 2.01354C1.45673 1.91723 1.33935 1.86907 1.2009 1.86907C1.06245 1.86907 0.945072 1.91723 0.848758 2.01354L0.14447 2.7088C0.048156 2.80512 0 2.9225 0 3.06095C0 3.1994 0.048156 3.31678 0.14447 3.41309L2.71783 5.98646C2.81415 6.08277 2.93153 6.13093 3.06998 6.13093C3.20241 6.13093 3.31678 6.08277 3.41309 5.98646L7.85553 1.54402Z" fill="#C9192E"/>
</svg>
