<svg width="40" height="14" viewBox="0 0 40 14" fill="none" xmlns="http://www.w3.org/2000/svg">
<path d="M17.2136 13.2402H13.9957L16.0084 0.795166H19.2261L17.2136 13.2402Z" fill="#00579F"/>
<path d="M28.8788 1.09942C28.2441 0.847608 27.2374 0.56958 25.9926 0.56958C22.8148 0.56958 20.577 2.26414 20.5633 4.68685C20.5369 6.47432 22.1655 7.46712 23.3835 8.06312C24.6285 8.67214 25.0517 9.06965 25.0517 9.61251C25.039 10.4462 24.0457 10.8306 23.1192 10.8306C21.8345 10.8306 21.1461 10.6324 20.1 10.1686L19.6763 9.96972L19.226 12.7634C19.9807 13.1072 21.3712 13.4123 22.8148 13.4257C26.1912 13.4257 28.3894 11.7574 28.4155 9.17559C28.4283 7.75888 27.5684 6.67334 25.7144 5.78629C24.5889 5.21686 23.8996 4.8329 23.8996 4.25028C23.9128 3.72062 24.4826 3.17811 25.7531 3.17811C26.7992 3.15154 27.5678 3.403 28.1501 3.65463L28.4412 3.78678L28.8788 1.09942Z" fill="#00579F"/>
<path fill-rule="evenodd" clip-rule="evenodd" d="M34.6387 0.795166H37.1277L39.7238 13.2401H36.7443C36.7443 13.2401 36.4527 11.8102 36.3603 11.3732H32.2288C32.1093 11.704 31.5535 13.2401 31.5535 13.2401H28.177L32.9568 1.82774C33.288 1.02005 33.8711 0.795166 34.6387 0.795166ZM34.4404 5.34936C34.4404 5.34936 33.4206 8.11644 33.1556 8.83139H35.8303C35.698 8.20917 35.0886 5.23023 35.0886 5.23023L34.8637 4.15789C34.769 4.43403 34.6321 4.81368 34.5397 5.06974C34.4771 5.24331 34.435 5.3601 34.4404 5.34936Z" fill="#00579F"/>
<path d="M11.308 0.795166L8.15662 9.28152L7.81225 7.56038C7.22962 5.57442 5.40238 3.41672 3.36328 2.34385L6.24984 13.227H9.65269L14.7107 0.795166H11.308V0.795166Z" fill="#00579F"/>
<path d="M5.23026 0.795166H0.052966L0 1.04662C4.03861 2.07937 6.71331 4.56877 7.81222 7.56091L6.68674 1.84129C6.50144 1.04645 5.93202 0.821385 5.23026 0.795166Z" fill="#FAA61A"/>
</svg>
