<svg width="16" height="9" viewBox="0 0 16 9" fill="none" xmlns="http://www.w3.org/2000/svg">
<path d="M7.71861 8.96232H8.66161C8.66161 8.96232 8.94645 8.93105 9.09188 8.77428C9.22573 8.63035 9.22145 8.36007 9.22145 8.36007C9.22145 8.36007 9.20303 7.09475 9.79029 6.90842C10.3692 6.72487 11.1126 8.13134 11.9005 8.67212C12.4963 9.0814 12.9491 8.99166 12.9491 8.99166L15.0559 8.96232C15.0559 8.96232 16.158 8.89443 15.6354 8.02789C15.5926 7.957 15.3311 7.38688 14.069 6.21536C12.748 4.98923 12.9249 5.18755 14.5162 3.06662C15.4853 1.77495 15.8727 0.986376 15.7517 0.648628C15.6363 0.326943 14.9235 0.411969 14.9235 0.411969L12.5514 0.426747C12.5514 0.426747 12.3755 0.40276 12.2451 0.480718C12.1177 0.557177 12.0357 0.735367 12.0357 0.735367C12.0357 0.735367 11.6602 1.7349 11.1595 2.58495C10.1032 4.37863 9.68085 4.47329 9.50822 4.36193C9.10665 4.10235 9.20689 3.31913 9.20689 2.76271C9.20689 1.0245 9.47053 0.299743 8.69352 0.11213C8.43565 0.0498057 8.2459 0.00868489 7.58647 0.00204559C6.74006 -0.00673542 6.02366 0.00461565 5.61802 0.203366C5.34817 0.33551 5.13999 0.629995 5.26678 0.646915C5.42355 0.667903 5.77865 0.742649 5.96691 0.999012C6.20999 1.32969 6.20142 2.07244 6.20142 2.07244C6.20142 2.07244 6.34106 4.11863 5.87524 4.37285C5.55548 4.54718 5.11686 4.19123 4.17515 2.56396C3.69262 1.73041 3.32832 0.809042 3.32832 0.809042C3.32832 0.809042 3.25807 0.636849 3.13278 0.544755C2.98072 0.433172 2.76826 0.397619 2.76826 0.397619L0.514111 0.412397C0.514111 0.412397 0.17572 0.421821 0.0515012 0.568956C-0.059011 0.699815 0.0427202 0.970527 0.0427202 0.970527C0.0427202 0.970527 1.80749 5.09932 3.80571 7.17999C5.63794 9.08761 7.71861 8.96232 7.71861 8.96232Z" fill="white"/>
</svg>
