<svg width="42" height="12" viewBox="0 0 42 12" fill="none" xmlns="http://www.w3.org/2000/svg">
    <path fill-rule="evenodd" clip-rule="evenodd" d="M9.88844 1.91739L8.36609 7.19102H8.10564L6.58329 1.91739C6.32284 1.025 5.50552 0.410645 4.57146 0.410645H0.920532V11.8906H4.57595V5.10578H4.83642L6.92908 11.8906H9.54267L11.6308 5.10578H11.8913V11.8906H15.5467V0.410645H11.8958C10.9662 0.410645 10.1489 1.025 9.88844 1.91739ZM30.1279 11.8906H33.8058V8.49597H37.5063C39.4417 8.49597 41.0899 7.40178 41.7274 5.86364H30.1279V11.8906ZM21.0388 7.19551L23.612 1.62143C23.9533 0.885988 24.6942 0.410645 25.5115 0.410645H28.6146V11.8906H24.9592V5.11027H24.6987L22.1255 10.6799C21.7842 11.4153 21.0433 11.8906 20.226 11.8906H17.123V0.410645H20.7784V7.19551H21.0388Z" fill="#006848"/>
    <path d="M37.87 0.410645C38.9253 0.410645 39.8818 0.814238 40.6048 1.47793C41.4132 2.21336 41.9206 3.27169 41.9206 4.45107C41.9206 4.69322 41.8937 4.93089 41.8532 5.16408H35.0633C32.7641 5.16408 30.8151 3.65733 30.1595 1.57658C30.1505 1.55416 30.146 1.52725 30.137 1.50035C30.1191 1.43757 30.1056 1.3703 30.0876 1.30752C30.0203 1.01603 29.9754 0.720065 29.9574 0.410645H37.87Z" fill="url(#paint0_linear)"/>
    <defs>
    <linearGradient id="paint0_linear" x1="41.9206" y1="12.9149" x2="30.0306" y2="12.9149" gradientUnits="userSpaceOnUse">
    <stop stop-color="#1E5CD8"/>
    <stop offset="1" stop-color="#02AFFF"/>
    </linearGradient>
    </defs>
</svg>
