<svg width="13" height="13" viewBox="0 0 13 13" fill="none" xmlns="http://www.w3.org/2000/svg">
<path d="M0 9.26372V13H3.0226C4.03014 13 5.03534 12.9977 6.03821 12.993C7.04109 12.9883 8.05095 12.986 9.06781 12.986L12.1044 12.958V9.26372C11.7033 9.08647 11.3068 8.90456 10.915 8.71798L8.50807 7.59849C8.10692 7.41191 7.71044 7.22533 7.31862 7.03875C7.54252 6.43236 7.76641 5.87029 7.99031 5.35253C8.21421 4.83477 8.39146 4.30068 8.52207 3.75027C8.68999 3.09723 8.72964 2.44188 8.64101 1.78418C8.55238 1.12648 8.15824 0.629711 7.45856 0.293864C7.06674 0.0979539 6.60262 0 6.0662 0C5.52978 0 5.06566 0.0839604 4.67384 0.251884C3.93685 0.569072 3.52637 1.05418 3.44241 1.70721C3.35845 2.36025 3.3911 3.01794 3.54037 3.6803C3.67097 4.24937 3.84822 4.80678 4.07212 5.35253C4.29602 5.89828 4.51058 6.47434 4.71582 7.08073C4.30534 7.26731 3.9042 7.45389 3.51238 7.64047C3.11123 7.81773 2.71475 7.99731 2.32293 8.17922C1.93111 8.36114 1.54396 8.54072 1.16146 8.71798C0.769642 8.90456 0.382492 9.08647 0 9.26372Z" fill="white"/>
</svg>
