<svg width="15" height="15" viewBox="0 0 15 15" fill="none" xmlns="http://www.w3.org/2000/svg">
<path fill-rule="evenodd" clip-rule="evenodd" d="M4.46858 0H10.5314C12.9954 0 15 2.0046 15 4.46858V10.5314C15 12.9954 12.9954 15 10.5314 15H4.46858C2.0046 15 0 12.9954 0 10.5314V4.46858C0 2.0046 2.0046 0 4.46858 0ZM10.5314 13.4909C12.1659 13.4909 13.491 12.1659 13.491 10.5314V4.46853C13.491 2.83398 12.1659 1.50895 10.5314 1.50895H4.46857C2.83405 1.50895 1.50899 2.83398 1.50899 4.46853V10.5314C1.50899 12.1659 2.83405 13.4909 4.46857 13.4909H10.5314ZM3.62047 7.4999C3.62047 5.36075 5.36083 3.62039 7.50001 3.62039C9.63918 3.62039 11.3795 5.36072 11.3795 7.4999C11.3795 9.63908 9.63918 11.3794 7.50001 11.3794C5.36083 11.3794 3.62047 9.63905 3.62047 7.4999ZM5.12945 7.49991C5.12945 8.80913 6.19076 9.87044 7.49998 9.87044C8.80918 9.87044 9.87052 8.8091 9.87052 7.49991C9.87052 6.19069 8.80921 5.12937 7.49998 5.12937C6.19079 5.12937 5.12945 6.19069 5.12945 7.49991ZM12.3167 3.64961C12.3167 4.16302 11.9005 4.57922 11.387 4.57922C10.8736 4.57922 10.4574 4.16302 10.4574 3.64961C10.4574 3.1362 10.8736 2.71999 11.387 2.71999C11.9005 2.71999 12.3167 3.1362 12.3167 3.64961Z" fill="white"/>
</svg>
