<svg width="27" height="26" viewBox="0 0 27 26" fill="none" xmlns="http://www.w3.org/2000/svg">
<path d="M26.8628 14.04V0H0.920532V25.9422H26.8628V18.3733C26.805 18.3733 26.8628 14.04 26.8628 14.04Z" fill="#006FCF"/>
<path fill-rule="evenodd" clip-rule="evenodd" d="M25.6494 12.5955H23.685L23.2228 11.9599V12.5377H20.3916L20.1605 11.9021H19.6983L19.4672 12.5377H17.7916H17.3872C17.2716 12.5377 17.1561 12.5377 17.0405 12.4799C17.0116 12.451 16.9683 12.4366 16.925 12.4221C16.8816 12.4077 16.8383 12.3932 16.8094 12.3643C16.7805 12.3355 16.7372 12.321 16.6939 12.3066C16.6505 12.2921 16.6072 12.2777 16.5783 12.2488V12.4799V12.5955H13.7472L13.3428 12.0177V12.5955H3.17387L2.94275 11.9599H2.48053L2.24942 12.5955H0.920532V9.99545L1.72942 8.03101H3.57831L3.92498 8.83989V8.03101H6.23609L6.52498 8.78212L6.81387 8.03101H16.5783V8.20434V8.31989C16.6361 8.29101 16.6794 8.27656 16.7228 8.26212C16.7661 8.24767 16.8094 8.23323 16.8672 8.20434C16.8982 8.18886 16.925 8.17338 16.9499 8.15901C17.0179 8.11975 17.0715 8.08878 17.1561 8.08878C17.2139 8.08878 17.2716 8.07434 17.3294 8.05989C17.3872 8.04545 17.445 8.03101 17.5028 8.03101H17.9072H20.9116L21.2583 8.83989V8.03101H23.1072L23.5116 8.66656V8.03101H25.6494V12.5955ZM26.8628 14.0977V18.3732C26.6619 18.4938 26.4331 18.5584 26.1957 18.6255C26.0917 18.6549 25.9861 18.6847 25.8805 18.7199H17.2716L16.8672 18.1421V18.7199H14.7872V17.5066C14.4983 17.6221 14.1516 17.6799 13.7472 17.6799H13.8628V18.6621H10.9739L10.5694 18.0843L10.165 18.6621H5.54275V14.0977H10.165L10.5694 14.6755L10.9739 14.0977H26.8628Z" fill="white"/>
<path fill-rule="evenodd" clip-rule="evenodd" d="M4.44498 11.8444H3.69387L3.46275 11.2089H1.96053L1.67164 11.8444H0.920532L2.24942 8.78223H3.11609L4.44498 11.8444ZM6.87164 11.8444H6.23609L5.4272 9.36V11.8444H4.73387V8.78223H5.88942L6.58275 10.8622L7.27609 8.78223H8.43164V11.8444H7.73831V9.36L6.87164 11.8444ZM23.9739 11.8444L22.7605 9.99556L22.645 9.76445V11.8444H21.9516V8.78223H22.8761L23.9739 10.5156L24.1472 10.8044V8.78223H24.8405V11.8444H23.9739ZM12.3605 14.7911V17.8533H13.0539V16.8133H13.9783C14.6139 16.8133 15.0761 16.4089 15.0761 15.7733C15.0761 15.1956 14.6716 14.7333 14.0361 14.7333L12.3605 14.7911ZM16.2316 16.7556H16.5783L17.5028 17.8533H18.3694L17.3294 16.6978C17.8494 16.5822 18.1383 16.2356 18.1383 15.7733C18.1383 15.1956 17.7339 14.7911 17.0983 14.7911H15.4805V17.8533H16.1739L16.2316 16.7556ZM21.0272 15.3689V14.7911H18.6005V17.8533H21.0272V17.2178H19.2939V16.5822H20.9694V15.9467H19.2939V15.3689H21.0272ZM21.4894 17.2756H23.0494C23.2228 17.2756 23.3961 17.16 23.3383 16.9289C23.3383 16.7556 23.2228 16.64 23.0494 16.64H22.3561C21.7783 16.64 21.4316 16.3511 21.4316 15.7733C21.4316 15.2533 21.8361 14.8489 22.4716 14.8489H24.0316L23.7428 15.4844H22.4139C22.2405 15.4844 22.125 15.6 22.125 15.7733C22.125 15.9467 22.2405 16.0622 22.4139 16.0622H23.1072C23.685 16.0622 24.0316 16.3511 24.0316 16.9289C24.0316 17.5067 23.6272 17.9111 22.9916 17.9111H21.4894V17.2756ZM24.3205 17.2756H25.8805C26.1116 17.2756 26.2272 17.16 26.1694 16.9289C26.1694 16.7556 26.0539 16.64 25.8805 16.64H25.1872C24.6094 16.64 24.2628 16.3511 24.2628 15.7733C24.2628 15.2533 24.6672 14.8489 25.3028 14.8489H26.8628L26.5739 15.4844H25.245C25.0716 15.4844 24.9561 15.6 24.9561 15.7733C24.9561 15.9467 25.0716 16.0622 25.245 16.0622H25.9383C26.5161 16.0622 26.8628 16.3511 26.8628 16.9289C26.8628 17.5067 26.4583 17.9111 25.8228 17.9111H24.3205V17.2756ZM17.5028 15.7733C17.5028 15.6 17.3872 15.4267 17.0983 15.4267L16.2316 15.3689V16.12H17.0983C17.3872 16.12 17.5028 15.9467 17.5028 15.7733ZM13.9783 16.2356C14.2672 16.2356 14.3828 16.0622 14.3828 15.8311C14.3828 15.6 14.2094 15.4267 13.9205 15.4267H13.0539V16.2356H13.9783ZM12.1872 17.8533H11.3205L10.5694 16.8133L9.81831 17.7956H8.95164L10.165 16.2933L8.95164 14.7911H9.81831L10.5694 15.7733L11.3205 14.7911H12.1872L10.9739 16.2933L12.1872 17.8533ZM8.72053 15.3689V14.7911H6.29387V17.8533H8.72053V17.2178H6.9872V16.5822H8.66275V15.9467H6.9872V15.3689H8.72053ZM19.7561 9.93778L19.9872 9.30223L20.2183 9.93778L20.5072 10.6311H19.4672L19.7561 9.93778ZM21.7205 11.8444H20.9694L20.6805 11.2089H19.1783L18.8894 11.8444H18.1383L19.4672 8.78223H20.3916L21.7205 11.8444ZM17.7339 11.8444L18.0228 11.2089H17.8494C17.3294 11.2089 17.0405 10.8622 17.0405 10.3422V10.2844C17.0405 9.76445 17.3294 9.41778 17.8494 9.41778H18.6005V8.78223H17.7916C16.8672 8.78223 16.3472 9.41778 16.3472 10.2844V10.3422C16.3472 11.2667 16.8672 11.8444 17.7339 11.8444ZM15.8272 11.8444H15.1339V10.4V8.84H15.8272V10.4578V11.8444ZM13.6316 9.41778C13.9205 9.41778 14.0361 9.59112 14.0361 9.76445C14.0361 9.93778 13.9205 10.1111 13.6316 10.1111H12.765V9.36L13.6316 9.41778ZM13.1116 10.7467H12.765L12.7072 11.8444H12.0139V8.78223H13.6316C14.2672 8.78223 14.6716 9.18667 14.6716 9.76445C14.6716 10.2267 14.3828 10.5733 13.8628 10.6889L14.9028 11.8444H14.0361L13.1116 10.7467ZM11.4939 9.36V8.78223H9.0672V11.8444H11.4939V11.2089H9.76053V10.5733H11.4361V9.93778H9.76053V9.36H11.4939ZM2.48053 9.93778L2.71164 9.30223L2.94275 9.93778L3.23164 10.6311H2.19164L2.48053 9.93778Z" fill="#006FCF"/>
</svg>
