<svg width="15" height="15" viewBox="0 0 15 15" fill="none" xmlns="http://www.w3.org/2000/svg">
<path fill-rule="evenodd" clip-rule="evenodd" d="M0 7.5C0 6.46484 0.19531 5.49317 0.585938 4.58496C0.976564 3.66699 1.51123 2.86866 2.18994 2.18994C2.86866 1.51123 3.66699 0.976564 4.58496 0.585938C5.49317 0.195311 6.46484 0 7.5 0C8.53516 0 9.50683 0.195311 10.415 0.585938C11.333 0.976564 12.1313 1.51123 12.8101 2.18994C13.4888 2.86866 14.0234 3.66699 14.4141 4.58496C14.8047 5.49317 15 6.46484 15 7.5C15 8.53516 14.8047 9.50683 14.4141 10.415C14.0234 11.333 13.4888 12.1313 12.8101 12.8101C12.1313 13.4888 11.333 14.0234 10.415 14.4141C9.50683 14.8047 8.53516 15 7.5 15C6.46484 15 5.49317 14.8047 4.58496 14.4141C3.66699 14.0234 2.86866 13.4888 2.18994 12.8101C1.51123 12.1313 0.976564 11.333 0.585938 10.415C0.19531 9.50683 0 8.53516 0 7.5ZM5.81019 4.43848L5.8102 4.43848C6.01528 4.22363 6.25697 4.06006 6.5353 3.94775C6.81362 3.83545 7.12856 3.7793 7.48012 3.7793C7.81215 3.7793 8.11 3.82812 8.37367 3.92578C8.63735 4.02344 8.86684 4.16504 9.06215 4.35059C9.25747 4.53613 9.40395 4.74853 9.5016 4.98779C9.59926 5.22705 9.64809 5.49316 9.64809 5.78613C9.64809 5.96192 9.631 6.1206 9.59682 6.26221C9.56264 6.40381 9.50649 6.52832 9.42836 6.63574C9.36 6.75293 9.25258 6.89209 9.1061 7.05322C8.95961 7.21436 8.77895 7.39746 8.5641 7.60254C8.39809 7.75879 8.26381 7.90283 8.16127 8.03467C8.05873 8.1665 7.98305 8.28613 7.93422 8.39355C7.88539 8.50098 7.84877 8.63525 7.82436 8.79639C7.79994 8.95752 7.78774 9.14062 7.78774 9.3457H6.90883C6.90883 9.11133 6.92104 8.89649 6.94545 8.70117C6.96987 8.50586 7.01137 8.33984 7.06996 8.20312C7.12856 8.05664 7.21889 7.89795 7.34096 7.72705C7.46303 7.55615 7.62172 7.37793 7.81703 7.19238L8.21254 6.79688C8.27114 6.73828 8.32485 6.67969 8.37367 6.62109C8.4225 6.5625 8.46645 6.50391 8.50551 6.44531C8.57387 6.33789 8.62514 6.22803 8.65932 6.11572C8.6935 6.00342 8.71059 5.88867 8.71059 5.77148C8.71059 5.60547 8.68618 5.45166 8.63735 5.31006C8.58852 5.16846 8.51528 5.03906 8.41762 4.92188C8.31996 4.80469 8.19057 4.7168 8.02944 4.6582C7.8683 4.59961 7.67543 4.57031 7.45082 4.57031C7.16762 4.57031 6.9308 4.62158 6.74037 4.72412C6.54994 4.82666 6.40102 4.98047 6.2936 5.18555C6.235 5.30273 6.18862 5.44189 6.15444 5.60303C6.12026 5.76416 6.09828 5.95703 6.08852 6.18164H5.19496C5.19496 5.82031 5.24623 5.49561 5.34877 5.20752C5.45131 4.91944 5.60511 4.66309 5.81019 4.43848ZM6.87953 11.2207V10.1807H7.87563V11.2207H6.87953Z" fill="white"/>
</svg>
