<svg width="17" height="17" viewBox="0 0 17 17" fill="none" xmlns="http://www.w3.org/2000/svg">
<path fill-rule="evenodd" clip-rule="evenodd" d="M12.2844 10.9965L17 15.8904L15.8904 17L11.1946 12.1259C10.6002 12.6146 9.93318 12.9977 9.19347 13.2751C8.45377 13.5524 7.66783 13.6911 6.83566 13.6911C5.89782 13.6911 5.01282 13.5128 4.18065 13.1562C3.34848 12.7863 2.62199 12.2943 2.00117 11.6801C1.38034 11.0658 0.891608 10.3427 0.534965 9.51049C0.178322 8.67832 0 7.78671 0 6.83566C0 5.89782 0.178322 5.01282 0.534965 4.18065C0.89161 3.34848 1.38034 2.62199 2.00117 2.00117C2.62199 1.38034 3.34849 0.891608 4.18065 0.534965C5.01282 0.178322 5.89782 0 6.83566 0C7.78671 0 8.67832 0.178322 9.51049 0.534965C10.3427 0.89161 11.0692 1.38034 11.69 2.00117C12.3108 2.62199 12.7995 3.34849 13.1562 4.18065C13.5128 5.01282 13.6911 5.89782 13.6911 6.83566C13.6911 7.615 13.5657 8.358 13.3147 9.06468C13.0637 9.77137 12.7203 10.4153 12.2844 10.9965ZM4.81433 11.6504C5.44836 11.9145 6.12202 12.0466 6.83531 12.0466C7.56181 12.0466 8.24207 11.9145 8.8761 11.6504C9.51013 11.373 10.0616 10.9998 10.5305 10.5309C10.9994 10.062 11.3726 9.5105 11.65 8.87647C11.9142 8.24243 12.0463 7.56217 12.0463 6.83567C12.0463 6.12239 11.9142 5.44873 11.65 4.8147C11.3726 4.18066 10.9995 3.62919 10.5305 3.16027C10.0616 2.69135 9.51013 2.3182 8.8761 2.04081C8.24207 1.77663 7.56181 1.64454 6.83531 1.64454C6.12202 1.64454 5.44836 1.77663 4.81433 2.04081C4.1803 2.31819 3.62882 2.69135 3.1599 3.16027C2.69099 3.62919 2.31783 4.18066 2.04044 4.8147C1.76305 5.44873 1.62436 6.12239 1.62436 6.83567C1.62436 7.56217 1.76305 8.24243 2.04044 8.87647C2.31783 9.5105 2.69098 10.062 3.1599 10.5309C3.62882 10.9998 4.1803 11.373 4.81433 11.6504Z" fill="black"/>
</svg>
