<svg width="39" height="25" viewBox="0 0 39 25" fill="none" xmlns="http://www.w3.org/2000/svg">
<path d="M0.920532 0.410645V24.0717H38.7362V0.410645H0.920532Z" fill="#1D5B99"/>
<path d="M38.294 0.852539V23.6301H1.36261V0.852539H38.294Z" fill="white"/>
<path d="M37.1172 22.6378V1.95752H2.4646V22.6378H37.1172Z" fill="#1D5B99"/>
<path d="M11.9478 14.4505C15.6215 12.8758 20.777 11.4487 27.6038 12.8778L27.6756 11.1464C20.4723 10.3597 15.3037 12.6538 11.9478 14.2795V14.4505Z" fill="#E7A83A"/>
<path fill-rule="evenodd" clip-rule="evenodd" d="M18.0428 9.11295C18.518 9.39674 19.1838 9.71509 20.1865 9.71509C21.0686 9.71509 21.9115 9.47739 22.3424 8.4146C22.5923 7.7969 22.3546 7.13634 21.3559 6.50672L21.0298 6.29933C20.5975 6.0305 20.4018 5.83121 20.5498 5.53772C20.6284 5.38167 20.8562 5.26606 21.1557 5.26606C21.5319 5.26606 21.8604 5.42816 22.2571 5.74874L23.0349 4.83633C22.6291 4.52202 21.9315 4.20044 21.1881 4.20044C20.1095 4.20044 19.4563 4.6526 19.208 5.24867C18.8208 6.18089 19.1769 6.7145 19.9998 7.27662L20.2737 7.4549C20.8283 7.76921 21.0717 7.95274 20.8738 8.29433C20.7384 8.52921 20.5 8.59348 20.2516 8.59348C19.593 8.59348 19.2525 8.3925 18.9011 8.18505C18.8413 8.14979 18.7813 8.11435 18.7193 8.07967L18.0428 9.11295ZM17.2747 4.31565L15.6819 9.56551H17.1027L18.6952 4.31565H17.2747ZM9.6468 15.3031H10.9071L10.9115 20.7357H9.65125L9.6468 15.3031ZM5.315 15.7235H8.77725V16.7667H6.626L6.61165 17.7299H8.75542V18.7296H6.60437L6.61206 19.6927H8.73379V20.7357H5.31622L5.315 15.7235ZM13.5836 20.8661C14.1633 20.8661 14.8152 20.6848 15.2425 20.3227L14.8225 19.5914C14.4819 19.8231 14.2357 19.9535 13.7939 19.9535C13.0985 19.9535 12.9174 19.4756 12.9174 19.1931H15.445C15.445 17.9401 15.0105 16.9551 13.6198 16.9551C12.4827 16.9551 11.657 17.8891 11.657 18.9901C11.657 19.9246 12.2583 20.8661 13.5836 20.8661ZM14.3153 18.4543C14.3153 18.0777 14.1342 17.7369 13.7142 17.7369C13.3158 17.7369 13.0116 18.0919 12.932 18.4543H14.3153ZM17.9298 20.8661C18.35 20.8661 18.9222 20.7066 19.2699 20.4895L18.8208 19.6565C18.618 19.758 18.3789 19.8665 18.14 19.8665C17.604 19.8665 17.1983 19.454 17.1983 18.9321C17.1983 18.3312 17.6185 17.9542 18.2485 17.9542C18.4513 17.9542 18.6542 18.0197 18.8426 18.0991L19.2481 17.2737C18.9657 17.0925 18.4442 16.9551 18.0096 16.9551C16.7637 16.9551 15.938 17.7662 15.938 18.9976C15.938 20.1997 16.771 20.8661 17.9298 20.8661ZM19.7356 17.0853H20.305L20.3007 15.8464H21.5176L21.4887 17.0853H22.5246L22.5025 17.9981H21.467C21.467 18.2823 21.4556 18.5756 21.4455 18.8334C21.4377 19.0354 21.4306 19.2157 21.4306 19.3525C21.4306 19.6711 21.5105 19.8231 21.7931 19.8231C21.9663 19.8231 22.111 19.7365 22.2557 19.65L22.2565 19.6495L22.5316 20.5043C22.1621 20.7288 21.7132 20.8663 21.2857 20.8663C20.2644 20.8663 20.2138 20.2217 20.2138 19.3814C20.2138 19.1611 20.2225 18.9409 20.2313 18.7165L20.2313 18.7165V18.7164V18.7164V18.7164V18.7164V18.7163V18.7163V18.7163V18.7163V18.7162C20.2405 18.4831 20.2498 18.2453 20.2498 17.9981H19.7067L19.7356 17.0853ZM24.4296 17.0853H23.1691L23.1404 20.7359H24.4005L24.4221 18.6281C24.4221 18.5555 24.7482 18.2006 25.1682 18.2006C25.3566 18.2006 25.4944 18.2368 25.6175 18.2732L25.7841 17.0273C25.6533 16.9984 25.5086 16.9838 25.3711 16.9838C24.8783 16.9838 24.6321 17.2882 24.4438 17.5997H24.4296V17.0853ZM28.0673 16.9549C29.4143 16.9549 30.1098 17.8097 30.1098 18.9103C30.1098 20.0113 29.4143 20.8661 28.0673 20.8661C26.7199 20.8661 26.0244 20.0113 26.0244 18.9103C26.0242 17.8097 26.7199 16.9549 28.0673 16.9549ZM28.8493 18.9103C28.8493 19.3883 28.6682 19.9098 28.0673 19.9098C27.466 19.9098 27.2849 19.3883 27.2849 18.9103C27.2849 18.4322 27.466 17.9112 28.0673 17.9112C28.6682 17.9112 28.8493 18.4322 28.8493 18.9103ZM30.7948 17.0853H32.0549V17.4837C32.3447 17.2015 32.7864 16.9551 33.2357 16.9551C34.0107 16.9551 34.4307 17.3822 34.4307 18.3819C34.4307 19.1278 34.4236 19.9314 34.4165 20.7352L34.4165 20.7359H33.1561L33.1569 20.6503V20.6501V20.65V20.6498V20.6497V20.6496C33.1637 19.9749 33.1706 19.2926 33.1706 18.5701C33.1706 18.2732 33.0908 18.0415 32.7142 18.0415C32.5113 18.0415 32.2214 18.2152 32.0549 18.3746L32.0482 20.7359H30.7655L30.7948 17.0853ZM15.047 4.31686L13.769 6.54229C13.7139 6.64112 13.6627 6.73165 13.6151 6.81565C13.3821 7.22747 13.2379 7.48232 13.162 7.78821H13.1428C13.1574 7.48347 13.1348 7.13353 13.1156 6.83707C13.1054 6.67929 13.0962 6.53666 13.0941 6.42405L12.953 4.31686H10.5614L10.5366 4.45835C11.151 4.45835 11.5155 4.7668 11.6159 5.39825L12.082 9.56551H13.5539L16.5301 4.31686H15.047ZM26.0563 8.7849L26.0953 9.56551V9.56572H27.5408L27.067 4.32576H25.1736L22.3774 9.56572H23.9198L24.2827 8.78368L26.0563 8.7849ZM25.9326 6.46892C25.9165 6.08083 25.9033 5.55429 25.9298 5.23533H25.9088C25.8541 5.40035 25.6854 5.77383 25.5275 6.1235L25.5274 6.12358C25.4356 6.32683 25.3475 6.52203 25.2874 6.66357L24.7589 7.81408H26.0048L25.9326 6.46892Z" fill="white"/>
</svg>
