<svg width="35" height="27" viewBox="0 0 35 27" fill="none" xmlns="http://www.w3.org/2000/svg">
<path fill-rule="evenodd" clip-rule="evenodd" d="M34.0276 26.0556C33.9932 26.041 33.9575 26.0338 33.9185 26.0338C33.8789 26.0338 33.8425 26.041 33.8081 26.0556C33.7737 26.0695 33.744 26.0893 33.7189 26.1144C33.6937 26.1389 33.6739 26.168 33.6594 26.2017C33.6448 26.2348 33.6375 26.2705 33.6375 26.3081C33.6375 26.3458 33.6448 26.3815 33.6594 26.4146C33.6739 26.4476 33.6937 26.4767 33.7189 26.5019C33.744 26.5263 33.7737 26.5462 33.8081 26.5607C33.8425 26.5752 33.8789 26.5825 33.9185 26.5825C33.9575 26.5825 33.9932 26.5752 34.0276 26.5607C34.0613 26.5462 34.0904 26.5263 34.1162 26.5019C34.1413 26.4767 34.1612 26.4476 34.1757 26.4146C34.1903 26.3815 34.1975 26.3458 34.1975 26.3081C34.1975 26.2705 34.1903 26.2348 34.1757 26.2017C34.1612 26.168 34.1413 26.1389 34.1162 26.1144C34.0904 26.0893 34.0613 26.0695 34.0276 26.0556ZM33.9185 26.5224C33.9483 26.5224 33.976 26.5164 34.0012 26.5052C34.027 26.4939 34.0494 26.4787 34.0686 26.4595C34.0878 26.4404 34.103 26.4179 34.1142 26.3915C34.1248 26.3657 34.1308 26.3379 34.1308 26.3081C34.1308 26.2784 34.1248 26.2506 34.1142 26.2248C34.103 26.1991 34.0878 26.1759 34.0686 26.1567C34.0494 26.1376 34.027 26.1224 34.0012 26.1111C33.976 26.1006 33.9483 26.0953 33.9185 26.0953C33.8888 26.0953 33.8603 26.1006 33.8346 26.1111C33.8081 26.1224 33.785 26.1376 33.7658 26.1567C33.7466 26.1759 33.7314 26.1991 33.7208 26.2248C33.7096 26.2506 33.7043 26.2784 33.7043 26.3081C33.7043 26.3379 33.7096 26.3657 33.7208 26.3915C33.7314 26.4179 33.7466 26.4404 33.7658 26.4595C33.785 26.4787 33.8081 26.4939 33.8346 26.5052C33.8603 26.5164 33.8888 26.5224 33.9185 26.5224ZM34.0104 26.2017C33.9926 26.1872 33.9675 26.1799 33.9351 26.1799H33.8174V26.4344H33.8716V26.3392H33.8967L33.9741 26.4344H34.0389L33.9556 26.3386C33.982 26.3353 34.0018 26.3267 34.0157 26.3134C34.0303 26.2996 34.0369 26.2824 34.0369 26.2612C34.0369 26.2361 34.0283 26.2162 34.0104 26.2017ZM33.8716 26.2956V26.2275H33.9344C33.9483 26.2275 33.9602 26.2301 33.9688 26.2361C33.9767 26.2414 33.9813 26.25 33.9813 26.2612C33.9813 26.2724 33.9767 26.2817 33.9688 26.287C33.9602 26.2923 33.9483 26.2956 33.9344 26.2956H33.8716ZM8.15997 25.0533C8.15997 24.568 8.47798 24.1694 8.99763 24.1694C9.49414 24.1694 9.82934 24.5508 9.82934 25.0533C9.82934 25.5558 9.49414 25.9372 8.99763 25.9372C8.47798 25.9372 8.15997 25.5386 8.15997 25.0533ZM10.3953 23.6729V25.0533V26.4338H9.79496V26.0986C9.60455 26.3472 9.31564 26.5032 8.92292 26.5032C8.14873 26.5032 7.54181 25.8969 7.54181 25.0533C7.54181 24.2104 8.14873 23.6034 8.92292 23.6034C9.31564 23.6034 9.60455 23.7595 9.79496 24.0081V23.6729H10.3953ZM30.6816 25.0533C30.6816 24.568 30.9996 24.1694 31.5193 24.1694C32.0164 24.1694 32.351 24.5508 32.351 25.0533C32.351 25.5558 32.0164 25.9372 31.5193 25.9372C30.9996 25.9372 30.6816 25.5386 30.6816 25.0533ZM32.9176 22.5641V25.0533V26.4338H32.3166V26.0986C32.1262 26.3472 31.8373 26.5032 31.4446 26.5032C30.6704 26.5032 30.0634 25.8969 30.0634 25.0533C30.0634 24.2104 30.6704 23.6034 31.4446 23.6034C31.8373 23.6034 32.1262 23.7595 32.3166 24.0081V22.5641H32.9176ZM17.8469 24.1409C18.2337 24.1409 18.4823 24.3836 18.5458 24.8107L17.1131 24.8107C17.1772 24.412 17.4192 24.1409 17.8469 24.1409ZM16.4837 25.0533C16.4837 24.1925 17.0496 23.6034 17.8588 23.6034C18.6324 23.6034 19.1639 24.1925 19.1699 25.0533C19.1699 25.134 19.1639 25.2093 19.158 25.284L17.1078 25.284C17.1944 25.7812 17.5468 25.9604 17.9336 25.9604C18.2106 25.9604 18.5054 25.8559 18.7368 25.6715L19.031 26.1164C18.6958 26.3994 18.315 26.5032 17.8992 26.5032C17.0728 26.5032 16.4837 25.9313 16.4837 25.0533ZM25.1076 25.0533C25.1076 24.568 25.4256 24.1694 25.9452 24.1694C26.4417 24.1694 26.7769 24.5508 26.7769 25.0533C26.7769 25.5558 26.4417 25.9372 25.9452 25.9372C25.4256 25.9372 25.1076 25.5386 25.1076 25.0533ZM27.3429 23.6729V25.0533V26.4338H26.7425V26.0986C26.5515 26.3472 26.2632 26.5032 25.8705 26.5032C25.0963 26.5032 24.4894 25.8969 24.4894 25.0533C24.4894 24.2104 25.0963 23.6034 25.8705 23.6034C26.2632 23.6034 26.5515 23.7595 26.7425 24.0081V23.6729H27.3429ZM21.7172 25.0533C21.7172 25.891 22.3004 26.5032 23.1903 26.5032C23.6061 26.5032 23.8831 26.4106 24.1833 26.1739L23.895 25.6887C23.6696 25.8506 23.4329 25.9372 23.1724 25.9372C22.6931 25.9313 22.3407 25.5849 22.3407 25.0533C22.3407 24.5218 22.6931 24.1753 23.1724 24.1694C23.4329 24.1694 23.6696 24.256 23.895 24.418L24.1833 23.9327C23.8831 23.696 23.6061 23.6034 23.1903 23.6034C22.3004 23.6034 21.7172 24.2156 21.7172 25.0533ZM28.7293 24.0081C28.8853 23.7654 29.1107 23.6034 29.4572 23.6034C29.5788 23.6034 29.752 23.6266 29.8849 23.6788L29.6998 24.2447C29.5729 24.1925 29.4459 24.1753 29.3243 24.1753C28.9316 24.1753 28.7352 24.4292 28.7352 24.886V26.4338H28.1342V23.6729H28.7293V24.0081ZM13.3644 23.8924C13.0755 23.7019 12.6775 23.6034 12.2385 23.6034C11.539 23.6034 11.0888 23.9386 11.0888 24.4874C11.0888 24.9376 11.424 25.2153 12.0415 25.3019L12.3251 25.3422C12.6544 25.3885 12.8097 25.4751 12.8097 25.6311C12.8097 25.8447 12.5902 25.9663 12.1803 25.9663C11.7645 25.9663 11.4643 25.8335 11.262 25.6774L10.9791 26.1448C11.3083 26.3875 11.7242 26.5032 12.1744 26.5032C12.9717 26.5032 13.4339 26.1277 13.4339 25.6021C13.4339 25.1168 13.0702 24.8629 12.4693 24.7763L12.1863 24.7353C11.9265 24.7009 11.7182 24.6494 11.7182 24.4642C11.7182 24.2619 11.9146 24.1409 12.2438 24.1409C12.5962 24.1409 12.9373 24.2738 13.1046 24.3776L13.3644 23.8924ZM20.3831 24.0081C20.5384 23.7654 20.7639 23.6034 21.1103 23.6034C21.232 23.6034 21.4052 23.6266 21.5381 23.6788L21.353 24.2447C21.226 24.1925 21.0991 24.1753 20.9774 24.1753C20.5847 24.1753 20.3884 24.4292 20.3884 24.886V26.4338H19.788V23.6729H20.3831V24.0081ZM15.9872 23.6729H15.0054V22.8352H14.3985V23.6729H13.8385V24.2216H14.3985V25.4811C14.3985 26.1217 14.647 26.5032 15.3571 26.5032C15.6176 26.5032 15.9178 26.4225 16.1082 26.2896L15.9349 25.7753C15.7558 25.8791 15.5594 25.9313 15.4034 25.9313C15.1032 25.9313 15.0054 25.7462 15.0054 25.4692V24.2216H15.9872V23.6729ZM7.01091 24.7009V26.4338H6.40399V24.8973C6.40399 24.4292 6.20763 24.1694 5.79773 24.1694C5.39906 24.1694 5.12204 24.4239 5.12204 24.9032V26.4338H4.51512V24.8973C4.51512 24.4292 4.31347 24.1694 3.91481 24.1694C3.50424 24.1694 3.23846 24.4239 3.23846 24.9032V26.4338H2.6322L2.6322 23.6729H3.23318V24.0133C3.45862 23.69 3.74688 23.6034 4.04175 23.6034C4.46355 23.6034 4.76371 23.7886 4.95412 24.0947C5.20865 23.7072 5.57228 23.5975 5.92466 23.6034C6.59506 23.6094 7.01091 24.0484 7.01091 24.7009Z" fill="#231F20"/>
<path d="M22.2885 18.9865H13.1902V2.63525H22.2885V18.9865Z" fill="#FF5F00"/>
<path d="M13.773 10.8097C13.773 7.49279 15.326 4.53817 17.7445 2.6341C15.9759 1.24174 13.7439 0.410692 11.3182 0.410692C5.5756 0.410692 0.920532 5.06642 0.920532 10.8097C0.920532 16.553 5.5756 21.2087 11.3182 21.2087C13.7439 21.2087 15.9759 20.3777 17.7445 18.9853C15.326 17.0813 13.773 14.1266 13.773 10.8097Z" fill="#EB001B"/>
<path d="M34.5592 10.8097C34.5592 16.553 29.9041 21.2087 24.1615 21.2087C21.7358 21.2087 19.5038 20.3777 17.7346 18.9853C20.1537 17.0813 21.7067 14.1266 21.7067 10.8097C21.7067 7.49279 20.1537 4.53817 17.7346 2.6341C19.5038 1.24174 21.7358 0.410692 24.1615 0.410692C29.9041 0.410692 34.5592 5.06642 34.5592 10.8097Z" fill="#F79E1B"/>
</svg>
