<svg width="246" height="180" viewBox="0 0 246 180" fill="none" xmlns="http://www.w3.org/2000/svg">
<g clip-path="url(#clip0)">
<path d="M244.119 180C243.81 180 243.513 179.877 243.295 179.659C243.076 179.44 242.953 179.143 242.953 178.834V3.03109C242.953 2.84557 242.88 2.66766 242.748 2.53648C242.617 2.4053 242.439 2.33161 242.254 2.33161H3.03109C2.84557 2.33161 2.66766 2.4053 2.53648 2.53648C2.4053 2.66766 2.33161 2.84557 2.33161 3.03109V178.834C2.33161 179.143 2.20878 179.44 1.99015 179.659C1.77152 179.877 1.47499 180 1.1658 180C0.856613 180 0.560086 179.877 0.341456 179.659C0.122825 179.44 0 179.143 0 178.834L0 3.03109C0.00123333 2.22757 0.320975 1.45732 0.889147 0.889147C1.45732 0.320975 2.22757 0.00123333 3.03109 0L242.254 0C243.057 0.00123333 243.828 0.320975 244.396 0.889147C244.964 1.45732 245.284 2.22757 245.285 3.03109V178.834C245.285 179.143 245.162 179.44 244.944 179.659C244.725 179.877 244.428 180 244.119 180Z" fill="#32353B"/>
<path d="M148.757 32.8757H31.7102C31.3239 32.8757 31.0107 33.1889 31.0107 33.5752V36.3731C31.0107 36.7595 31.3239 37.0726 31.7102 37.0726H148.757C149.143 37.0726 149.456 36.7595 149.456 36.3731V33.5752C149.456 33.1889 149.143 32.8757 148.757 32.8757Z" fill="#32353B"/>
<path d="M208.446 48.2642H121.243C120.857 48.2642 120.544 48.5773 120.544 48.9636V51.7616C120.544 52.1479 120.857 52.4611 121.243 52.4611H208.446C208.832 52.4611 209.145 52.1479 209.145 51.7616V48.9636C209.145 48.5773 208.832 48.2642 208.446 48.2642Z" fill="#32353B" fill-opacity="0.3"/>
<path d="M105.389 85.1035H31.7102C31.3239 85.1035 31.0107 85.4167 31.0107 85.803V88.6009C31.0107 88.9872 31.3239 89.3004 31.7102 89.3004H105.389C105.775 89.3004 106.088 88.9872 106.088 88.6009V85.803C106.088 85.4167 105.775 85.1035 105.389 85.1035Z" fill="#32353B"/>
<path d="M77.876 48.2642H31.7102C31.3239 48.2642 31.0107 48.5773 31.0107 48.9636V51.7616C31.0107 52.1479 31.3239 52.4611 31.7102 52.4611H77.876C78.2623 52.4611 78.5755 52.1479 78.5755 51.7616V48.9636C78.5755 48.5773 78.2623 48.2642 77.876 48.2642Z" fill="#32353B" fill-opacity="0.3"/>
<path d="M77.876 58.9897H31.7102C31.3239 58.9897 31.0107 59.3029 31.0107 59.6892V62.4872C31.0107 62.8735 31.3239 63.1866 31.7102 63.1866H77.876C78.2623 63.1866 78.5755 62.8735 78.5755 62.4872V59.6892C78.5755 59.3029 78.2623 58.9897 77.876 58.9897Z" fill="#32353B" fill-opacity="0.3"/>
<path d="M169.275 58.9897H137.565C137.178 58.9897 136.865 59.3029 136.865 59.6892V62.4872C136.865 62.8735 137.178 63.1866 137.565 63.1866H169.275C169.661 63.1866 169.974 62.8735 169.974 62.4872V59.6892C169.974 59.3029 169.661 58.9897 169.275 58.9897Z" fill="#32353B" fill-opacity="0.3"/>
<path d="M115.182 48.2642H84.4046C84.0182 48.2642 83.7051 48.5773 83.7051 48.9636V51.7616C83.7051 52.1479 84.0182 52.4611 84.4046 52.4611H115.182C115.568 52.4611 115.881 52.1479 115.881 51.7616V48.9636C115.881 48.5773 115.568 48.2642 115.182 48.2642Z" fill="#32353B" fill-opacity="0.3"/>
<path d="M130.57 58.9897H84.4046C84.0182 58.9897 83.7051 59.3029 83.7051 59.6892V62.4872C83.7051 62.8735 84.0182 63.1866 84.4046 63.1866H130.57C130.957 63.1866 131.27 62.8735 131.27 62.4872V59.6892C131.27 59.3029 130.957 58.9897 130.57 58.9897Z" fill="#32353B" fill-opacity="0.3"/>
<path d="M208.446 101.425H121.243C120.857 101.425 120.544 101.738 120.544 102.124V104.922C120.544 105.309 120.857 105.622 121.243 105.622H208.446C208.832 105.622 209.145 105.309 209.145 104.922V102.124C209.145 101.738 208.832 101.425 208.446 101.425Z" fill="#32353B" fill-opacity="0.3"/>
<path d="M77.876 101.425H31.7102C31.3239 101.425 31.0107 101.738 31.0107 102.124V104.922C31.0107 105.309 31.3239 105.622 31.7102 105.622H77.876C78.2623 105.622 78.5755 105.309 78.5755 104.922V102.124C78.5755 101.738 78.2623 101.425 77.876 101.425Z" fill="#32353B" fill-opacity="0.3"/>
<path d="M77.876 112.15H31.7102C31.3239 112.15 31.0107 112.463 31.0107 112.85V115.648C31.0107 116.034 31.3239 116.347 31.7102 116.347H77.876C78.2623 116.347 78.5755 116.034 78.5755 115.648V112.85C78.5755 112.463 78.2623 112.15 77.876 112.15Z" fill="#32353B" fill-opacity="0.3"/>
<path d="M169.275 112.15H137.565C137.178 112.15 136.865 112.463 136.865 112.85V115.648C136.865 116.034 137.178 116.347 137.565 116.347H169.275C169.661 116.347 169.974 116.034 169.974 115.648V112.85C169.974 112.463 169.661 112.15 169.275 112.15Z" fill="#32353B" fill-opacity="0.3"/>
<path d="M115.182 101.425H84.4046C84.0182 101.425 83.7051 101.738 83.7051 102.124V104.922C83.7051 105.309 84.0182 105.622 84.4046 105.622H115.182C115.568 105.622 115.881 105.309 115.881 104.922V102.124C115.881 101.738 115.568 101.425 115.182 101.425Z" fill="#32353B" fill-opacity="0.3"/>
<path d="M130.57 112.15H84.4046C84.0182 112.15 83.7051 112.463 83.7051 112.85V115.648C83.7051 116.034 84.0182 116.347 84.4046 116.347H130.57C130.957 116.347 131.27 116.034 131.27 115.648V112.85C131.27 112.463 130.957 112.15 130.57 112.15Z" fill="#32353B" fill-opacity="0.3"/>
<path d="M214.041 162.047H127.772C127.385 162.047 127.072 162.36 127.072 162.746V165.544C127.072 165.93 127.385 166.244 127.772 166.244H214.041C214.427 166.244 214.741 165.93 214.741 165.544V162.746C214.741 162.36 214.427 162.047 214.041 162.047Z" fill="#32353B" fill-opacity="0.3"/>
<path d="M31.0107 179.767V141.995H115.881V179.767" fill="#EDEDEF"/>
<path d="M212.643 141.529H180.933C180.547 141.529 180.233 141.842 180.233 142.228V145.026C180.233 145.412 180.547 145.725 180.933 145.725H212.643C213.029 145.725 213.342 145.412 213.342 145.026V142.228C213.342 141.842 213.029 141.529 212.643 141.529Z" fill="#32353B" fill-opacity="0.3"/>
<path d="M159.482 152.254H127.772C127.385 152.254 127.072 152.567 127.072 152.953V155.751C127.072 156.138 127.385 156.451 127.772 156.451H159.482C159.868 156.451 160.181 156.138 160.181 155.751V152.953C160.181 152.567 159.868 152.254 159.482 152.254Z" fill="#32353B" fill-opacity="0.3"/>
<path d="M197.254 152.254H165.544C165.158 152.254 164.845 152.567 164.845 152.953V155.751C164.845 156.138 165.158 156.451 165.544 156.451H197.254C197.64 156.451 197.954 156.138 197.954 155.751V152.953C197.954 152.567 197.64 152.254 197.254 152.254Z" fill="#32353B" fill-opacity="0.3"/>
<path d="M214.041 171.373H182.331C181.945 171.373 181.632 171.686 181.632 172.073V174.87C181.632 175.257 181.945 175.57 182.331 175.57H214.041C214.427 175.57 214.741 175.257 214.741 174.87V172.073C214.741 171.686 214.427 171.373 214.041 171.373Z" fill="#32353B" fill-opacity="0.3"/>
<path d="M173.938 141.529H127.772C127.385 141.529 127.072 141.842 127.072 142.228V145.026C127.072 145.412 127.385 145.725 127.772 145.725H173.938C174.324 145.725 174.637 145.412 174.637 145.026V142.228C174.637 141.842 174.324 141.529 173.938 141.529Z" fill="#32353B" fill-opacity="0.3"/>
<path d="M174.404 171.373H128.239C127.852 171.373 127.539 171.686 127.539 172.073V174.87C127.539 175.257 127.852 175.57 128.239 175.57H174.404C174.791 175.57 175.104 175.257 175.104 174.87V172.073C175.104 171.686 174.791 171.373 174.404 171.373Z" fill="#32353B" fill-opacity="0.3"/>
</g>
<defs>
<clipPath id="clip0">
<rect width="245.285" height="180" fill="white"/>
</clipPath>
</defs>
</svg>
