<svg width="92" height="64" viewBox="0 0 92 64" fill="none" xmlns="http://www.w3.org/2000/svg">
    <g clip-path="url(#clip0)">
        <path d="M53.8238 33.7598C54.4306 34.1623 54.4175 35.0576 53.7992 35.4422L43.1061 42.0937C42.4399 42.5081 41.5779 42.0291 41.5779 41.2446V27.4996C41.5779 26.702 42.466 26.2254 43.1307 26.6663L53.8238 33.7598Z" fill="#32353B"/>
        <path d="M91.7743 7.82812V62.8693C91.7739 63.1691 91.6546 63.4564 91.4426 63.6684C91.2307 63.8803 90.9433 63.9996 90.6436 64H1.63072C1.33098 63.9996 1.04364 63.8803 0.831689 63.6684C0.619737 63.4564 0.50046 63.1691 0.5 62.8693V8.69791H1.36979V62.8693C1.36979 62.9385 1.39728 63.0049 1.44621 63.0538C1.49515 63.1028 1.56152 63.1303 1.63072 63.1303H90.6436C90.7128 63.1303 90.7792 63.1028 90.8281 63.0538C90.877 63.0049 90.9045 62.9385 90.9045 62.8693V8.69791H91.3394V7.82812H91.7743Z" fill="#32353B"/>
        <path d="M92.0016 1.13072V7.82808H91.1318V1.13072C91.1318 1.06152 91.1043 0.995148 91.0554 0.946213C91.0064 0.897278 90.94 0.869787 90.8708 0.869787H1.63072C1.56152 0.869787 1.49515 0.897278 1.44621 0.946213C1.39728 0.995148 1.36979 1.06152 1.36979 1.13072V7.82808H0.934893V8.69787H0.5V1.13072C0.50046 0.830978 0.619737 0.543641 0.831689 0.331689C1.04364 0.119737 1.33098 0.000460085 1.63072 0L90.8708 0C91.1706 0.000460085 91.4579 0.119737 91.6699 0.331689C91.8818 0.543641 92.0011 0.830978 92.0016 1.13072Z" fill="#32353B"/>
        <path d="M91.5667 7.82812H91.1318V8.69791H91.5667V7.82812Z" fill="#32353B"/>
        <path d="M91.1319 7.82812H1.36987V8.69791H91.1319V7.82812Z" fill="#32353B"/>
        <path d="M1.36971 7.82812H0.934814V8.69791H1.36971V7.82812Z" fill="#32353B"/>
        <path d="M91.7787 8.26302V1.56566C91.7783 1.26591 91.659 0.978578 91.4471 0.766626C91.2351 0.554674 90.9478 0.435397 90.648 0.434937H1.63072C1.33098 0.435397 1.04364 0.554674 0.831689 0.766626C0.619737 0.978578 0.50046 1.26591 0.5 1.56566V8.26302H91.7787Z" fill="#32353B"/>
        <path d="M37.489 4.10901H38.5802V5.15738C38.4842 5.26745 38.3733 5.36348 38.2507 5.44266C37.9689 5.63241 37.6361 5.73191 37.2964 5.72793C37.0941 5.72793 36.8938 5.68808 36.7069 5.61067C36.52 5.53325 36.3502 5.41978 36.2072 5.27674C36.0641 5.13369 35.9507 4.96387 35.8732 4.77697C35.7958 4.59008 35.756 4.38976 35.756 4.18746C35.756 3.98517 35.7958 3.78485 35.8732 3.59795C35.9507 3.41106 36.0641 3.24124 36.2072 3.09819C36.3502 2.95515 36.52 2.84168 36.7069 2.76426C36.8938 2.68684 37.0941 2.647 37.2964 2.647C37.6245 2.64081 37.9457 2.74088 38.2122 2.93227C38.3253 3.01386 38.4274 3.10975 38.516 3.21754L38.2164 3.51708C38.1529 3.43151 38.0764 3.35643 37.9897 3.29456C37.7896 3.14517 37.5461 3.0655 37.2964 3.06777C37.0014 3.06777 36.7184 3.18499 36.5097 3.39363C36.3011 3.60228 36.1839 3.88526 36.1839 4.18033C36.1839 4.4754 36.3011 4.75838 36.5097 4.96703C36.7184 5.17567 37.0014 5.29289 37.2964 5.29289C37.5096 5.29627 37.7197 5.24153 37.9041 5.13456C37.9802 5.09088 38.0495 5.03607 38.1095 4.97196V4.53692H37.489V4.10901Z" fill="white"/>
        <path d="M41.0407 5.34995C40.9808 5.42576 40.9085 5.49086 40.8268 5.54251C40.6315 5.67149 40.4018 5.7386 40.1678 5.73507C39.8841 5.73791 39.6109 5.62792 39.4082 5.4293C39.3079 5.33096 39.2279 5.21382 39.1729 5.08457C39.1178 4.95531 39.0887 4.81648 39.0873 4.676C39.0859 4.53552 39.1122 4.39613 39.1647 4.2658C39.2171 4.13548 39.2948 4.01676 39.3931 3.91643C39.5917 3.7138 39.8627 3.59837 40.1464 3.59554C40.28 3.5915 40.4129 3.61503 40.537 3.66464C40.6611 3.71426 40.7736 3.7889 40.8675 3.88392C40.9615 3.97894 41.0348 4.09229 41.083 4.21691C41.1312 4.34153 41.1533 4.47474 41.1477 4.60825C41.1462 4.656 41.1419 4.70363 41.1349 4.75088L41.1263 4.81079H39.5431C39.5712 4.95887 39.6514 5.09201 39.7691 5.18617C39.8868 5.28033 40.0343 5.32931 40.1849 5.32428C40.3413 5.32107 40.4933 5.27142 40.6214 5.18164C40.6824 5.14245 40.7372 5.09437 40.784 5.03901L41.0407 5.34995ZM40.6984 4.45135C40.679 4.31858 40.6117 4.19748 40.5093 4.1108C40.4068 4.02413 40.2763 3.97785 40.1421 3.98065C40.003 3.97688 39.867 4.02187 39.7576 4.10783C39.6482 4.1938 39.5723 4.31532 39.5431 4.45135H40.6984Z" fill="white"/>
        <path d="M41.8323 4.0449H41.4514V3.63839H41.6868C41.8194 3.63839 41.8793 3.5742 41.8793 3.40304V2.95374H42.2644V3.63839H42.7351V4.0449H42.2644V5.00769C42.2644 5.22164 42.3629 5.32862 42.564 5.32862C42.6209 5.32854 42.6774 5.3184 42.7309 5.29866L42.7993 5.26443V5.67094L42.7095 5.70517C42.6343 5.72644 42.5565 5.73653 42.4784 5.73513C42.0676 5.73513 41.8365 5.49978 41.8365 5.05048L41.8323 4.0449Z" fill="white"/>
        <path d="M46.0684 5.13597C45.9768 5.24956 45.8703 5.35031 45.7518 5.4355C45.5554 5.58831 45.3252 5.69176 45.0806 5.73716C44.836 5.78256 44.584 5.76858 44.3459 5.6964C44.1078 5.62423 43.8905 5.49595 43.7122 5.32236C43.534 5.14877 43.4 4.93494 43.3215 4.69882C43.2431 4.4627 43.2224 4.2112 43.2613 3.96545C43.3002 3.7197 43.3975 3.48688 43.5451 3.28654C43.6926 3.0862 43.8861 2.9242 44.1093 2.81415C44.3324 2.7041 44.5787 2.64922 44.8275 2.65411C45.1555 2.64792 45.4767 2.74799 45.7432 2.93938C45.8564 3.02097 45.9585 3.11686 46.047 3.22465L45.7475 3.52419C45.684 3.43862 45.6075 3.36354 45.5207 3.30167C45.3207 3.15228 45.0771 3.07261 44.8275 3.07488C44.6814 3.07488 44.5367 3.10366 44.4017 3.15957C44.2667 3.21548 44.1441 3.29743 44.0408 3.40074C43.9375 3.50405 43.8555 3.6267 43.7996 3.76168C43.7437 3.89666 43.7149 4.04134 43.7149 4.18744C43.7149 4.33354 43.7437 4.47822 43.7996 4.6132C43.8555 4.74818 43.9375 4.87083 44.0408 4.97414C44.1441 5.07745 44.2667 5.1594 44.4017 5.21531C44.5367 5.27122 44.6814 5.3 44.8275 5.3C45.0809 5.30095 45.3276 5.21822 45.5293 5.06465C45.6213 4.99964 45.7022 4.92017 45.7689 4.8293L46.0684 5.13597Z" fill="white"/>
        <path d="M47.3951 3.59551C47.6067 3.59551 47.8135 3.65825 47.9895 3.77579C48.1654 3.89334 48.3025 4.06042 48.3835 4.25589C48.4644 4.45137 48.4856 4.66646 48.4443 4.87397C48.4031 5.08149 48.3012 5.2721 48.1516 5.42171C48.002 5.57132 47.8113 5.67321 47.6038 5.71448C47.3963 5.75576 47.1812 5.73458 46.9857 5.65361C46.7903 5.57264 46.6232 5.43552 46.5057 5.2596C46.3881 5.08368 46.3254 4.87685 46.3254 4.66527C46.324 4.52442 46.3508 4.38471 46.4041 4.25432C46.4574 4.12393 46.5361 4.00547 46.6357 3.90586C46.7353 3.80626 46.8538 3.72751 46.9842 3.67422C47.1146 3.62093 47.2543 3.59417 47.3951 3.59551ZM48.037 4.66527C48.037 4.49504 47.9694 4.33178 47.849 4.21141C47.7286 4.09104 47.5654 4.02341 47.3951 4.02341C47.2249 4.02341 47.0616 4.09104 46.9413 4.21141C46.8209 4.33178 46.7533 4.49504 46.7533 4.66527C46.7533 4.8355 46.8209 4.99876 46.9413 5.11914C47.0616 5.23951 47.2249 5.30713 47.3951 5.30713C47.5654 5.30713 47.7286 5.23951 47.849 5.11914C47.9694 4.99876 48.037 4.8355 48.037 4.66527Z" fill="white"/>
        <path d="M48.9354 3.63831H49.3633V4.83644C49.3578 4.90063 49.366 4.96526 49.3874 5.02603C49.4088 5.0868 49.4429 5.14231 49.4875 5.18887C49.532 5.23543 49.5859 5.27196 49.6457 5.29605C49.7055 5.32013 49.7697 5.3312 49.834 5.32854C49.9087 5.33018 49.983 5.31644 50.0522 5.28817C50.1214 5.25989 50.184 5.21769 50.2362 5.16417C50.2883 5.11066 50.329 5.04699 50.3555 4.97711C50.382 4.90723 50.3938 4.83265 50.3903 4.75799V3.63831H50.8182V5.69226H50.3903V5.39272C50.3441 5.45683 50.2894 5.5144 50.2277 5.56388C50.093 5.67546 49.9233 5.73605 49.7484 5.73505C49.2777 5.73505 48.9354 5.397 48.9354 4.83644V3.63831Z" fill="white"/>
        <path d="M51.4172 3.63834H51.8451V3.91648C51.893 3.85635 51.947 3.80138 52.0063 3.75245C52.1372 3.64696 52.3003 3.58957 52.4685 3.58984H52.5769V4.03915L52.5212 4.03059C52.4831 4.02348 52.4445 4.01919 52.4057 4.01775C52.3283 4.02157 52.2524 4.0407 52.1825 4.07403C52.1125 4.10736 52.0498 4.15423 51.9981 4.21193C51.9464 4.26963 51.9066 4.33702 51.8811 4.41019C51.8556 4.48336 51.8448 4.56086 51.8494 4.63822V5.69229H51.4215L51.4172 3.63834Z" fill="white"/>
        <path d="M53.0435 5.07183C53.0833 5.12652 53.1314 5.17464 53.1861 5.21447C53.2973 5.30241 53.4338 5.3524 53.5755 5.3571C53.8152 5.3571 53.9392 5.23301 53.9392 5.10036C53.9392 4.75803 52.8481 4.93347 52.8481 4.20175C52.8481 3.88082 53.1334 3.60268 53.5969 3.60268C53.7888 3.60143 53.9777 3.65062 54.1446 3.74532C54.2124 3.78209 54.2732 3.83035 54.3244 3.88796L54.0391 4.16609C54.0025 4.1332 53.9623 4.1045 53.9193 4.08051C53.8189 4.02343 53.7052 3.99391 53.5898 3.99493C53.3716 3.99493 53.2689 4.10191 53.2689 4.20889C53.2689 4.55121 54.36 4.38005 54.36 5.10749C54.36 5.44981 54.0648 5.74935 53.5684 5.74935C53.3504 5.75214 53.1374 5.68461 52.9608 5.55679C52.8825 5.50398 52.8131 5.43897 52.7554 5.36423L53.0435 5.07183Z" fill="white"/>
        <path d="M56.6379 5.34997C56.578 5.42578 56.5056 5.49088 56.4239 5.54253C56.2274 5.67234 55.9962 5.73948 55.7607 5.73509C55.477 5.73792 55.2037 5.62794 55.0011 5.42932C54.7985 5.23071 54.6831 4.95974 54.6802 4.67602C54.6774 4.3923 54.7874 4.11907 54.986 3.91644C55.1846 3.71382 55.4556 3.59839 55.7393 3.59555C55.8732 3.59092 56.0066 3.614 56.1312 3.66335C56.2558 3.71269 56.3688 3.78724 56.4632 3.88232C56.5576 3.97741 56.6314 4.09097 56.6799 4.21588C56.7283 4.3408 56.7505 4.47439 56.7449 4.60827C56.7438 4.65983 56.7395 4.71128 56.732 4.76231L56.7235 4.82222H55.1445C55.1727 4.9703 55.2528 5.10343 55.3705 5.1976C55.4882 5.29176 55.6357 5.34074 55.7864 5.33571C55.9428 5.3325 56.0947 5.28285 56.2228 5.19307C56.2838 5.15388 56.3386 5.1058 56.3854 5.05044L56.6379 5.34997ZM56.2956 4.45137C56.2761 4.3186 56.2089 4.1975 56.1064 4.11082C56.004 4.02415 55.8734 3.97786 55.7393 3.98067C55.6002 3.9769 55.4642 4.02189 55.3548 4.10785C55.2454 4.19381 55.1695 4.31533 55.1402 4.45137H56.2956Z" fill="white"/>
        <circle cx="5.5" cy="4.14514" r="1" fill="white"/>
        <circle cx="9.5" cy="4.14502" r="1" fill="white"/>
        <circle cx="13.5" cy="4.14502" r="1" fill="white"/>
    </g>
    <defs>
        <clipPath id="clip0">
            <rect width="91.2787" height="64" fill="white" transform="translate(0.5)"/>
        </clipPath>
    </defs>
</svg>
