<svg width="246" height="180" viewBox="0 0 246 180" fill="none" xmlns="http://www.w3.org/2000/svg">
<g clip-path="url(#clip0)">
<path d="M21 91C21 88.7909 22.7909 87 25 87H219C221.209 87 223 88.7909 223 91V124C223 126.209 221.209 128 219 128H25C22.7909 128 21 126.209 21 124V91Z" fill="#F8F8FA"/>
<path d="M21 39C21 36.7909 22.7909 35 25 35H219C221.209 35 223 36.7909 223 39V72C223 74.2091 221.209 76 219 76H25C22.7909 76 21 74.2091 21 72V39Z" fill="#F8F8FA"/>
<path d="M50.4748 98.9068H41.3908C41.1435 98.9068 40.9063 99.005 40.7313 99.1799C40.5564 99.3548 40.4582 99.5921 40.4582 99.8394V118.912C40.4643 119.155 40.5652 119.387 40.7395 119.556C40.9137 119.726 41.1475 119.821 41.3908 119.821H50.4748C50.7181 119.821 50.9519 119.726 51.1261 119.556C51.3004 119.387 51.4013 119.155 51.4074 118.912V99.8394C51.4074 99.7169 51.3833 99.5957 51.3364 99.4825C51.2895 99.3694 51.2208 99.2665 51.1342 99.1799C51.0476 99.0933 50.9448 99.0246 50.8317 98.9778C50.7185 98.9309 50.5972 98.9068 50.4748 98.9068ZM39.4043 99.5596C39.4043 99.0649 39.6008 98.5905 39.9506 98.2407C40.3004 97.8909 40.7749 97.6943 41.2696 97.6943H43.1349V98.1607H44.0675V97.6943H47.7981V98.1607H48.7307V97.6943H50.596C51.0907 97.6943 51.5652 97.8909 51.915 98.2407C52.2648 98.5905 52.4613 99.0649 52.4613 99.5596V119.145C52.4613 119.64 52.2648 120.114 51.915 120.464C51.5652 120.814 51.0907 121.01 50.596 121.01H41.2696C40.7749 121.01 40.3004 120.814 39.9506 120.464C39.6008 120.114 39.4043 119.64 39.4043 119.145V99.5596Z" fill="#777E8C"/>
<path d="M245.285 20.9844V176.969C245.284 177.772 244.964 178.543 244.396 179.111C243.828 179.679 243.057 179.999 242.254 180H3.03109C2.22757 179.999 1.45732 179.679 0.889147 179.111C0.320975 178.543 0.00123333 177.772 0 176.969L0 23.316H2.33161V176.969C2.33161 177.154 2.4053 177.332 2.53648 177.463C2.66766 177.595 2.84557 177.668 3.03109 177.668H242.254C242.439 177.668 242.617 177.595 242.748 177.463C242.88 177.332 242.953 177.154 242.953 176.969V23.316H244.119V20.9844H245.285Z" fill="#32353B"/>
<path d="M245.285 3.03109V20.9845H242.953V3.03109C242.953 2.84557 242.88 2.66766 242.748 2.53648C242.617 2.4053 242.439 2.33161 242.254 2.33161H3.03109C2.84557 2.33161 2.66766 2.4053 2.53648 2.53648C2.4053 2.66766 2.33161 2.84557 2.33161 3.03109V20.9845H1.1658V23.3161H0V3.03109C0.00123333 2.22757 0.320975 1.45732 0.889147 0.889147C1.45732 0.320975 2.22757 0.00123333 3.03109 0L242.254 0C243.057 0.00123333 243.828 0.320975 244.396 0.889147C244.964 1.45732 245.284 2.22757 245.285 3.03109Z" fill="#32353B"/>
<path d="M244.119 20.9844H242.953V23.316H244.119V20.9844Z" fill="#32353B"/>
<path d="M242.954 20.9844H2.33203V23.316H242.954V20.9844Z" fill="#32353B"/>
<path d="M211.09 55.2709L203.209 59.6637L203.344 50.645L211.09 55.2709Z" fill="#32353B"/>
<path d="M211.09 107.701L203.209 112.094L203.344 103.075L211.09 107.701Z" fill="#32353B"/>
<path d="M167.409 58.0569H145.958C145.572 58.0569 145.259 58.3701 145.259 58.7564V59.689C145.259 60.0753 145.572 60.3885 145.958 60.3885H167.409C167.795 60.3885 168.109 60.0753 168.109 59.689V58.7564C168.109 58.3701 167.795 58.0569 167.409 58.0569Z" fill="#32353B" fill-opacity="0.3"/>
<path d="M167.409 53.8601H134.767C134.381 53.8601 134.067 54.1733 134.067 54.5596V55.4922C134.067 55.8785 134.381 56.1917 134.767 56.1917H167.409C167.796 56.1917 168.109 55.8785 168.109 55.4922V54.5596C168.109 54.1733 167.796 53.8601 167.409 53.8601Z" fill="#32353B" fill-opacity="0.3"/>
<path d="M166.943 108.886H145.492C145.106 108.886 144.793 109.199 144.793 109.585V110.518C144.793 110.904 145.106 111.218 145.492 111.218H166.943C167.33 111.218 167.643 110.904 167.643 110.518V109.585C167.643 109.199 167.33 108.886 166.943 108.886Z" fill="#32353B" fill-opacity="0.3"/>
<path d="M166.943 104.689H134.3C133.914 104.689 133.601 105.002 133.601 105.389V106.321C133.601 106.708 133.914 107.021 134.3 107.021H166.943C167.329 107.021 167.642 106.708 167.642 106.321V105.389C167.642 105.002 167.329 104.689 166.943 104.689Z" fill="#32353B" fill-opacity="0.3"/>
<path d="M141.295 58.0569H108.653C108.266 58.0569 107.953 58.3701 107.953 58.7564V59.689C107.953 60.0753 108.266 60.3885 108.653 60.3885H141.295C141.681 60.3885 141.995 60.0753 141.995 59.689V58.7564C141.995 58.3701 141.681 58.0569 141.295 58.0569Z" fill="#32353B" fill-opacity="0.3"/>
<path d="M140.829 108.886H108.187C107.8 108.886 107.487 109.199 107.487 109.585V110.518C107.487 110.904 107.8 111.218 108.187 111.218H140.829C141.216 111.218 141.529 110.904 141.529 110.518V109.585C141.529 109.199 141.216 108.886 140.829 108.886Z" fill="#32353B" fill-opacity="0.3"/>
<path d="M130.103 53.8601H108.653C108.266 53.8601 107.953 54.1733 107.953 54.5596V55.4922C107.953 55.8785 108.266 56.1917 108.653 56.1917H130.103C130.49 56.1917 130.803 55.8785 130.803 55.4922V54.5596C130.803 54.1733 130.49 53.8601 130.103 53.8601Z" fill="#32353B" fill-opacity="0.3"/>
<path d="M129.638 104.689H108.187C107.8 104.689 107.487 105.002 107.487 105.389V106.321C107.487 106.708 107.8 107.021 108.187 107.021H129.638C130.024 107.021 130.337 106.708 130.337 106.321V105.389C130.337 105.002 130.024 104.689 129.638 104.689Z" fill="#32353B" fill-opacity="0.3"/>
<path d="M119.844 92.5647H71.3469C70.9606 92.5647 70.6475 92.8779 70.6475 93.2642V96.0621C70.6475 96.4484 70.9606 96.7616 71.3469 96.7616H119.844C120.231 96.7616 120.544 96.4484 120.544 96.0621V93.2642C120.544 92.8779 120.231 92.5647 119.844 92.5647Z" fill="#32353B"/>
<path d="M119.844 41.2695H71.3469C70.9606 41.2695 70.6475 41.5827 70.6475 41.969V44.7669C70.6475 45.1532 70.9606 45.4664 71.3469 45.4664H119.844C120.231 45.4664 120.544 45.1532 120.544 44.7669V41.969C120.544 41.5827 120.231 41.2695 119.844 41.2695Z" fill="#32353B"/>
<path d="M103.524 58.0569H71.8137C71.4274 58.0569 71.1143 58.3701 71.1143 58.7564V59.689C71.1143 60.0753 71.4274 60.3885 71.8137 60.3885H103.524C103.91 60.3885 104.223 60.0753 104.223 59.689V58.7564C104.223 58.3701 103.91 58.0569 103.524 58.0569Z" fill="#32353B" fill-opacity="0.3"/>
<path d="M103.524 53.8601H71.8137C71.4274 53.8601 71.1143 54.1733 71.1143 54.5596V55.4922C71.1143 55.8785 71.4274 56.1917 71.8137 56.1917H103.524C103.91 56.1917 104.223 55.8785 104.223 55.4922V54.5596C104.223 54.1733 103.91 53.8601 103.524 53.8601Z" fill="#32353B" fill-opacity="0.3"/>
<path d="M103.057 108.886H71.3469C70.9606 108.886 70.6475 109.199 70.6475 109.585V110.518C70.6475 110.904 70.9606 111.218 71.3469 111.218H103.057C103.443 111.218 103.756 110.904 103.756 110.518V109.585C103.756 109.199 103.443 108.886 103.057 108.886Z" fill="#32353B" fill-opacity="0.3"/>
<path d="M103.057 104.689H71.3469C70.9606 104.689 70.6475 105.002 70.6475 105.389V106.321C70.6475 106.708 70.9606 107.021 71.3469 107.021H103.057C103.443 107.021 103.756 106.708 103.756 106.321V105.389C103.756 105.002 103.443 104.689 103.057 104.689Z" fill="#32353B" fill-opacity="0.3"/>
<path d="M50.5869 52.6943C51.9445 52.6943 53.2717 53.0969 54.4005 53.8512C55.5293 54.6054 56.4091 55.6775 56.9286 56.9318C57.4482 58.186 57.5841 59.5662 57.3193 60.8977C57.0544 62.2293 56.4006 63.4524 55.4407 64.4123C54.4807 65.3723 53.2576 66.0261 51.9261 66.2909C50.5945 66.5558 49.2143 66.4199 47.9601 65.9003C46.7058 65.3808 45.6337 64.501 44.8795 63.3722C44.1252 62.2433 43.7227 60.9162 43.7227 59.5586C43.7239 57.7385 44.4475 55.9932 45.7345 54.7062C47.0215 53.4192 48.7668 52.6956 50.5869 52.6943ZM56.0988 59.5586C56.0988 58.4684 55.7756 57.4028 55.1699 56.4963C54.5642 55.5899 53.7034 54.8834 52.6962 54.4662C51.6891 54.0491 50.5808 53.9399 49.5116 54.1526C48.4424 54.3653 47.4602 54.8902 46.6894 55.6611C45.9185 56.4319 45.3936 57.4141 45.1809 58.4833C44.9682 59.5525 45.0774 60.6607 45.4946 61.6679C45.9117 62.6751 46.6182 63.5359 47.5246 64.1416C48.4311 64.7472 49.4968 65.0705 50.5869 65.0705C52.0484 65.0693 53.4496 64.4882 54.4831 63.4547C55.5165 62.4213 56.0976 61.0201 56.0988 59.5586Z" fill="#777E8C"/>
<path d="M48.7305 97.6943H47.7979V98.1607H48.7305V97.6943Z" fill="#777E8C"/>
<path d="M48.936 96.2114V98.6269H47.8775V96.2114C47.8763 96.1499 47.8513 96.0913 47.8079 96.0478C47.7644 96.0044 47.7058 95.9794 47.6443 95.9782H43.8718C43.8103 95.9794 43.7517 96.0044 43.7082 96.0478C43.6648 96.0913 43.6398 96.1499 43.6386 96.2114V98.6269H42.5801V96.2114C42.5801 95.8688 42.7162 95.5403 42.9584 95.298C43.2007 95.0558 43.5292 94.9197 43.8718 94.9197H47.6443C47.9869 94.9197 48.3155 95.0558 48.5577 95.298C48.7999 95.5403 48.936 95.8688 48.936 96.2114Z" fill="#777E8C"/>
<path d="M44.0674 97.6943H43.1348V98.1607H44.0674V97.6943Z" fill="#777E8C"/>
<path d="M40.2668 43.2512C41.2474 43.2503 42.2062 43.5402 43.022 44.0844C43.8378 44.6285 44.4739 45.4023 44.8498 46.308C45.2257 47.2137 45.3245 48.2105 45.1338 49.1724C44.943 50.1343 44.4713 51.018 43.7782 51.7117C43.0852 52.4054 42.2019 52.878 41.2402 53.0696C40.2785 53.2613 39.2816 53.1634 38.3756 52.7883C37.4695 52.4133 36.6951 51.7779 36.1502 50.9627C35.6053 50.1474 35.3145 49.1888 35.3145 48.2082C35.3157 46.8947 35.8377 45.6353 36.766 44.7061C37.6944 43.7769 38.9533 43.2537 40.2668 43.2512ZM43.9274 48.2082C43.9274 47.4842 43.7127 46.7765 43.3105 46.1745C42.9082 45.5725 42.3365 45.1033 41.6676 44.8262C40.9987 44.5492 40.2627 44.4767 39.5526 44.6179C38.8425 44.7592 38.1903 45.1078 37.6783 45.6198C37.1664 46.1317 36.8177 46.784 36.6765 47.4941C36.5353 48.2042 36.6077 48.9402 36.8848 49.6091C37.1619 50.278 37.6311 50.8497 38.2331 51.2519C38.835 51.6541 39.5428 51.8688 40.2668 51.8688C41.2369 51.8664 42.1665 51.4799 42.8525 50.7939C43.5385 50.108 43.9249 49.1783 43.9274 48.2082Z" fill="#777E8C"/>
<path d="M2.33182 20.9844H1.16602V23.316H2.33182V20.9844Z" fill="#32353B"/>
<path d="M25.6456 11.0151H28.5707V13.8254C28.3136 14.1205 28.0162 14.3779 27.6874 14.5902C26.9322 15.0988 26.04 15.3655 25.1295 15.3549C24.5872 15.3549 24.0502 15.2481 23.5492 15.0405C23.0482 14.833 22.5929 14.5288 22.2095 14.1454C21.826 13.7619 21.5219 13.3067 21.3143 12.8057C21.1068 12.3047 21 11.7677 21 11.2254C21 10.6831 21.1068 10.1461 21.3143 9.64513C21.5219 9.14412 21.826 8.68889 22.2095 8.30543C22.5929 7.92198 23.0482 7.6178 23.5492 7.41028C24.0502 7.20275 24.5872 7.09594 25.1295 7.09594C26.0088 7.07934 26.8699 7.34759 27.5842 7.86066C27.8875 8.07938 28.1613 8.33641 28.3986 8.62537L27.5957 9.42832C27.4254 9.19896 27.2203 8.99769 26.9877 8.83185C26.4515 8.43136 25.7987 8.2178 25.1295 8.2239C24.3385 8.2239 23.5799 8.53811 23.0206 9.09742C22.4613 9.65673 22.1471 10.4153 22.1471 11.2063C22.1471 11.9973 22.4613 12.7558 23.0206 13.3152C23.5799 13.8745 24.3385 14.1887 25.1295 14.1887C25.7009 14.1977 26.264 14.051 26.7583 13.7643C26.9625 13.6472 27.1481 13.5002 27.3089 13.3284V12.1622H25.6456V11.0151Z" fill="#32353B"/>
<path d="M35.1662 14.3416C35.0056 14.5448 34.8116 14.7194 34.5927 14.8578C34.0691 15.2036 33.4535 15.3835 32.8262 15.374C32.0656 15.3816 31.3332 15.0868 30.79 14.5544C30.5211 14.2907 30.3067 13.9767 30.1591 13.6302C30.0115 13.2837 29.9336 12.9116 29.9298 12.535C29.9261 12.1584 29.9965 11.7848 30.1371 11.4354C30.2778 11.086 30.4859 10.7678 30.7495 10.4988C31.2819 9.95567 32.0083 9.64625 32.7688 9.63864C33.1269 9.62783 33.4833 9.69089 33.8159 9.82389C34.1484 9.9569 34.45 10.157 34.7019 10.4117C34.9537 10.6664 35.1504 10.9703 35.2796 11.3043C35.4088 11.6384 35.4679 11.9955 35.453 12.3534C35.449 12.4814 35.4375 12.6091 35.4186 12.7357L35.3956 12.8963H31.1515C31.2269 13.2933 31.4418 13.6502 31.7574 13.9026C32.0729 14.155 32.4682 14.2863 32.8721 14.2728C33.2914 14.2642 33.6986 14.1311 34.0421 13.8905C34.2056 13.7854 34.3525 13.6565 34.478 13.5081L35.1662 14.3416ZM34.2486 11.9328C34.1965 11.5769 34.0162 11.2522 33.7416 11.0199C33.467 10.7876 33.117 10.6635 32.7574 10.671C32.3845 10.6609 32.0199 10.7815 31.7266 11.0119C31.4333 11.2424 31.2299 11.5681 31.1515 11.9328H34.2486Z" fill="#32353B"/>
<path d="M37.2885 10.843H36.2676V9.75329H36.8985C37.2541 9.75329 37.4147 9.58122 37.4147 9.1224V7.91797H38.447V9.75329H39.7088V10.843H38.447V13.4239C38.447 13.9975 38.7108 14.2842 39.25 14.2842C39.4027 14.284 39.5541 14.2568 39.6973 14.2039L39.8809 14.1122V15.2019L39.64 15.2936C39.4386 15.3507 39.2298 15.3777 39.0206 15.3739C37.9194 15.3739 37.2999 14.7431 37.2999 13.5386L37.2885 10.843Z" fill="#32353B"/>
<path d="M48.6445 13.7681C48.3989 14.0726 48.1134 14.3427 47.7957 14.571C47.2693 14.9807 46.6523 15.258 45.9965 15.3797C45.3407 15.5014 44.6653 15.4639 44.027 15.2704C43.3887 15.0769 42.8062 14.7331 42.3284 14.2678C41.8505 13.8024 41.4914 13.2292 41.281 12.5962C41.0707 11.9633 41.0153 11.2891 41.1196 10.6303C41.2239 9.97156 41.4848 9.34743 41.8803 8.81039C42.2758 8.27335 42.7945 7.83908 43.3927 7.54408C43.9909 7.24908 44.6512 7.10195 45.318 7.11506C46.1973 7.09846 47.0584 7.36672 47.7727 7.87978C48.0761 8.0985 48.3498 8.35554 48.5872 8.64449L47.7842 9.44744C47.614 9.21808 47.4088 9.01681 47.1763 8.85097C46.64 8.45048 45.9873 8.23692 45.318 8.24302C44.9263 8.24302 44.5385 8.32016 44.1767 8.47004C43.8148 8.61992 43.4861 8.8396 43.2091 9.11654C42.9322 9.39348 42.7125 9.72226 42.5626 10.0841C42.4128 10.4459 42.3356 10.8338 42.3356 11.2254C42.3356 11.6171 42.4128 12.0049 42.5626 12.3667C42.7125 12.7286 42.9322 13.0573 43.2091 13.3343C43.4861 13.6112 43.8148 13.8309 44.1767 13.9808C44.5385 14.1307 44.9263 14.2078 45.318 14.2078C45.9974 14.2103 46.6587 13.9886 47.1992 13.5769C47.446 13.4027 47.6629 13.1896 47.8416 12.946L48.6445 13.7681Z" fill="#32353B"/>
<path d="M52.2008 9.63856C52.768 9.63856 53.3224 9.80674 53.794 10.1218C54.2656 10.437 54.6332 10.8848 54.8502 11.4088C55.0673 11.9328 55.124 12.5094 55.0134 13.0657C54.9027 13.622 54.6296 14.1329 54.2286 14.534C53.8275 14.9351 53.3166 15.2082 52.7603 15.3188C52.204 15.4295 51.6274 15.3727 51.1034 15.1556C50.5794 14.9386 50.1315 14.571 49.8164 14.0994C49.5013 13.6279 49.3331 13.0734 49.3331 12.5062C49.3296 12.1287 49.4013 11.7541 49.5441 11.4046C49.687 11.0551 49.8981 10.7375 50.1651 10.4705C50.4321 10.2035 50.7497 9.99241 51.0992 9.84956C51.4487 9.70671 51.8232 9.63498 52.2008 9.63856ZM53.9214 12.5062C53.9214 12.0499 53.7402 11.6123 53.4175 11.2896C53.0948 10.9669 52.6572 10.7856 52.2008 10.7856C51.7445 10.7856 51.3068 10.9669 50.9842 11.2896C50.6615 11.6123 50.4802 12.0499 50.4802 12.5062C50.4802 12.9626 50.6615 13.4002 50.9842 13.7229C51.3068 14.0456 51.7445 14.2268 52.2008 14.2268C52.6572 14.2268 53.0948 14.0456 53.4175 13.7229C53.7402 13.4002 53.9214 12.9626 53.9214 12.5062Z" fill="#32353B"/>
<path d="M56.3301 9.75342H57.4772V12.9652C57.4623 13.1373 57.4844 13.3105 57.5417 13.4734C57.5991 13.6363 57.6905 13.7852 57.8099 13.91C57.9293 14.0348 58.0739 14.1327 58.2341 14.1973C58.3943 14.2618 58.5664 14.2915 58.7389 14.2844C58.9392 14.2888 59.1383 14.2519 59.3238 14.1761C59.5092 14.1003 59.6771 13.9872 59.817 13.8438C59.9568 13.7003 60.0657 13.5296 60.1368 13.3423C60.2078 13.155 60.2396 12.955 60.2301 12.7549V9.75342H61.3772V15.2594H60.2301V14.4564C60.1061 14.6283 59.9595 14.7826 59.7942 14.9152C59.4332 15.2143 58.9784 15.3768 58.5095 15.3741C57.2477 15.3741 56.3301 14.4679 56.3301 12.9652V9.75342Z" fill="#32353B"/>
<path d="M62.9824 9.7533H64.1295V10.4989C64.2579 10.3377 64.4027 10.1904 64.5616 10.0592C64.9125 9.77641 65.3497 9.62255 65.8004 9.62329H66.091V10.8277L65.9419 10.8048C65.8396 10.7857 65.7361 10.7742 65.6322 10.7704C65.4247 10.7806 65.2213 10.8319 65.0337 10.9212C64.8462 11.0106 64.6782 11.1362 64.5396 11.2909C64.4009 11.4456 64.2943 11.6262 64.2259 11.8224C64.1574 12.0185 64.1286 12.2263 64.141 12.4336V15.2592H62.9939L62.9824 9.7533Z" fill="#32353B"/>
<path d="M67.3417 13.5961C67.4484 13.7427 67.5775 13.8717 67.7241 13.9784C68.0222 14.2142 68.388 14.3482 68.7679 14.3608C69.4103 14.3608 69.7429 14.0281 69.7429 13.6725C69.7429 12.7549 66.8179 13.2252 66.8179 11.2637C66.8179 10.4034 67.5826 9.65778 68.8252 9.65778C69.3397 9.65441 69.846 9.78627 70.2935 10.0401C70.475 10.1387 70.6381 10.2681 70.7753 10.4225L70.0106 11.1681C69.9124 11.0799 69.8046 11.003 69.6894 10.9387C69.4203 10.7857 69.1156 10.7065 68.8061 10.7093C68.2211 10.7093 67.9458 10.996 67.9458 11.2828C67.9458 12.2005 70.8709 11.7416 70.8709 13.6917C70.8709 14.6093 70.0794 15.4123 68.7488 15.4123C68.1645 15.4197 67.5933 15.2387 67.1199 14.8961C66.91 14.7545 66.7241 14.5803 66.5693 14.3799L67.3417 13.5961Z" fill="#32353B"/>
<path d="M76.9775 14.3415C76.8168 14.5447 76.6229 14.7193 76.404 14.8577C75.8772 15.2057 75.2572 15.3857 74.626 15.3739C73.8654 15.3815 73.133 15.0867 72.5898 14.5542C72.0467 14.0218 71.7372 13.2954 71.7296 12.5349C71.722 11.7743 72.0169 11.0419 72.5493 10.4987C73.0817 9.95555 73.8081 9.64613 74.5686 9.63852C74.9276 9.6261 75.2853 9.68797 75.6192 9.82025C75.9532 9.95254 76.2562 10.1524 76.5093 10.4073C76.7623 10.6621 76.96 10.9666 77.09 11.3014C77.2199 11.6363 77.2792 11.9944 77.2643 12.3533C77.2615 12.4915 77.25 12.6294 77.2298 12.7662L77.2069 12.9268H72.9742C73.0497 13.3238 73.2646 13.6806 73.5801 13.9331C73.8956 14.1855 74.291 14.3168 74.6948 14.3033C75.1141 14.2947 75.5214 14.1616 75.8648 13.9209C76.0283 13.8159 76.1752 13.687 76.3007 13.5386L76.9775 14.3415ZM76.0598 11.9327C76.0077 11.5768 75.8274 11.2521 75.5528 11.0198C75.2783 10.7874 74.9283 10.6634 74.5686 10.6709C74.1958 10.6608 73.8311 10.7814 73.5379 11.0118C73.2446 11.2423 73.0411 11.568 72.9627 11.9327H76.0598Z" fill="#32353B"/>
</g>
<defs>
<clipPath id="clip0">
<rect width="245.285" height="180" fill="white"/>
</clipPath>
</defs>
</svg>
