<svg width="24" height="24" viewBox="0 0 24 24" fill="none" xmlns="http://www.w3.org/2000/svg">
    <path d="M20.4048 20.1998H3.6048C3.3248 20.1998 3.0648 20.0398 2.9048 19.7998C2.7648 19.5598 2.7648 19.2598 2.9048 18.9998L11.3048 4.1998C11.4448 3.9398 11.7048 3.7998 12.0048 3.7998C12.3048 3.7998 12.5648 3.9598 12.7048 4.1998L21.1048 18.9998C21.2448 19.2398 21.2448 19.5598 21.1048 19.7998C20.9448 20.0398 20.6848 20.1998 20.4048 20.1998ZM4.98481 18.5998H19.0448L12.0248 6.2198L4.98481 18.5998ZM12.8048 13.8198V10.0998C12.8048 9.6598 12.4448 9.2998 12.0048 9.2998C11.5648 9.2998 11.2048 9.6598 11.2048 10.0998V13.8198C11.2048 14.2598 11.5648 14.6198 12.0048 14.6198C12.4448 14.6198 12.8048 14.2598 12.8048 13.8198ZM12.7048 17.1398C12.8848 16.9598 13.0048 16.6998 13.0048 16.4398C13.0048 16.1798 12.9048 15.9198 12.7048 15.7398C12.5248 15.5598 12.2648 15.4398 12.0048 15.4398C11.7448 15.4398 11.4848 15.5398 11.3048 15.7398C11.1248 15.9198 11.0048 16.1798 11.0048 16.4398C11.0048 16.6998 11.1048 16.9598 11.3048 17.1398C11.4848 17.3198 11.7448 17.4398 12.0048 17.4398C12.2648 17.4398 12.5248 17.3198 12.7048 17.1398Z" fill="#D94E41"/>
</svg>
