<svg width="20" height="20" viewBox="0 0 20 20" fill="none" xmlns="http://www.w3.org/2000/svg">
<path d="M16.1376 10.4666L11.9876 14.6333C11.8542 14.7666 11.6876 14.8333 11.5209 14.8333C11.3542 14.8333 11.1876 14.7666 11.0542 14.6333C10.7876 14.3666 10.7876 13.95 11.0542 13.6833L14.0709 10.65H4.33757C3.9709 10.65 3.6709 10.35 3.6709 9.9833C3.6709 9.61663 3.9709 9.31663 4.33757 9.31663H14.0709L11.0542 6.2833C10.7876 6.01664 10.7876 5.59997 11.0542 5.3333C11.3209 5.06663 11.7376 5.06663 12.0042 5.3333L16.1542 9.49997C16.4042 9.7833 16.4042 10.2166 16.1376 10.4666Z" fill="#7A808C"/>
</svg>
