<svg width="64" height="64" viewBox="0 0 64 64" fill="none" xmlns="http://www.w3.org/2000/svg">
<path d="M49.8406 53.9098H11.2371C10.9384 53.9101 10.6425 53.8516 10.3664 53.7376C10.0904 53.6236 9.83942 53.4564 9.62797 53.2454C9.41652 53.0344 9.2487 52.7839 9.13408 52.508C9.01946 52.2322 8.9603 51.9365 8.95996 51.6378V8.67203C8.9603 8.37333 9.01946 8.07762 9.13408 7.80178C9.2487 7.52595 9.41652 7.27539 9.62797 7.06442C9.83942 6.85344 10.0904 6.68618 10.3664 6.57219C10.6425 6.45819 10.9384 6.39969 11.2371 6.40003H49.8406C50.443 6.4007 51.0205 6.64029 51.4464 7.06623C51.8723 7.49216 52.1119 8.06966 52.1126 8.67203V51.6378C52.1119 52.2402 51.8723 52.8176 51.4464 53.2436C51.0205 53.6695 50.443 53.9091 49.8406 53.9098ZM11.2371 7.27427C10.8664 7.2746 10.5109 7.42194 10.2486 7.68396C9.98637 7.94598 9.83872 8.3013 9.83804 8.67203V51.6378C9.83872 52.0085 9.98637 52.3638 10.2486 52.6259C10.5109 52.8879 10.8664 53.0352 11.2371 53.0355H49.8406C50.2112 53.0352 50.5665 52.8878 50.8286 52.6258C51.0907 52.3637 51.238 52.0084 51.2384 51.6378V8.67203C51.238 8.30142 51.0907 7.94609 50.8286 7.68403C50.5665 7.42198 50.2112 7.27461 49.8406 7.27427H11.2371Z" fill="black"/>
<path d="M51.84 57.6H12.928C11.8769 57.6 10.8688 57.183 10.1249 56.4405C9.38095 55.698 8.962 54.6907 8.95996 53.6397V14.0506C8.95996 13.9348 9.00595 13.8238 9.0878 13.7419C9.16966 13.6601 9.28068 13.6141 9.39644 13.6141C9.5122 13.6141 9.62322 13.6601 9.70508 13.7419C9.78694 13.8238 9.83292 13.9348 9.83292 14.0506V53.6397C9.83342 54.0456 9.91389 54.4474 10.0697 54.8221C10.2255 55.1969 10.4537 55.5373 10.7411 55.8239C11.0285 56.1105 11.3696 56.3377 11.7448 56.4924C12.12 56.6471 12.5221 56.7264 12.928 56.7258H51.84C52.6581 56.7247 53.4425 56.3993 54.021 55.8207C54.5996 55.2422 54.925 54.4578 54.926 53.6397V14.0506C54.925 13.2324 54.5996 12.448 54.021 11.8695C53.4425 11.291 52.6581 10.9655 51.84 10.9645C51.7806 10.9677 51.7211 10.9588 51.6653 10.9383C51.6095 10.9177 51.5584 10.8861 51.5152 10.8452C51.4721 10.8043 51.4377 10.755 51.4142 10.7003C51.3907 10.6457 51.3785 10.5868 51.3785 10.5274C51.3785 10.4679 51.3907 10.409 51.4142 10.3544C51.4377 10.2997 51.4721 10.2505 51.5152 10.2096C51.5584 10.1687 51.6095 10.137 51.6653 10.1165C51.7211 10.0959 51.7806 10.087 51.84 10.0902C52.891 10.0902 53.8991 10.5072 54.6431 11.2497C55.387 11.9922 55.8059 12.9995 55.808 14.0506V53.6397C55.8059 54.6907 55.387 55.698 54.6431 56.4405C53.8991 57.183 52.891 57.6 51.84 57.6Z" fill="black"/>
<path d="M40.269 18.688H21.1446C21.0327 18.6819 20.9275 18.6332 20.8504 18.5519C20.7734 18.4706 20.7305 18.3628 20.7305 18.2508C20.7305 18.1388 20.7734 18.0311 20.8504 17.9498C20.9275 17.8685 21.0327 17.8198 21.1446 17.8137H40.269C40.3809 17.8198 40.4862 17.8685 40.5632 17.9498C40.6402 18.0311 40.6831 18.1388 40.6831 18.2508C40.6831 18.3628 40.6402 18.4706 40.5632 18.5519C40.4862 18.6332 40.3809 18.6819 40.269 18.688Z" fill="black"/>
<path d="M40.269 23.04H21.1446C21.0327 23.034 20.9275 22.9853 20.8504 22.904C20.7734 22.8226 20.7305 22.7149 20.7305 22.6029C20.7305 22.4909 20.7734 22.3831 20.8504 22.3018C20.9275 22.2205 21.0327 22.1718 21.1446 22.1658H40.269C40.3809 22.1718 40.4862 22.2205 40.5632 22.3018C40.6402 22.3831 40.6831 22.4909 40.6831 22.6029C40.6831 22.7149 40.6402 22.8226 40.5632 22.904C40.4862 22.9853 40.3809 23.034 40.269 23.04Z" fill="black"/>
<path d="M40.269 27.7402H21.1446C21.0327 27.7342 20.9275 27.6855 20.8504 27.6041C20.7734 27.5228 20.7305 27.4151 20.7305 27.3031C20.7305 27.1911 20.7734 27.0833 20.8504 27.002C20.9275 26.9207 21.0327 26.872 21.1446 26.866H40.269C40.3809 26.872 40.4862 26.9207 40.5632 27.002C40.6402 27.0833 40.6831 27.1911 40.6831 27.3031C40.6831 27.4151 40.6402 27.5228 40.5632 27.6041C40.4862 27.6855 40.3809 27.7342 40.269 27.7402Z" fill="black"/>
</svg>
