<svg width="64" height="64" viewBox="0 0 64 64" fill="none" xmlns="http://www.w3.org/2000/svg">
<path d="M37.3526 28.8103H26.8963C26.7982 28.8103 26.7041 28.7713 26.6347 28.702C26.5653 28.6326 26.5264 28.5385 26.5264 28.4404V12.5069C26.5264 12.4584 26.5359 12.4104 26.5545 12.3656C26.5732 12.3208 26.6004 12.2801 26.6348 12.2458C26.6692 12.2116 26.7099 12.1845 26.7548 12.166C26.7997 12.1475 26.8478 12.1381 26.8963 12.1383H37.3526C37.4504 12.1383 37.5441 12.1771 37.6133 12.2463C37.6824 12.3154 37.7212 12.4092 37.7212 12.5069V28.4404C37.7214 28.4889 37.712 28.537 37.6936 28.5819C37.6751 28.6267 37.648 28.6675 37.6137 28.7019C37.5795 28.7362 37.5388 28.7635 37.494 28.7821C37.4492 28.8007 37.4011 28.8103 37.3526 28.8103ZM27.2636 28.0717H36.9814V12.8769H27.2636V28.0717Z" fill="black"/>
<path d="M32.1282 59.1822H17.6028C14.9148 59.1822 12.7311 58.194 11.7583 56.539C11.1452 55.4983 10.7138 53.723 12.1346 51.163C12.1375 51.1567 12.141 51.1507 12.1449 51.1451L26.5845 28.2433C26.6089 28.1993 26.6421 28.1607 26.6819 28.1299C26.7218 28.0991 26.7675 28.0768 26.8163 28.0643C26.865 28.0518 26.9158 28.0494 26.9656 28.0572C27.0153 28.0651 27.0629 28.083 27.1055 28.1098C27.1481 28.1367 27.1847 28.172 27.2132 28.2135C27.2416 28.255 27.2613 28.3019 27.271 28.3513C27.2807 28.4007 27.2803 28.4516 27.2696 28.5008C27.259 28.55 27.2384 28.5965 27.2092 28.6375L12.7746 51.5329C11.789 53.3108 11.6572 54.9121 12.3906 56.1639C13.2303 57.5924 15.1772 58.4436 17.5989 58.4436H32.1282C32.1785 58.4407 32.2289 58.448 32.2763 58.4652C32.3237 58.4824 32.3671 58.5092 32.4037 58.5438C32.4404 58.5783 32.4696 58.62 32.4896 58.6663C32.5096 58.7126 32.5199 58.7625 32.5199 58.8129C32.5199 58.8633 32.5096 58.9132 32.4896 58.9595C32.4696 59.0058 32.4404 59.0475 32.4037 59.0821C32.3671 59.1166 32.3237 59.1434 32.2763 59.1606C32.2289 59.1778 32.1785 59.1851 32.1282 59.1822Z" fill="black"/>
<path d="M46.3976 59.1822H31.8721C31.8218 59.1851 31.7714 59.1778 31.724 59.1606C31.6767 59.1434 31.6333 59.1166 31.5966 59.0821C31.5599 59.0475 31.5307 59.0058 31.5107 58.9595C31.4908 58.9132 31.4805 58.8633 31.4805 58.8129C31.4805 58.7625 31.4908 58.7126 31.5107 58.6663C31.5307 58.62 31.5599 58.5783 31.5966 58.5438C31.6333 58.5092 31.6767 58.4824 31.724 58.4652C31.7714 58.448 31.8218 58.4407 31.8721 58.4436H46.3976C48.8193 58.4436 50.7662 57.5924 51.6059 56.1639C52.3432 54.9121 52.2113 53.3108 51.2219 51.5329L36.7912 28.6375C36.7619 28.5965 36.7414 28.55 36.7307 28.5008C36.7201 28.4516 36.7196 28.4007 36.7293 28.3513C36.739 28.3019 36.7587 28.255 36.7872 28.2135C36.8156 28.172 36.8523 28.1367 36.8949 28.1098C36.9374 28.083 36.985 28.0651 37.0348 28.0572C37.0845 28.0494 37.1353 28.0518 37.1841 28.0643C37.2329 28.0768 37.2786 28.0991 37.3184 28.1299C37.3583 28.1607 37.3914 28.1993 37.4158 28.2433L51.8555 51.1476C51.8594 51.1533 51.8628 51.1593 51.8657 51.1655C53.2865 53.7255 52.8552 55.4983 52.242 56.5415C51.268 58.194 49.0843 59.1822 46.3976 59.1822Z" fill="black"/>
<path d="M26.8973 12.8768H24.0518C24.0015 12.8797 23.9511 12.8724 23.9037 12.8552C23.8563 12.8379 23.813 12.8112 23.7763 12.7766C23.7396 12.7421 23.7104 12.7003 23.6904 12.6541C23.6705 12.6078 23.6602 12.5579 23.6602 12.5075C23.6602 12.4571 23.6705 12.4072 23.6904 12.3609C23.7104 12.3146 23.7396 12.2729 23.7763 12.2383C23.813 12.2038 23.8563 12.177 23.9037 12.1598C23.9511 12.1426 24.0015 12.1352 24.0518 12.1382H26.8973C26.9914 12.1438 27.08 12.1851 27.1447 12.2537C27.2094 12.3224 27.2454 12.4131 27.2454 12.5075C27.2454 12.6018 27.2094 12.6926 27.1447 12.7613C27.08 12.8299 26.9914 12.8712 26.8973 12.8768Z" fill="black"/>
<path d="M39.9843 12.8768H37.3526C37.3023 12.8797 37.2519 12.8724 37.2045 12.8552C37.1571 12.8379 37.1138 12.8112 37.0771 12.7766C37.0404 12.7421 37.0112 12.7003 36.9912 12.6541C36.9712 12.6078 36.9609 12.5579 36.9609 12.5075C36.9609 12.4571 36.9712 12.4072 36.9912 12.3609C37.0112 12.3146 37.0404 12.2729 37.0771 12.2383C37.1138 12.2038 37.1571 12.177 37.2045 12.1598C37.2519 12.1426 37.3023 12.1352 37.3526 12.1382H39.9843C40.0785 12.1438 40.167 12.1851 40.2317 12.2537C40.2964 12.3224 40.3325 12.4131 40.3325 12.5075C40.3325 12.6018 40.2964 12.6926 40.2317 12.7613C40.167 12.8299 40.0785 12.8712 39.9843 12.8768Z" fill="black"/>
<path d="M41.412 35.6492H22.5538C22.5035 35.6522 22.4531 35.6448 22.4057 35.6276C22.3583 35.6104 22.3149 35.5837 22.2783 35.5491C22.2416 35.5145 22.2124 35.4728 22.1924 35.4265C22.1724 35.3802 22.1621 35.3304 22.1621 35.2799C22.1621 35.2295 22.1724 35.1797 22.1924 35.1334C22.2124 35.0871 22.2416 35.0454 22.2783 35.0108C22.3149 34.9762 22.3583 34.9495 22.4057 34.9323C22.4531 34.9151 22.5035 34.9077 22.5538 34.9107H41.412C41.4623 34.9077 41.5127 34.9151 41.5601 34.9323C41.6075 34.9495 41.6509 34.9762 41.6875 35.0108C41.7242 35.0454 41.7534 35.0871 41.7734 35.1334C41.7934 35.1797 41.8037 35.2295 41.8037 35.2799C41.8037 35.3304 41.7934 35.3802 41.7734 35.4265C41.7534 35.4728 41.7242 35.5145 41.6875 35.5491C41.6509 35.5837 41.6075 35.6104 41.5601 35.6276C41.5127 35.6448 41.4623 35.6522 41.412 35.6492Z" fill="black"/>
<path d="M35.3077 10.9132C34.928 10.9132 34.5567 10.8006 34.241 10.5897C33.9253 10.3787 33.6792 10.0788 33.5338 9.728C33.3885 9.37716 33.3505 8.99111 33.4246 8.61867C33.4987 8.24623 33.6815 7.90412 33.95 7.6356C34.2186 7.36708 34.5607 7.18422 34.9331 7.11014C35.3056 7.03605 35.6916 7.07407 36.0424 7.21939C36.3933 7.36471 36.6931 7.61081 36.9041 7.92655C37.1151 8.24229 37.2277 8.6135 37.2277 8.99324C37.2277 9.50246 37.0254 9.99082 36.6653 10.3509C36.3053 10.711 35.8169 10.9132 35.3077 10.9132ZM35.3077 7.8054C35.0733 7.8054 34.8441 7.87492 34.6492 8.00516C34.4543 8.1354 34.3023 8.32051 34.2126 8.5371C34.1229 8.75368 34.0995 8.992 34.1452 9.22192C34.1909 9.45184 34.3038 9.66304 34.4696 9.8288C34.6353 9.99457 34.8465 10.1075 35.0765 10.1532C35.3064 10.1989 35.5447 10.1755 35.7613 10.0857C35.9779 9.99603 36.163 9.84411 36.2932 9.64919C36.4235 9.45427 36.493 9.22511 36.493 8.99068C36.4923 8.67677 36.3671 8.37595 36.1449 8.15422C35.9227 7.93249 35.6216 7.80796 35.3077 7.80796V7.8054Z" fill="black"/>
<path d="M29.9152 8.3546C29.3718 8.35485 28.8405 8.19394 28.3886 7.8922C27.9367 7.59047 27.5844 7.16148 27.3763 6.6595C27.1683 6.15752 27.1138 5.60511 27.2197 5.07215C27.3257 4.53918 27.5873 4.04962 27.9715 3.66538C28.3558 3.28115 28.8453 3.01951 29.3783 2.91356C29.9113 2.80761 30.4637 2.86212 30.9657 3.07018C31.4676 3.27824 31.8966 3.63052 32.1984 4.08243C32.5001 4.53435 32.661 5.06561 32.6608 5.609C32.6597 6.33687 32.3701 7.03463 31.8555 7.54931C31.3408 8.06399 30.643 8.35358 29.9152 8.3546ZM29.9152 3.60068C29.5179 3.60043 29.1295 3.718 28.799 3.93852C28.4686 4.15904 28.211 4.47261 28.0588 4.83956C27.9066 5.20651 27.8666 5.61036 27.944 6.00002C28.0213 6.38968 28.2125 6.74765 28.4933 7.02864C28.7741 7.30964 29.132 7.50104 29.5216 7.57864C29.9112 7.65623 30.3151 7.61654 30.6821 7.46457C31.0492 7.3126 31.3629 7.05519 31.5836 6.7249C31.8044 6.3946 31.9222 6.00626 31.9222 5.609C31.9215 5.07679 31.7099 4.56655 31.3337 4.1901C30.9575 3.81365 30.4474 3.6017 29.9152 3.60068Z" fill="black"/>
</svg>
