<svg width="32" height="32" viewBox="0 0 32 32" fill="none" xmlns="http://www.w3.org/2000/svg">
<path d="M22.5929 20.88C23.0729 21.36 23.0729 22.1067 22.5929 22.5867C22.3529 22.8267 22.0596 22.9333 21.7396 22.9333C21.4196 22.9333 21.1263 22.8267 20.8863 22.5867L16.0062 17.7067L11.1262 22.5867C10.8862 22.8267 10.5929 22.9333 10.2729 22.9333C9.9529 22.9333 9.65958 22.8267 9.41958 22.5867C8.93958 22.1067 8.93958 21.36 9.41958 20.88L14.2996 16L9.41958 11.12C8.93958 10.64 8.93958 9.89334 9.41958 9.41334C9.89958 8.93334 10.6462 8.93334 11.1262 9.41334L16.0062 14.2933L20.8863 9.41334C21.3663 8.93334 22.1129 8.93334 22.5929 9.41334C23.0729 9.89334 23.0729 10.64 22.5929 11.12L17.7129 16L22.5929 20.88Z" fill="#32353B" fill-opacity="0.3"/>
</svg>
