<svg width="24" height="24" viewBox="0 0 24 24" fill="none" xmlns="http://www.w3.org/2000/svg">
    <path d="M16.945 15.66C17.305 16.02 17.305 16.58 16.945 16.94C16.765 17.12 16.545 17.2 16.305 17.2C16.065 17.2 15.8451 17.12 15.6651 16.94L12.005 13.28L8.34503 16.94C8.16503 17.12 7.94504 17.2 7.70504 17.2C7.46504 17.2 7.24505 17.12 7.06505 16.94C6.70505 16.58 6.70505 16.02 7.06505 15.66L10.725 12L7.06505 8.34004C6.70505 7.98004 6.70505 7.42004 7.06505 7.06004C7.42505 6.70004 7.98503 6.70004 8.34503 7.06004L12.005 10.72L15.6651 7.06004C16.0251 6.70004 16.585 6.70004 16.945 7.06004C17.305 7.42004 17.305 7.98004 16.945 8.34004L13.285 12L16.945 15.66Z" fill="#7A808C"/>
</svg>
