<svg width="64" height="64" viewBox="0 0 64 64" fill="none" xmlns="http://www.w3.org/2000/svg">
<path d="M31.9997 56.32C18.5891 56.32 7.67969 45.4106 7.67969 32.0001C7.67969 18.5895 18.5891 7.68005 31.9997 7.68005C45.4102 7.68005 56.3197 18.5895 56.3197 32.0001C56.3197 45.4106 45.4102 56.32 31.9997 56.32ZM31.9997 8.50437C19.0435 8.50437 8.50401 19.0452 8.50401 32.0001C8.50401 44.9549 19.0435 55.4957 31.9997 55.4957C44.9558 55.4957 55.4954 44.9549 55.4954 32.0001C55.4954 19.0452 44.9558 8.50437 31.9997 8.50437Z" fill="black"/>
<path d="M32.0001 56.32C31.8907 56.32 31.7859 56.2766 31.7086 56.1993C31.6313 56.122 31.5879 56.0172 31.5879 55.9079V8.09221C31.5879 7.9829 31.6313 7.87807 31.7086 7.80077C31.7859 7.72348 31.8907 7.68005 32.0001 7.68005C32.1094 7.68005 32.2142 7.72348 32.2915 7.80077C32.3688 7.87807 32.4122 7.9829 32.4122 8.09221V55.9079C32.4122 56.0172 32.3688 56.122 32.2915 56.1993C32.2142 56.2766 32.1094 56.32 32.0001 56.32Z" fill="black"/>
<path d="M53.8588 22.8492H10.1417C10.0323 22.8492 9.92751 22.8058 9.85021 22.7285C9.77292 22.6512 9.72949 22.5464 9.72949 22.4371C9.72949 22.3277 9.77292 22.2229 9.85021 22.1456C9.92751 22.0683 10.0323 22.0249 10.1417 22.0249H53.8588C53.9681 22.0249 54.0729 22.0683 54.1502 22.1456C54.2275 22.2229 54.2709 22.3277 54.2709 22.4371C54.2709 22.5464 54.2275 22.6512 54.1502 22.7285C54.0729 22.8058 53.9681 22.8492 53.8588 22.8492Z" fill="black"/>
<path d="M55.9083 33.4374H8.09259C7.98709 33.4315 7.88783 33.3855 7.81522 33.3087C7.74261 33.2319 7.70215 33.1303 7.70215 33.0246C7.70215 32.9189 7.74261 32.8173 7.81522 32.7405C7.88783 32.6637 7.98709 32.6177 8.09259 32.6118H55.9083C56.0138 32.6177 56.113 32.6637 56.1856 32.7405C56.2583 32.8173 56.2987 32.9189 56.2987 33.0246C56.2987 33.1303 56.2583 33.2319 56.1856 33.3087C56.113 33.3855 56.0138 33.4315 55.9083 33.4374Z" fill="black"/>
<path d="M52.8348 43.6826H10.8252C10.7159 43.6826 10.6111 43.6392 10.5338 43.5619C10.4565 43.4846 10.4131 43.3797 10.4131 43.2704C10.4131 43.1611 10.4565 43.0563 10.5338 42.979C10.6111 42.9017 10.7159 42.8583 10.8252 42.8583H52.8348C52.9442 42.8583 53.049 42.9017 53.1263 42.979C53.2036 43.0563 53.247 43.1611 53.247 43.2704C53.247 43.3797 53.2036 43.4846 53.1263 43.5619C53.049 43.6392 52.9442 43.6826 52.8348 43.6826Z" fill="black"/>
<path d="M32.1168 56.0871C28.1052 56.0871 24.3484 53.5412 21.5388 48.9191C18.7689 44.3623 17.2432 38.3117 17.2432 31.8823C17.2432 25.4529 18.7689 19.4023 21.5388 14.8455C24.3484 10.2234 28.1052 7.67749 32.1168 7.67749C36.1283 7.67749 39.8864 10.2221 42.6947 14.8455C45.4646 19.4023 46.9903 25.4529 46.9903 31.8823C46.9903 38.3117 45.4646 44.3623 42.6947 48.9191C39.8864 53.5412 36.1296 56.0871 32.1168 56.0871ZM32.1168 8.50437C24.3702 8.50437 18.0675 18.9927 18.0675 31.8836C18.0675 44.7745 24.3702 55.2628 32.1168 55.2628C39.8633 55.2628 46.166 44.7745 46.166 31.8836C46.166 18.9927 39.8633 8.50437 32.1168 8.50437Z" fill="black"/>
</svg>
