<svg width="64" height="64" viewBox="0 0 64 64" fill="none" xmlns="http://www.w3.org/2000/svg">
<path d="M1.07869 32.4032C0.962248 32.4032 0.850576 32.357 0.76824 32.2746C0.685904 32.1923 0.639648 32.0806 0.639648 31.9642C0.639648 25.673 4.79581 20.1331 10.9808 18.176C13.9696 17.2301 17.2387 17.4554 20.1865 18.816C22.9757 20.096 27.3443 22.7213 32.3171 27.9424C32.3976 28.0273 32.441 28.1406 32.4379 28.2575C32.4348 28.3744 32.3853 28.4853 32.3005 28.5658C32.2156 28.6462 32.1022 28.6897 31.9853 28.6866C31.8684 28.6834 31.7576 28.634 31.6771 28.5491C26.799 23.4291 22.5341 20.8627 19.8141 19.6147C17.0659 18.3514 14.0208 18.1402 11.2381 19.0195C5.41917 20.8589 1.51005 26.0595 1.51005 31.9693C1.50906 32.0836 1.46337 32.193 1.38276 32.2741C1.30215 32.3552 1.19302 32.4015 1.07869 32.4032Z" fill="black"/>
<path d="M14.7261 46.3987C13.4555 46.4004 12.1923 46.2066 10.9808 45.824C4.79581 43.8682 0.639648 38.327 0.639648 32.0358C0.639648 31.9194 0.685904 31.8077 0.76824 31.7254C0.850576 31.6431 0.962248 31.5968 1.07869 31.5968C1.19513 31.5968 1.3068 31.6431 1.38914 31.7254C1.47147 31.8077 1.51773 31.9194 1.51773 32.0358C1.51773 37.9418 5.42685 43.1462 11.2457 44.9856C14.0259 45.865 17.0697 45.6538 19.8217 44.3917C22.5417 43.1424 26.8067 40.5786 31.6848 35.4573C31.7245 35.4153 31.7722 35.3815 31.825 35.3579C31.8778 35.3343 31.9347 35.3213 31.9926 35.3197C32.0504 35.3181 32.108 35.3279 32.162 35.3485C32.216 35.3692 32.2655 35.4002 32.3075 35.44C32.3495 35.4798 32.3833 35.5274 32.4069 35.5802C32.4305 35.633 32.4435 35.69 32.4451 35.7478C32.4467 35.8056 32.4369 35.8632 32.4163 35.9172C32.3956 35.9713 32.3645 36.0207 32.3248 36.0627C27.352 41.2838 22.9808 43.9078 20.1942 45.1891C18.48 45.9817 16.6146 46.3943 14.7261 46.3987Z" fill="black"/>
<path d="M62.9211 32.4032C62.8634 32.4034 62.8062 32.3921 62.7529 32.3701C62.6996 32.3481 62.6511 32.3158 62.6103 32.275C62.5695 32.2342 62.5372 32.1857 62.5152 32.1324C62.4931 32.079 62.4819 32.0219 62.4821 31.9642C62.4821 26.0582 58.573 20.8538 52.7541 19.0144C49.9739 18.135 46.9288 18.3462 44.1781 19.6096C41.4606 20.864 37.1957 23.424 32.3176 28.544C32.2777 28.586 32.23 28.6198 32.1771 28.6434C32.1242 28.667 32.0672 28.6799 32.0093 28.6814C31.9515 28.683 31.8938 28.6731 31.8398 28.6524C31.7857 28.6317 31.7362 28.6005 31.6942 28.5606C31.6522 28.5208 31.6184 28.4731 31.5949 28.4202C31.5713 28.3673 31.5583 28.3103 31.5568 28.2524C31.5553 28.1945 31.5651 28.1369 31.5858 28.0828C31.6066 28.0288 31.6377 27.9793 31.6776 27.9373C36.6504 22.7162 41.0216 20.0922 43.8081 18.8109C46.7521 17.4579 50.0251 17.2326 53.0139 18.1709C59.204 20.1331 63.3602 25.673 63.3602 31.9642C63.3602 32.0806 63.3139 32.1923 63.2316 32.2746C63.1492 32.357 63.0376 32.4032 62.9211 32.4032Z" fill="black"/>
<path d="M49.2804 46.3987C47.3922 46.3933 45.5276 45.9789 43.8148 45.1839C41.0244 43.9039 36.6558 41.2787 31.683 36.0575C31.6027 35.9727 31.5594 35.8594 31.5627 35.7426C31.5659 35.6258 31.6154 35.5151 31.7003 35.4348C31.7851 35.3545 31.8984 35.3112 32.0152 35.3145C32.132 35.3177 32.2427 35.3672 32.323 35.4521C37.2011 40.5721 41.466 43.1321 44.186 44.3865C46.9342 45.6486 49.9793 45.8598 52.762 44.9804C58.5809 43.1411 62.49 37.9404 62.49 32.0307C62.49 31.9142 62.5363 31.8025 62.6186 31.7202C62.701 31.6379 62.8126 31.5916 62.9291 31.5916C63.0455 31.5916 63.1572 31.6379 63.2395 31.7202C63.3219 31.8025 63.3681 31.9142 63.3681 32.0307C63.3681 38.3219 59.2119 43.863 53.027 45.8175C51.8154 46.2024 50.5517 46.3984 49.2804 46.3987Z" fill="black"/>
<path d="M15.5761 40.6579C15.4379 40.6579 15.3009 40.6579 15.1665 40.6413C12.8652 40.6387 10.6592 39.7221 9.03371 38.093C7.40824 36.464 6.49648 34.2559 6.49903 31.9546C6.50157 29.6533 7.41821 27.4472 9.04729 25.8217C10.6764 24.1963 12.8844 23.2845 15.1857 23.2871C21.5333 23.2871 28.0101 31.4586 28.2827 31.8067C28.3465 31.8877 28.3797 31.9886 28.3764 32.0916C28.3731 32.1946 28.3336 32.2932 28.2648 32.3699C27.9538 32.7181 20.787 40.6579 15.5761 40.6579ZM15.1921 24.1651C13.1237 24.1651 11.14 24.9868 9.6774 26.4494C8.21479 27.912 7.39311 29.8957 7.39311 31.9642C7.39311 34.0326 8.21479 36.0163 9.6774 37.4789C11.14 38.9415 13.1237 39.7632 15.1921 39.7632H15.2305C19.5237 40.1472 26.0056 33.5066 27.3624 32.0589C26.1425 30.6074 20.4645 24.1651 15.1857 24.1651H15.1921Z" fill="black"/>
<path d="M48.4235 40.6579C43.2127 40.6579 36.0459 32.7219 35.7349 32.3699C35.6661 32.2932 35.6265 32.1946 35.6233 32.0916C35.62 31.9886 35.6532 31.8877 35.717 31.8067C35.9896 31.4586 42.4664 23.2871 48.8139 23.2871C51.1152 23.2845 53.3233 24.1963 54.9524 25.8217C56.5815 27.4472 57.4981 29.6533 57.5007 31.9546C57.5032 34.2559 56.5914 36.464 54.966 38.093C53.3405 39.7221 51.1344 40.6387 48.8331 40.6413C48.6987 40.6528 48.5618 40.6579 48.4235 40.6579ZM36.6475 32.0602C38.0043 33.5078 44.4773 40.1446 48.7794 39.7645H48.8178C50.8862 39.7645 52.8699 38.9428 54.3325 37.4802C55.7951 36.0176 56.6168 34.0339 56.6168 31.9654C56.6168 29.897 55.7951 27.9133 54.3325 26.4507C52.8699 24.9881 50.8862 24.1664 48.8178 24.1664C43.5352 24.1651 37.8571 30.6074 36.6437 32.0602H36.6475Z" fill="black"/>
</svg>
