<svg width="33" height="32" viewBox="0 0 33 32" fill="none" xmlns="http://www.w3.org/2000/svg">
<path d="M13.3781 16C13.3781 14.1591 14.8701 12.6664 16.7109 12.6664C18.5518 12.6664 20.0445 14.1591 20.0445 16C20.0445 17.8409 18.5518 19.3336 16.7109 19.3336C14.8701 19.3336 13.3781 17.8409 13.3781 16ZM11.5761 16C11.5761 18.836 13.8749 21.1349 16.7109 21.1349C19.5469 21.1349 21.8458 18.836 21.8458 16C21.8458 13.164 19.5469 10.8651 16.7109 10.8651C13.8749 10.8651 11.5761 13.164 11.5761 16ZM20.8491 10.6615C20.849 10.8989 20.9193 11.1309 21.0511 11.3283C21.1828 11.5257 21.3702 11.6796 21.5894 11.7705C21.8087 11.8614 22.0499 11.8852 22.2827 11.839C22.5155 11.7928 22.7294 11.6786 22.8973 11.5109C23.0652 11.3431 23.1795 11.1293 23.2259 10.8966C23.2723 10.6638 23.2487 10.4225 23.1579 10.2032C23.0672 9.98392 22.9135 9.79644 22.7162 9.6645C22.5189 9.53257 22.2869 9.4621 22.0496 9.462H22.0491C21.731 9.46215 21.4259 9.58856 21.2009 9.81347C20.9759 10.0384 20.8494 10.3434 20.8491 10.6615ZM12.6709 24.1398C11.696 24.0954 11.1661 23.933 10.8139 23.7958C10.347 23.614 10.0139 23.3975 9.66366 23.0478C9.31342 22.698 9.09662 22.3652 8.91566 21.8983C8.77838 21.5463 8.61598 21.0162 8.57166 20.0413C8.52318 18.9872 8.5135 18.6706 8.5135 16.0001C8.5135 13.3296 8.52398 13.0138 8.57166 11.9589C8.61606 10.9839 8.77966 10.4549 8.91566 10.1018C9.09742 9.63496 9.3139 9.30184 9.66366 8.9516C10.0134 8.60136 10.3462 8.38456 10.8139 8.2036C11.1659 8.06632 11.696 7.90392 12.6709 7.8596C13.725 7.81112 14.0417 7.80144 16.7109 7.80144C19.3802 7.80144 19.6972 7.81192 20.7521 7.8596C21.7271 7.904 22.2561 8.0676 22.6092 8.2036C23.0761 8.38456 23.4092 8.60184 23.7594 8.9516C24.1097 9.30136 24.3257 9.63496 24.5074 10.1018C24.6447 10.4538 24.8071 10.9839 24.8514 11.9589C24.8999 13.0138 24.9096 13.3296 24.9096 16.0001C24.9096 18.6706 24.8999 18.9863 24.8514 20.0413C24.807 21.0162 24.6438 21.5462 24.5074 21.8983C24.3257 22.3652 24.1092 22.6983 23.7594 23.0478C23.4097 23.3972 23.0761 23.614 22.6092 23.7958C22.2572 23.933 21.7271 24.0954 20.7521 24.1398C19.6981 24.1882 19.3814 24.1979 16.7109 24.1979C14.0405 24.1979 13.7247 24.1882 12.6709 24.1398ZM12.5881 6.06056C11.5236 6.10904 10.7961 6.27784 10.1609 6.52504C9.50294 6.78032 8.94598 7.1228 8.38942 7.67848C7.83286 8.23416 7.49126 8.792 7.23598 9.44992C6.98878 10.0856 6.81998 10.8126 6.7715 11.8772C6.72222 12.9434 6.71094 13.2843 6.71094 16C6.71094 18.7157 6.72222 19.0566 6.7715 20.1228C6.81998 21.1874 6.98878 21.9144 7.23598 22.5501C7.49126 23.2076 7.83294 23.7661 8.38942 24.3215C8.9459 24.877 9.50294 25.219 10.1609 25.475C10.7973 25.7222 11.5236 25.891 12.5881 25.9394C13.6549 25.9879 13.9953 26 16.7109 26C19.4266 26 19.7675 25.9887 20.8337 25.9394C21.8984 25.891 22.6253 25.7222 23.261 25.475C23.9185 25.219 24.4759 24.8772 25.0325 24.3215C25.589 23.7658 25.9299 23.2076 26.1859 22.5501C26.4331 21.9144 26.6027 21.1874 26.6504 20.1228C26.6989 19.0558 26.7101 18.7157 26.7101 16C26.7101 13.2843 26.6989 12.9434 26.6504 11.8772C26.6019 10.8126 26.4331 10.0852 26.1859 9.44992C25.9299 8.7924 25.5881 8.23504 25.0325 7.67848C24.4768 7.12192 23.9185 6.78032 23.2618 6.52504C22.6253 6.27784 21.8983 6.10824 20.8345 6.06056C19.7683 6.01208 19.4274 6 16.7117 6C13.9961 6 13.6549 6.01128 12.5881 6.06056Z" fill="#32353B"/>
</svg>
