<svg width="64" height="64" viewBox="0 0 64 64" fill="none" xmlns="http://www.w3.org/2000/svg">
<path d="M40.6299 16.215C40.533 16.2147 40.4402 16.176 40.3719 16.1074C40.3035 16.0387 40.2651 15.9458 40.2651 15.849V7.59808C40.2644 7.13456 40.08 6.69022 39.7522 6.36246C39.4245 6.0347 38.9801 5.85027 38.5166 5.8496H23.2219C22.7585 5.85027 22.3143 6.03475 21.9867 6.36254C21.6592 6.69033 21.475 7.13468 21.4747 7.59808V15.7901C21.4776 15.8399 21.4704 15.8898 21.4533 15.9367C21.4363 15.9836 21.4099 16.0265 21.3756 16.0628C21.3414 16.0991 21.3001 16.128 21.2543 16.1478C21.2085 16.1676 21.1591 16.1778 21.1092 16.1778C21.0593 16.1778 21.01 16.1676 20.9642 16.1478C20.9184 16.128 20.8771 16.0991 20.8428 16.0628C20.8086 16.0265 20.7822 15.9836 20.7652 15.9367C20.7481 15.8898 20.7409 15.8399 20.7438 15.7901V7.59808C20.7448 6.94116 21.0062 6.31144 21.4707 5.84693C21.9352 5.38242 22.565 5.12101 23.2219 5.12H38.5166C39.1737 5.12067 39.8038 5.38193 40.2686 5.84648C40.7334 6.31102 40.9949 6.94094 40.996 7.59808V15.849C40.996 15.946 40.9574 16.0392 40.8887 16.1078C40.8201 16.1765 40.727 16.215 40.6299 16.215Z" fill="black"/>
<path d="M28.0527 8.96898H23.0211C22.9243 8.96898 22.8315 8.93055 22.7631 8.86213C22.6947 8.79372 22.6562 8.70093 22.6562 8.60418C22.6562 8.50743 22.6947 8.41464 22.7631 8.34623C22.8315 8.27781 22.9243 8.23938 23.0211 8.23938H28.0527C28.1495 8.23938 28.2423 8.27781 28.3107 8.34623C28.3791 8.41464 28.4175 8.50743 28.4175 8.60418C28.4175 8.70093 28.3791 8.79372 28.3107 8.86213C28.2423 8.93055 28.1495 8.96898 28.0527 8.96898Z" fill="black"/>
<path d="M38.8191 8.96898H33.7925C33.6958 8.96898 33.603 8.93055 33.5346 8.86213C33.4662 8.79372 33.4277 8.70093 33.4277 8.60418C33.4277 8.50743 33.4662 8.41464 33.5346 8.34623C33.603 8.27781 33.6958 8.23938 33.7925 8.23938H38.8229C38.9197 8.23938 39.0125 8.27781 39.0809 8.34623C39.1493 8.41464 39.1877 8.50743 39.1877 8.60418C39.1877 8.70093 39.1493 8.79372 39.0809 8.86213C39.0125 8.93055 38.9197 8.96898 38.8229 8.96898H38.8191Z" fill="black"/>
<path d="M33.3849 10.9824H28.3545C28.3047 10.9853 28.2548 10.9781 28.2079 10.961C28.161 10.944 28.1181 10.9176 28.0818 10.8833C28.0455 10.8491 28.0165 10.8078 27.9968 10.762C27.977 10.7162 27.9668 10.6668 27.9668 10.6169C27.9668 10.567 27.977 10.5177 27.9968 10.4719C28.0165 10.426 28.0455 10.3848 28.0818 10.3505C28.1181 10.3163 28.161 10.2899 28.2079 10.2728C28.2548 10.2558 28.3047 10.2485 28.3545 10.2515H33.3849C33.4781 10.257 33.5656 10.2979 33.6297 10.3658C33.6937 10.4338 33.7293 10.5236 33.7293 10.6169C33.7293 10.7103 33.6937 10.8001 33.6297 10.868C33.5656 10.936 33.4781 10.9769 33.3849 10.9824Z" fill="black"/>
<path d="M28.2537 10.9824C28.1632 10.9823 28.0759 10.9486 28.0088 10.8878C27.9416 10.827 27.8994 10.7436 27.8902 10.6535L27.6893 8.64132C27.6833 8.59309 27.6871 8.54416 27.7003 8.49741C27.7135 8.45065 27.736 8.40701 27.7663 8.36904C27.7966 8.33108 27.8342 8.29956 27.8769 8.27632C27.9196 8.25309 27.9665 8.23862 28.0148 8.23376C28.0632 8.2289 28.112 8.23375 28.1585 8.24802C28.2049 8.26229 28.248 8.2857 28.2853 8.31687C28.3226 8.34804 28.3533 8.38634 28.3755 8.42953C28.3978 8.47271 28.4112 8.51991 28.415 8.56836L28.6173 10.5805C28.622 10.6284 28.6173 10.6767 28.6033 10.7227C28.5893 10.7687 28.5664 10.8115 28.5358 10.8486C28.5053 10.8857 28.4676 10.9164 28.4252 10.939C28.3827 10.9615 28.3362 10.9754 28.2883 10.9799L28.2537 10.9824Z" fill="black"/>
<path d="M33.4856 10.9823H33.4485C33.4007 10.9777 33.3544 10.9637 33.3122 10.9411C33.2699 10.9184 33.2325 10.8877 33.2022 10.8506C33.1718 10.8134 33.1491 10.7707 33.1354 10.7248C33.1216 10.6788 33.1171 10.6307 33.1221 10.583L33.323 8.57081C33.3278 8.52307 33.342 8.47674 33.3647 8.43447C33.3873 8.3922 33.4181 8.35482 33.4553 8.32445C33.4924 8.29408 33.5352 8.27132 33.5811 8.25748C33.6271 8.24364 33.6753 8.23898 33.723 8.24377C33.7708 8.24856 33.8171 8.26271 33.8594 8.2854C33.9016 8.3081 33.939 8.33889 33.9694 8.37604C33.9998 8.41318 34.0225 8.45594 34.0364 8.50188C34.0502 8.54782 34.0549 8.59603 34.0501 8.64377L33.8491 10.6559C33.8393 10.7456 33.7968 10.8284 33.7298 10.8886C33.6627 10.9489 33.5757 10.9822 33.4856 10.9823Z" fill="black"/>
<path d="M21.2092 58.88C21.1433 58.8801 21.0786 58.8623 21.022 58.8285C20.9654 58.7947 20.9191 58.7461 20.888 58.688C17.8825 53.0931 16.0009 47.351 15.2969 41.6192C14.7306 37.072 14.9161 32.4626 15.846 27.9757C17.4281 20.3673 20.582 15.8285 20.71 15.639C20.744 15.5912 20.7889 15.5521 20.841 15.5252C20.8931 15.4982 20.9509 15.4842 21.0096 15.4841H40.7305C40.8237 15.4896 40.9113 15.5306 40.9753 15.5985C41.0393 15.6664 41.075 15.7562 41.075 15.8496C41.075 15.9429 41.0393 16.0327 40.9753 16.1007C40.9113 16.1686 40.8237 16.2095 40.7305 16.215H21.2028C20.6409 17.0739 17.9414 21.4528 16.5539 28.1587C15.128 35.0464 14.8336 45.8752 21.5305 58.3424C21.5604 58.3979 21.5754 58.4603 21.574 58.5234C21.5725 58.5865 21.5548 58.6481 21.5224 58.7023C21.49 58.7565 21.4441 58.8013 21.3893 58.8325C21.3344 58.8636 21.2723 58.88 21.2092 58.88Z" fill="black"/>
<path d="M46.3661 38.7929H46.3482C46.3001 38.7907 46.253 38.7789 46.2094 38.7583C46.1659 38.7378 46.1268 38.7088 46.0945 38.6732C46.0621 38.6375 46.0372 38.5958 46.0209 38.5505C46.0047 38.5051 45.9977 38.457 46.0001 38.409C46.6337 25.0406 40.4961 16.1459 40.4321 16.0576C40.4044 16.0184 40.3848 15.9742 40.3742 15.9274C40.3636 15.8806 40.3624 15.8323 40.3705 15.785C40.3787 15.7378 40.396 15.6926 40.4216 15.6521C40.4472 15.6115 40.4806 15.5764 40.5198 15.5488C40.5988 15.4929 40.6969 15.4708 40.7923 15.4872C40.8396 15.4954 40.8847 15.5127 40.9253 15.5384C40.9658 15.564 41.0009 15.5973 41.0286 15.6365C41.0938 15.7286 42.6426 17.9494 44.1313 21.8841C46.1133 27.1701 46.9975 32.8045 46.7297 38.4435C46.7257 38.5374 46.6857 38.6261 46.618 38.6911C46.5503 38.7562 46.4601 38.7927 46.3661 38.7929Z" fill="black"/>
<path d="M40.5513 58.88C40.4882 58.88 40.4262 58.8636 40.3713 58.8325C40.3164 58.8013 40.2706 58.7565 40.2382 58.7023C40.2058 58.6482 40.188 58.5865 40.1866 58.5234C40.1852 58.4603 40.2002 58.398 40.23 58.3424C41.0909 56.7428 41.8702 55.1006 42.5648 53.4221C42.5825 53.377 42.609 53.336 42.6427 53.3013C42.6764 53.2666 42.7167 53.2389 42.7613 53.22C42.8058 53.201 42.8536 53.1911 42.902 53.1908C42.9504 53.1905 42.9984 53.1998 43.0431 53.2183C43.0879 53.2367 43.1285 53.2638 43.1627 53.2981C43.1968 53.3324 43.2238 53.3731 43.2421 53.418C43.2603 53.4628 43.2695 53.5108 43.269 53.5592C43.2685 53.6076 43.2584 53.6554 43.2393 53.6998C42.5354 55.4026 41.7459 57.0687 40.8739 58.6918C40.8418 58.7492 40.795 58.7969 40.7383 58.83C40.6816 58.863 40.617 58.8803 40.5513 58.88Z" fill="black"/>
<path d="M40.53 58.8799H21.2097C21.1165 58.8744 21.0289 58.8335 20.9649 58.7656C20.9009 58.6977 20.8652 58.6078 20.8652 58.5145C20.8652 58.4211 20.9009 58.3313 20.9649 58.2634C21.0289 58.1955 21.1165 58.1546 21.2097 58.149H40.53C40.6232 58.1546 40.7107 58.1955 40.7747 58.2634C40.8388 58.3313 40.8744 58.4211 40.8744 58.5145C40.8744 58.6078 40.8388 58.6977 40.7747 58.7656C40.7107 58.8335 40.6232 58.8744 40.53 58.8799Z" fill="black"/>
<path d="M42.5125 39.4804H42.4959C42.4477 39.4782 42.4005 39.4666 42.3568 39.4461C42.3132 39.4256 42.2741 39.3967 42.2417 39.3609C42.2094 39.3252 42.1844 39.2835 42.1682 39.2381C42.1521 39.1926 42.1451 39.1445 42.1477 39.0964C42.4191 32.7156 41.2683 27.5764 41.0264 26.5805C30.8696 22.5741 20.0344 26.61 19.9308 26.6522C19.8854 26.6719 19.8365 26.6821 19.7871 26.6823C19.7376 26.6825 19.6887 26.6726 19.6432 26.6533C19.5976 26.634 19.5565 26.6056 19.5223 26.5699C19.4881 26.5342 19.4615 26.4919 19.4442 26.4456C19.4268 26.3994 19.419 26.35 19.4213 26.3006C19.4236 26.2512 19.4359 26.2028 19.4574 26.1583C19.479 26.1139 19.5094 26.0742 19.5468 26.0418C19.5841 26.0094 19.6277 25.985 19.6748 25.97C19.7887 25.9264 22.5292 24.8922 26.5996 24.3636C30.3615 23.8759 35.996 23.7594 41.4757 25.9725C41.5282 25.9936 41.575 26.0267 41.6124 26.0691C41.6497 26.1116 41.6766 26.1623 41.6907 26.217C41.7061 26.2733 43.1871 31.9245 42.8811 39.1271C42.8778 39.2224 42.8374 39.3126 42.7686 39.3786C42.6997 39.4446 42.6079 39.4811 42.5125 39.4804Z" fill="black"/>
<path d="M21.527 50.373C21.4535 50.3732 21.3817 50.3512 21.3209 50.3098C21.2602 50.2685 21.2133 50.2097 21.1865 50.1413C16.6771 38.6789 19.4163 26.3564 19.4444 26.2399C19.4551 26.1932 19.4749 26.149 19.5026 26.1099C19.5304 26.0708 19.5655 26.0376 19.6061 26.0121C19.6467 25.9866 19.6919 25.9693 19.7392 25.9613C19.7864 25.9533 19.8348 25.9547 19.8815 25.9653C19.9283 25.976 19.9724 25.9958 20.0115 26.0235C20.0506 26.0513 20.0839 26.0864 20.1093 26.127C20.1348 26.1676 20.1521 26.2128 20.1601 26.2601C20.1681 26.3074 20.1668 26.3557 20.1561 26.4025C20.1292 26.5241 17.4412 38.6341 21.8662 49.8802C21.884 49.9248 21.8928 49.9725 21.892 50.0205C21.8913 50.0685 21.881 50.1159 21.8619 50.16C21.8427 50.204 21.815 50.2438 21.7804 50.2771C21.7457 50.3104 21.7049 50.3364 21.6601 50.3538C21.6174 50.3687 21.5722 50.3753 21.527 50.373Z" fill="black"/>
<path d="M31.7221 51.5839C28.2885 51.5802 24.8662 51.1886 21.5205 50.4166C21.4741 50.4046 21.4305 50.3835 21.3923 50.3547C21.354 50.3258 21.3218 50.2897 21.2975 50.2484C21.2732 50.2071 21.2573 50.1614 21.2506 50.1139C21.244 50.0665 21.2467 50.0182 21.2587 49.9718C21.2708 49.9254 21.2918 49.8818 21.3206 49.8436C21.3495 49.8053 21.3856 49.7731 21.4269 49.7488C21.4682 49.7245 21.5139 49.7085 21.5614 49.7019C21.6088 49.6952 21.6571 49.698 21.7035 49.71C21.7931 49.7331 30.7531 52.014 39.045 50.0774C39.0916 50.0665 39.14 50.0648 39.1872 50.0726C39.2345 50.0803 39.2798 50.0973 39.3205 50.1226C39.3612 50.1478 39.3966 50.1809 39.4245 50.2198C39.4525 50.2587 39.4725 50.3027 39.4834 50.3494C39.4943 50.396 39.4959 50.4444 39.4882 50.4916C39.4804 50.5389 39.4634 50.5842 39.4382 50.6249C39.4129 50.6656 39.3799 50.701 39.341 50.7289C39.3021 50.7569 39.258 50.7769 39.2114 50.7878C36.6885 51.3766 34.1055 51.5839 31.7221 51.5839Z" fill="black"/>
<path d="M45.7572 54.4703C44.4575 54.4679 43.177 54.1571 42.0209 53.5636C40.8647 52.9701 39.8658 52.1107 39.1064 51.0561C38.3469 50.0015 37.8484 48.7817 37.652 47.497C37.4556 46.2123 37.5667 44.8994 37.9764 43.666C38.386 42.4326 39.0824 41.314 40.0084 40.4021C40.9344 39.4902 42.0635 38.811 43.303 38.4203C44.5425 38.0296 45.857 37.9385 47.1385 38.1546C48.4201 38.3707 49.6321 38.8878 50.6749 39.6633C51.9793 40.6322 52.967 41.9663 53.513 43.4967C54.0591 45.027 54.139 46.685 53.7425 48.2608C53.3461 49.8366 52.4912 51.2594 51.286 52.3492C50.0808 53.439 48.5795 54.1469 46.9719 54.3833C46.5696 54.4415 46.1636 54.4705 45.7572 54.4703ZM45.7904 38.7699C44.0103 38.7652 42.2867 39.3949 40.9288 40.546C39.5709 41.6972 38.6676 43.2944 38.3807 45.0513C38.0939 46.8082 38.4424 48.6098 39.3636 50.133C40.2849 51.6562 41.7187 52.8014 43.4079 53.3632C45.0971 53.925 46.9311 53.8666 48.5812 53.1985C50.2312 52.5304 51.5892 51.2963 52.4117 49.7175C53.2342 48.1388 53.4673 46.3186 53.0693 44.5835C52.6713 42.8485 51.6681 41.3119 50.2397 40.2495C48.9554 39.2886 47.3944 38.7695 45.7904 38.7699Z" fill="black"/>
<path d="M59.1531 58.1338C58.913 58.1339 58.6791 58.0567 58.4862 57.9136L50.915 52.2816C50.8765 52.2531 50.8441 52.2172 50.8194 52.1761C50.7948 52.1349 50.7785 52.0893 50.7715 52.0419C50.7645 51.9945 50.7669 51.9462 50.7786 51.8997C50.7902 51.8532 50.8109 51.8094 50.8395 51.7709C50.8681 51.7324 50.904 51.6999 50.9451 51.6753C50.9862 51.6507 51.0318 51.6344 51.0792 51.6274C51.1267 51.6204 51.175 51.6228 51.2215 51.6344C51.268 51.6461 51.3117 51.6668 51.3502 51.6954L58.9227 57.3274C59.0056 57.389 59.1095 57.4152 59.2117 57.4003C59.3139 57.3855 59.4061 57.3307 59.468 57.248L60.2475 56.1972C60.3088 56.1141 60.3348 56.0103 60.3199 55.9082C60.3051 55.8061 60.2505 55.714 60.1682 55.6519L52.5957 50.0199C52.5553 49.9921 52.5209 49.9564 52.4945 49.915C52.4682 49.8737 52.4505 49.8274 52.4425 49.779C52.4345 49.7306 52.4363 49.6811 52.4478 49.6334C52.4594 49.5857 52.4804 49.5409 52.5097 49.5015C52.539 49.4622 52.5759 49.4291 52.6182 49.4044C52.6606 49.3796 52.7075 49.3637 52.7561 49.3574C52.8048 49.3512 52.8542 49.3549 52.9014 49.3682C52.9486 49.3815 52.9926 49.4042 53.0309 49.4349L60.6033 55.0669C60.8413 55.2444 60.9992 55.509 61.0424 55.8027C61.0856 56.0963 61.0106 56.3952 60.8338 56.6336L60.053 57.6832C59.9488 57.8236 59.8131 57.9376 59.6568 58.0158C59.5004 58.0941 59.3279 58.1345 59.1531 58.1338Z" fill="black"/>
<path d="M45.687 52.4954C44.3312 52.4965 43.0113 52.0597 41.9238 51.25C40.7158 50.3539 39.8665 49.0568 39.5283 47.5912C39.19 46.1257 39.3849 44.5876 40.078 43.2528C40.7711 41.9179 41.9171 40.8736 43.3104 40.3072C44.7037 39.7407 46.2533 39.6891 47.6812 40.1617C49.1091 40.6343 50.3219 41.6001 51.1022 42.8859C51.8825 44.1717 52.1793 45.6935 51.9392 47.1782C51.6991 48.663 50.938 50.0137 49.7922 50.9881C48.6465 51.9625 47.1911 52.4969 45.687 52.4954ZM42.359 50.6637C43.2467 51.3235 44.3101 51.7053 45.4147 51.7607C46.5194 51.8162 47.6157 51.5428 48.565 50.9752C49.5143 50.4076 50.2739 49.5712 50.7479 48.5719C51.2219 47.5726 51.3889 46.4551 51.2278 45.3609C51.0667 44.2666 50.5847 43.2447 49.8428 42.4244C49.1009 41.6041 48.1325 41.0221 47.0599 40.7522C45.9873 40.4823 44.8587 40.5365 43.8169 40.9079C42.7751 41.2794 41.8669 41.9514 41.207 42.8391C40.7651 43.427 40.4441 44.0968 40.2627 44.8096C40.0813 45.5224 40.0431 46.2641 40.1502 46.9918C40.2574 47.7195 40.5077 48.4187 40.8869 49.049C41.266 49.6793 41.7664 50.2281 42.359 50.6637Z" fill="black"/>
</svg>
