<svg width="64" height="64" viewBox="0 0 64 64" fill="none" xmlns="http://www.w3.org/2000/svg">
<path d="M57.3922 50.9734H6.60688C6.1084 50.9727 5.63053 50.7744 5.27804 50.4219C4.92556 50.0694 4.72724 49.5915 4.72656 49.0931V14.9068C4.72724 14.4083 4.92556 13.9305 5.27804 13.578C5.63053 13.2255 6.1084 13.0272 6.60688 13.0265H57.3922C57.8907 13.0272 58.3685 13.2255 58.721 13.578C59.0735 13.9305 59.2718 14.4083 59.2725 14.9068V49.0931C59.2718 49.5915 59.0735 50.0694 58.721 50.4219C58.3685 50.7744 57.8907 50.9727 57.3922 50.9734ZM6.60688 13.8943C6.33836 13.8943 6.08083 14.001 5.89095 14.1909C5.70107 14.3808 5.5944 14.6383 5.5944 14.9068V49.0931C5.5944 49.226 5.62059 49.3577 5.67147 49.4805C5.72236 49.6034 5.79693 49.715 5.89095 49.809C5.98497 49.903 6.09658 49.9776 6.21942 50.0285C6.34226 50.0793 6.47392 50.1055 6.60688 50.1055H57.3922C57.5251 50.1055 57.6568 50.0793 57.7796 50.0285C57.9025 49.9776 58.0141 49.903 58.1081 49.809C58.2021 49.715 58.2767 49.6034 58.3276 49.4805C58.3785 49.3577 58.4046 49.226 58.4046 49.0931V14.9068C58.4046 14.6383 58.298 14.3808 58.1081 14.1909C57.9182 14.001 57.6607 13.8943 57.3922 13.8943H6.60688Z" fill="black"/>
<path d="M26.6972 40.6425C26.506 40.6422 26.3227 40.566 26.1876 40.4307C26.0524 40.2953 25.9766 40.1119 25.9766 39.9206V23.7606C25.9764 23.6209 26.013 23.4836 26.0827 23.3625C26.1524 23.2414 26.2527 23.1408 26.3736 23.0708C26.4945 23.0007 26.6317 22.9637 26.7714 22.9635C26.9111 22.9633 27.0484 22.9998 27.1695 23.0694L40.9065 30.9427C40.992 30.9919 41.0633 31.0623 41.1135 31.1472C41.1637 31.2321 41.191 31.3286 41.1928 31.4272C41.1946 31.5258 41.1709 31.6233 41.1238 31.7099C41.0768 31.7966 41.0081 31.8697 40.9244 31.9219L27.0786 40.5338C26.964 40.6047 26.832 40.6423 26.6972 40.6425ZM26.8444 23.8835V39.6569L40.0438 31.4483L26.8444 23.8835Z" fill="black"/>
</svg>
