<svg width="33" height="32" viewBox="0 0 33 32" fill="none" xmlns="http://www.w3.org/2000/svg">
<path fill-rule="evenodd" clip-rule="evenodd" d="M24.5362 9.42638C25.3929 9.65702 26.0684 10.3325 26.299 11.1891C26.7273 12.7542 26.7109 16.0161 26.7109 16.0161C26.7109 16.0161 26.7109 19.2616 26.299 20.8267C26.0684 21.6833 25.3929 22.3588 24.5362 22.5894C22.9712 23.0013 16.7109 23.0013 16.7109 23.0013C16.7109 23.0013 10.4671 23.0013 8.88556 22.573C8.02889 22.3423 7.35344 21.6669 7.1228 20.8102C6.71094 19.2616 6.71094 15.9997 6.71094 15.9997C6.71094 15.9997 6.71094 12.7542 7.1228 11.1891C7.35344 10.3325 8.04536 9.64055 8.88556 9.40991C10.4506 8.99805 16.7109 8.99805 16.7109 8.99805C16.7109 8.99805 22.9712 8.99805 24.5362 9.42638ZM19.9234 15.9997L14.7175 18.998V13.0013L19.9234 15.9997Z" fill="#32353B"/>
</svg>
