<svg width="16" height="16" viewBox="0 0 16 16" fill="none" xmlns="http://www.w3.org/2000/svg">
<path d="M14.6111 13.375H14.2222V4.4375H1.77778V13.375H1.38938C1.17451 13.375 1.00049 13.5568 1.00049 13.7812V14.5938C1.00049 14.8182 1.17451 15 1.38938 15H5.27778C5.49264 15 5.66667 14.8182 5.66667 14.5938V10.125C5.66667 8.77879 6.71132 7.6875 8 7.6875C9.28868 7.6875 10.3333 8.77879 10.3333 10.125L10.3338 14.1875V14.5938C10.3338 14.8182 10.5078 15 10.7227 15H14.6111C14.826 15 15 14.8182 15 14.5938V13.7812C15 13.5568 14.826 13.375 14.6111 13.375ZM14.6111 2H1.38889C1.17403 2 1 2.1818 1 2.40625V3.21875C1 3.4432 1.17403 3.625 1.38889 3.625H14.6111C14.826 3.625 15 3.4432 15 3.21875V2.40625C15 2.1818 14.826 2 14.6111 2Z" fill="#525463"/>
</svg>
