<svg width="18" height="18" viewBox="0 0 18 18" fill="none" xmlns="http://www.w3.org/2000/svg">
<g clip-path="url(#clip0)">
<path d="M13.1824 2.27238L9.00038 6.45442L4.81835 2.27238C4.31634 1.77037 3.50209 1.77037 3.00008 2.27238L2.27277 2.99969C1.77075 3.50171 1.77075 4.31595 2.27277 4.81797L6.4548 9L2.27277 13.182C1.77075 13.684 1.77075 14.4983 2.27277 15.0003L3.00008 15.7276C3.50209 16.2296 4.31634 16.2296 4.81835 15.7276L9.00038 11.5456L13.1824 15.7276C13.6844 16.2296 14.4987 16.2296 15.0007 15.7276L15.728 15.0003C16.23 14.4983 16.23 13.684 15.728 13.182L11.546 9L15.728 4.81797C16.23 4.31595 16.23 3.50171 15.728 2.99969L15.0007 2.27238C14.4987 1.77037 13.6844 1.77037 13.1824 2.27238Z" fill="white"/>
</g>
<defs>
<clipPath id="clip0">
<rect width="18" height="18" fill="white"/>
</clipPath>
</defs>
</svg>
