<svg width="24" height="24" viewBox="0 0 24 24" fill="none" xmlns="http://www.w3.org/2000/svg">
<path d="M0.276923 12.9231C0.0923077 12.7385 0 12.4615 0 12.2769C0 12.0923 0.0923077 11.8154 0.276923 11.6308L1.56923 10.3385C1.93846 9.96922 2.49231 9.96922 2.86154 10.3385L2.95385 10.4308L8.03077 15.8769C8.21538 16.0615 8.49231 16.0615 8.67692 15.8769L21.0462 3.04615H21.1385C21.5077 2.67692 22.0615 2.67692 22.4308 3.04615L23.7231 4.33846C24.0923 4.70769 24.0923 5.26153 23.7231 5.63076L8.95385 20.9538C8.76923 21.1385 8.58462 21.2308 8.30769 21.2308C8.03077 21.2308 7.84615 21.1385 7.66154 20.9538L0.461538 13.2L0.276923 12.9231Z" fill="#4BAF4F"/>
</svg>
