<svg width="12" height="12" viewBox="0 0 12 12" fill="none" xmlns="http://www.w3.org/2000/svg">
<rect x="0.5" y="0.5" width="11" height="11" rx="5.5" stroke="#E65739"/>
<path d="M6.61263 7.26506H5.51888L5.36393 2.66675H6.76758L6.61263 7.26506ZM6.06576 7.98511C6.28754 7.98511 6.46528 8.05043 6.59896 8.18107C6.73568 8.31171 6.80404 8.47881 6.80404 8.68237C6.80404 8.88289 6.73568 9.04848 6.59896 9.17912C6.46528 9.30976 6.28754 9.37508 6.06576 9.37508C5.84701 9.37508 5.66927 9.30976 5.53255 9.17912C5.39887 9.04848 5.33203 8.88289 5.33203 8.68237C5.33203 8.48185 5.39887 8.31627 5.53255 8.18563C5.66927 8.05195 5.84701 7.98511 6.06576 7.98511Z" fill="#E65739"/>
</svg>
