<svg width="9" height="24" viewBox="0 0 9 24" fill="none" xmlns="http://www.w3.org/2000/svg">
<path d="M7.84617 20.5385C7.84617 22.4472 6.29333 24 4.38463 24C2.47594 24 0.923096 22.4472 0.923096 20.5385C0.923096 18.6298 2.47594 17.0769 4.38463 17.0769C6.29333 17.0769 7.84617 18.6298 7.84617 20.5385ZM1.15386 1.09034L1.91223 14.7057C1.93988 15.2584 2.39602 15.6923 2.94939 15.6923H5.81987C6.37324 15.6923 6.82939 15.2584 6.85704 14.7057L7.6154 1.09034C7.64504 0.497163 7.17215 0 6.57824 0H2.19103C1.59711 0 1.12423 0.497163 1.15386 1.09034Z" fill="#FFBE33"/>
</svg>
