<svg width="16" height="16" viewBox="0 0 16 16" fill="none" xmlns="http://www.w3.org/2000/svg">
<path d="M14.125 3.5C14.3322 3.5 14.5 3.33219 14.5 3.125V2.375C14.5 2.16781 14.3322 2 14.125 2H1.375C1.16781 2 1 2.16781 1 2.375V3.125C1 3.33219 1.16781 3.5 1.375 3.5H1.74953V12.5H1.375C1.16781 12.5 1 12.6678 1 12.875V13.625C1 13.8322 1.16781 14 1.375 14H7V12.125C7 11.9187 7.16875 11.75 7.375 11.75H8.125C8.33125 11.75 8.5 11.9187 8.5 12.125V14H14.125C14.3322 14 14.5 13.8322 14.5 13.625V12.875C14.5 12.6678 14.3322 12.5 14.125 12.5H13.75V3.5H14.125ZM7 4.55C7 4.4 7.15 4.25 7.3 4.25H8.2C8.35 4.25 8.5 4.4 8.5 4.55V5.45C8.5 5.6 8.35 5.75 8.2 5.75H7.3C7.15 5.75 7 5.6 7 5.45V4.55ZM7 6.8C7 6.65 7.15 6.5 7.3 6.5H8.2C8.35 6.5 8.5 6.65 8.5 6.8V7.7C8.5 7.85 8.35 8 8.2 8H7.3C7.15 8 7 7.85 7 7.7V6.8ZM4 4.55C4 4.4 4.15 4.25 4.3 4.25H5.2C5.35 4.25 5.5 4.4 5.5 4.55V5.45C5.5 5.6 5.35 5.75 5.2 5.75H4.3C4.15 5.75 4 5.6 4 5.45V4.55ZM5.2 8H4.3C4.15 8 4 7.85 4 7.7V6.8C4 6.65 4.15 6.5 4.3 6.5H5.2C5.35 6.5 5.5 6.65 5.5 6.8V7.7C5.5 7.85 5.35 8 5.2 8ZM5.5 11C5.5 9.75734 6.50734 8.75 7.75 8.75C8.99266 8.75 10 9.75734 10 11H5.5ZM11.5 7.7C11.5 7.85 11.35 8 11.2 8H10.3C10.15 8 10 7.85 10 7.7V6.8C10 6.65 10.15 6.5 10.3 6.5H11.2C11.35 6.5 11.5 6.65 11.5 6.8V7.7ZM11.5 5.45C11.5 5.6 11.35 5.75 11.2 5.75H10.3C10.15 5.75 10 5.6 10 5.45V4.55C10 4.4 10.15 4.25 10.3 4.25H11.2C11.35 4.25 11.5 4.4 11.5 4.55V5.45Z" fill="#525463"/>
</svg>
