<svg width="20" height="20" viewBox="0 0 20 20" fill="none" xmlns="http://www.w3.org/2000/svg">
<path d="M18.2124 16.5735L14.4044 12.6129C15.3835 11.449 15.92 9.98455 15.92 8.45999C15.92 4.89801 13.022 2 9.45999 2C5.89801 2 3 4.89801 3 8.45999C3 12.022 5.89801 14.92 9.45999 14.92C10.7972 14.92 12.0715 14.5167 13.161 13.751L16.998 17.7416C17.1583 17.9082 17.374 18 17.6052 18C17.824 18 18.0316 17.9166 18.1891 17.7649C18.5239 17.4428 18.5346 16.9085 18.2124 16.5735ZM9.45999 3.68522C12.0929 3.68522 14.2348 5.82713 14.2348 8.45999C14.2348 11.0929 12.0929 13.2348 9.45999 13.2348C6.82713 13.2348 4.68522 11.0929 4.68522 8.45999C4.68522 5.82713 6.82713 3.68522 9.45999 3.68522Z" fill="#B0B0B0"/>
</svg>
