<svg width="24" height="24" viewBox="0 0 24 24" fill="none" xmlns="http://www.w3.org/2000/svg">
<path fill-rule="evenodd" clip-rule="evenodd" d="M13.7526 4.06509C15.551 4.44556 17.1887 5.4101 18.4081 6.8179C19.7571 8.37529 20.5 10.3723 20.5 12.4412C20.5 17.1605 16.6869 21 12 21C7.31308 21 3.5 17.1605 3.5 12.4412C3.5 10.3892 4.23223 8.40454 5.56186 6.85279C6.78284 5.42775 8.4339 4.44887 10.2474 4.06518V3.56471C10.2474 3.25283 10.4985 3 10.8082 3H13.1918C13.5015 3 13.7526 3.25283 13.7526 3.56471V4.06509ZM12.4381 4.32353H11.5619V6.97059H12.4381V4.32353ZM4.81443 12.4412C4.81443 16.4307 8.03786 19.6765 12 19.6765C15.9621 19.6765 19.1856 16.4307 19.1856 12.4412C19.1856 10.6923 18.5577 9.00415 17.4175 7.68785C16.4478 6.56828 15.1657 5.78047 13.7526 5.42316V7.72941C13.7526 8.04129 13.5015 8.29412 13.1918 8.29412H10.8082C10.4985 8.29412 10.2474 8.04129 10.2474 7.72941V5.42281C8.82148 5.78343 7.52861 6.58346 6.55702 7.71737C5.43331 9.0289 4.81443 10.7065 4.81443 12.4412ZM7.87679 10.5794H8.70751L10.0956 14.3382H9.01246L8.78638 13.6024H7.79266L7.57184 14.3382H6.48349L7.87679 10.5794ZM8.29219 11.6541L7.94518 12.9141H8.62343L8.29219 11.6541ZM13.003 10.5794L10.2953 14.3382H11.3942L14.1072 10.5794H13.003ZM16.5495 13.2079C16.5969 13.1497 16.6345 13.0782 16.6626 12.9935L17.4986 13.4965C17.446 13.6341 17.3662 13.7577 17.2593 13.8671C17.1523 13.9765 17.0306 14.0682 16.8939 14.1423C16.7572 14.2165 16.6117 14.273 16.4575 14.3118C16.3033 14.3505 16.1526 14.37 16.0054 14.37C15.7459 14.37 15.5076 14.3144 15.2903 14.2032C15.0729 14.0921 14.8863 13.9447 14.7304 13.7612C14.5743 13.5777 14.4525 13.3694 14.365 13.1365C14.2773 12.9035 14.2335 12.6671 14.2335 12.4271C14.2335 12.1977 14.2738 11.9718 14.3545 11.7494C14.4351 11.5271 14.5534 11.3277 14.7094 11.1512C14.8653 10.9748 15.0546 10.8318 15.2772 10.7224C15.4997 10.613 15.7531 10.5582 16.037 10.5582C16.3699 10.5582 16.6608 10.6333 16.9097 10.7832C17.1586 10.9333 17.3426 11.1318 17.4618 11.3788L16.6784 11.94C16.6469 11.8483 16.6056 11.7724 16.5549 11.7124C16.504 11.6524 16.4488 11.6047 16.3893 11.5694C16.3296 11.5342 16.2666 11.5095 16.2 11.4953C16.1334 11.4812 16.072 11.4741 16.016 11.4741C15.8863 11.4741 15.7749 11.5032 15.6821 11.5615C15.5892 11.6197 15.5121 11.6956 15.4508 11.7891C15.3894 11.8827 15.3447 11.9886 15.3166 12.1068C15.2885 12.225 15.2745 12.3424 15.2745 12.4588C15.2745 12.5895 15.2911 12.7148 15.3245 12.8347C15.3577 12.9548 15.4068 13.0606 15.4717 13.1524C15.5365 13.2442 15.6154 13.3174 15.7083 13.3721C15.8011 13.4268 15.9072 13.4541 16.0264 13.4541C16.0859 13.4541 16.1473 13.4462 16.2104 13.4303C16.2735 13.4144 16.334 13.3879 16.3918 13.3509C16.4496 13.3138 16.5022 13.2662 16.5495 13.2079Z" fill="#525463"/>
</svg>
