<svg width="32" height="32" viewBox="0 0 32 32" fill="none" xmlns="http://www.w3.org/2000/svg">
<path d="M16 32C24.8366 32 32 24.8366 32 16C32 7.16344 24.8366 0 16 0C7.16344 0 0 7.16344 0 16C0 24.8366 7.16344 32 16 32Z" fill="#E3411F"/>
<path d="M16.5333 17.2C16.0666 16.8667 15.2 16.0667 15.2 15.6667C15.2 15.1334 15.3333 14.8667 16.1333 14.2C16.9333 13.5334 17.5333 12.6667 17.5333 11.6C17.5333 10.3334 17 9.13337 15.9333 8.6667H17.5333L18.6666 7.8667H13.6666C11.4 7.8667 9.26663 9.60003 9.26663 11.5334C9.26663 13.5334 10.8 15.2 13.0666 15.2C13.2 15.2 13.4 15.2 13.5333 15.2C13.4 15.4667 13.2666 15.8 13.2666 16.1334C13.2666 16.6667 13.6 17.1334 13.9333 17.5334C13.6666 17.5334 13.3333 17.5334 13.0666 17.5334C10.2666 17.5334 8.1333 19.3334 8.1333 21.1334C8.1333 22.9334 10.4666 24.0667 13.2666 24.0667C16.4666 24.0667 18.2 22.2667 18.2 20.4667C18.2666 19.0667 17.8666 18.1334 16.5333 17.2ZM13.8 14.7334C12.5333 14.6667 11.2666 13.2667 11.0666 11.6C10.8666 9.8667 11.7333 8.60003 13 8.6667C14.2666 8.73337 15.5333 10.0667 15.7333 11.8C16 13.4 15.1333 14.7334 13.8 14.7334ZM13.3333 23.3334C11.4 23.3334 9.99997 22.1334 9.99997 20.6667C9.99997 19.2 11.7333 18 13.6666 18.0667C14.1333 18.0667 14.5333 18.1334 14.9333 18.2667C16 19 16.7333 19.4 16.9333 20.2667C17 20.4667 17 20.6 17 20.8C17 22.1334 16 23.3334 13.3333 23.3334Z" fill="white"/>
<path d="M21.8668 14.8667V12.9333H20.2668V14.8667H18.3335V16.4H20.2668V18.4H21.8668V16.4H23.8002V14.8667H21.8668Z" fill="white"/>
</svg>
