<svg width="16" height="67" viewBox="0 0 16 67" fill="none" xmlns="http://www.w3.org/2000/svg">
<path d="M10 65C10 66.1046 9.10457 67 8 67C6.89543 67 6 66.1046 6 65C6 63.8954 6.89543 63 8 63C9.10457 63 10 63.8954 10 65Z" fill="#525463"/>
<path d="M9 55.4102L9 8.32142C9 8.14391 8.8536 7.99999 8.67304 7.99999L7.32695 7.99999C7.14639 7.99999 7 8.14391 7 8.32142L7 55.4102L5.65523 55.4102C5.07265 55.4102 4.7809 56.1027 5.19283 56.5077L7.53762 58.8128C7.793 59.0639 8.20703 59.0639 8.46238 58.8128L10.8072 56.5077C11.2191 56.1027 10.9273 55.4102 10.3448 55.4102L9 55.4102Z" fill="#525463"/>
<path d="M10 2C10 3.10457 9.10457 4 8 4C6.89543 4 6 3.10457 6 2C6 0.89543 6.89543 0 8 0C9.10457 0 10 0.89543 10 2Z" fill="#525463"/>
</svg>
