<svg width="20" height="20" viewBox="0 0 20 20" fill="none" xmlns="http://www.w3.org/2000/svg">
<path d="M16.5898 14.0816H16.1797V3.45918C16.1797 3.20538 15.9962 3 15.7695 3H14.1016C13.8749 3 13.6914 3.20538 13.6914 3.45918V14.0816H12.8711V5.29592C12.8711 5.04211 12.6876 4.83673 12.4609 4.83673H10.8203C10.5936 4.83673 10.4102 5.04211 10.4102 5.29592V14.0816H9.58984V8.05102C9.58984 7.79721 9.40639 7.59184 9.17969 7.59184H7.53906C7.31236 7.59184 7.12891 7.79721 7.12891 8.05102V14.0816H6.30859V10.8061C6.30859 10.5523 6.12514 10.3469 5.89844 10.3469H4.23047C4.00376 10.3469 3.82031 10.5523 3.82031 10.8061V14.0816H3.41016C3.18345 14.0816 3 14.287 3 14.5408C3 14.7946 3.18345 15 3.41016 15H16.5898C16.8166 15 17 14.7946 17 14.5408C17 14.287 16.8166 14.0816 16.5898 14.0816Z" fill="white"/>
</svg>
