<svg width="20" height="20" viewBox="0 0 20 20" fill="none" xmlns="http://www.w3.org/2000/svg">
<path d="M15.1145 5.677L12.8203 3.38286C12.5742 3.13677 12.2406 2.99731 11.8934 2.99731H5.3125C4.58789 3.00005 4 3.58794 4 4.31255V15.6875C4 16.4122 4.58789 17 5.3125 17H14.1875C14.9121 17 15.5 16.4122 15.5 15.6875V6.60669C15.5 6.25942 15.3606 5.9231 15.1145 5.677ZM14.0809 6.50005H12V4.41919L14.0809 6.50005ZM5.3125 15.6875V4.31255H10.6875V7.1563C10.6875 7.51997 10.9801 7.81255 11.3438 7.81255H14.1875V15.6875H5.3125Z" fill="white"/>
</svg>
