<svg width="388" height="290" viewBox="0 0 388 290" fill="none" xmlns="http://www.w3.org/2000/svg">
<rect x="178" y="10" width="16" height="20" rx="3" fill="#B0B0B0"/>
<path d="M188.965 24H183.229V23.0215L186.07 19.9219C186.48 19.4648 186.771 19.084 186.943 18.7793C187.119 18.4707 187.207 18.1621 187.207 17.8535C187.207 17.4473 187.092 17.1191 186.861 16.8691C186.635 16.6191 186.328 16.4941 185.941 16.4941C185.48 16.4941 185.123 16.6348 184.869 16.916C184.615 17.1973 184.488 17.582 184.488 18.0703H183.064C183.064 17.5508 183.182 17.084 183.416 16.6699C183.654 16.252 183.992 15.9277 184.43 15.6973C184.871 15.4668 185.379 15.3516 185.953 15.3516C186.781 15.3516 187.434 15.5605 187.91 15.9785C188.391 16.3926 188.631 16.9668 188.631 17.7012C188.631 18.127 188.51 18.5742 188.268 19.043C188.029 19.5078 187.637 20.0371 187.09 20.6309L185.004 22.8633H188.965V24Z" fill="#525463"/>
<rect y="6" width="20" height="20" rx="4" fill="#4BAF4F"/>
<g clip-path="url(#clip0)">
<path d="M5 15.5833L6.33333 14.25L9 16.9167L13.6667 12.25L15 13.5833L9 19.5833L5 15.5833Z" fill="white"/>
</g>
<rect x="36.5" y="6.5" width="19" height="19" rx="3.5" stroke="#E8EBF0"/>
<path d="M135.46 82.7175C131.487 76.9579 130.75 76.3668 130.75 74.25C130.75 71.3505 133.1 69 136 69C138.9 69 141.25 71.3505 141.25 74.25C141.25 76.3668 140.513 76.9579 136.54 82.7175C136.279 83.0942 135.721 83.0941 135.46 82.7175ZM136 76.4375C137.208 76.4375 138.187 75.4581 138.187 74.25C138.187 73.0419 137.208 72.0625 136 72.0625C134.792 72.0625 133.812 73.0419 133.812 74.25C133.812 75.4581 134.792 76.4375 136 76.4375Z" fill="#525463"/>
<path d="M69.625 77H68.375C68.1688 77 68 76.8313 68 76.625V75.375C68 75.1687 68.1688 75 68.375 75H69.625C69.8313 75 70 75.1687 70 75.375V76.625C70 76.8313 69.8313 77 69.625 77ZM73 76.625V75.375C73 75.1687 72.8313 75 72.625 75H71.375C71.1687 75 71 75.1687 71 75.375V76.625C71 76.8313 71.1687 77 71.375 77H72.625C72.8313 77 73 76.8313 73 76.625ZM76 76.625V75.375C76 75.1687 75.8313 75 75.625 75H74.375C74.1687 75 74 75.1687 74 75.375V76.625C74 76.8313 74.1687 77 74.375 77H75.625C75.8313 77 76 76.8313 76 76.625ZM73 79.625V78.375C73 78.1687 72.8313 78 72.625 78H71.375C71.1687 78 71 78.1687 71 78.375V79.625C71 79.8313 71.1687 80 71.375 80H72.625C72.8313 80 73 79.8313 73 79.625ZM70 79.625V78.375C70 78.1687 69.8313 78 69.625 78H68.375C68.1688 78 68 78.1687 68 78.375V79.625C68 79.8313 68.1688 80 68.375 80H69.625C69.8313 80 70 79.8313 70 79.625ZM76 79.625V78.375C76 78.1687 75.8313 78 75.625 78H74.375C74.1687 78 74 78.1687 74 78.375V79.625C74 79.8313 74.1687 80 74.375 80H75.625C75.8313 80 76 79.8313 76 79.625ZM79 71.5V82.5C79 83.3281 78.3281 84 77.5 84H66.5C65.6719 84 65 83.3281 65 82.5V71.5C65 70.6719 65.6719 70 66.5 70H68V68.375C68 68.1688 68.1688 68 68.375 68H69.625C69.8313 68 70 68.1688 70 68.375V70H74V68.375C74 68.1688 74.1687 68 74.375 68H75.625C75.8313 68 76 68.1688 76 68.375V70H77.5C78.3281 70 79 70.6719 79 71.5ZM77.5 82.3125V73H66.5V82.3125C66.5 82.4156 66.5844 82.5 66.6875 82.5H77.3125C77.4156 82.5 77.5 82.4156 77.5 82.3125Z" fill="#525463"/>
<path d="M198.539 76.4631L205.461 76.4631C205.94 76.4631 206.18 77.0426 205.841 77.3815L202.38 80.8424C202.17 81.0525 201.83 81.0525 201.62 80.8424L198.159 77.3815C197.82 77.0426 198.06 76.4631 198.539 76.4631Z" fill="#525463"/>
<path d="M41 75.4102L41 69.3214C41 69.1439 40.8536 69 40.673 69L39.327 69C39.1464 69 39 69.1439 39 69.3214L39 75.4102L37.6552 75.4102C37.0727 75.4102 36.7809 76.1027 37.1928 76.5077L39.5376 78.8128C39.793 79.0639 40.207 79.0639 40.4624 78.8128L42.8072 76.5077C43.2191 76.1027 42.9273 75.4102 42.3448 75.4102L41 75.4102Z" fill="#525463"/>
<path d="M41.25 82.25C41.25 82.9404 40.6904 83.5 40 83.5C39.3096 83.5 38.75 82.9404 38.75 82.25C38.75 81.5596 39.3096 81 40 81C40.6904 81 41.25 81.5596 41.25 82.25Z" fill="#525463"/>
<path d="M7 72.5909V78.6797C7 78.8572 7.14639 79.0011 7.32695 79.0011H8.67304C8.85361 79.0011 9 78.8572 9 78.6797V72.5909H10.3448C10.9273 72.5909 11.2191 71.8984 10.8072 71.4934L8.46238 69.1883C8.207 68.9372 7.79297 68.9372 7.53762 69.1883L5.19283 71.4934C4.7809 71.8984 5.07265 72.5909 5.65523 72.5909H7Z" fill="#525463"/>
<path d="M9.25 82.25C9.25 82.9404 8.69036 83.5 8 83.5C7.30964 83.5 6.75 82.9404 6.75 82.25C6.75 81.5596 7.30964 81 8 81C8.69036 81 9.25 81.5596 9.25 82.25Z" fill="#525463"/>
<rect x="72.5" y="6.5" width="31" height="31" rx="15.5" fill="white" stroke="#E8EBF0"/>
<path d="M90.6396 15L91.1196 15C91.5172 15 91.8395 15.2938 91.8395 15.6562L91.8395 25.5L93.2794 25.5C93.9203 25.5 94.2405 26.2082 93.7884 26.6203L91.3887 28.8078C91.1075 29.0641 90.6517 29.0641 90.3706 28.8078L87.9708 26.6203C87.5205 26.2097 87.8363 25.5 88.4799 25.5L89.9197 25.5L89.9197 15.6562C89.9197 15.2938 90.242 15 90.6396 15ZM86.0801 28.3438L86.0801 18.5L87.52 18.5C88.1593 18.5 88.4823 17.7928 88.029 17.3797L85.6293 15.1922C85.3481 14.9359 84.8923 14.9359 84.6112 15.1922L82.2114 17.3797C81.7607 17.7906 82.0774 18.5 82.7205 18.5L84.1603 18.5L84.1603 28.3438C84.1603 28.7062 84.4826 29 84.8803 29L85.3602 29C85.7578 29 86.0801 28.7062 86.0801 28.3438Z" fill="#525463"/>
<path d="M98.4 75.2063C99.2825 75.2063 100 74.4887 100 73.6063C100 72.7238 99.2825 72.0063 98.4 72.0063C97.5175 72.0063 96.8 72.7238 96.8 73.6063C96.8 74.4887 97.5175 75.2063 98.4 75.2063ZM109.6 75.2063C110.483 75.2063 111.2 74.4887 111.2 73.6063C111.2 72.7238 110.483 72.0063 109.6 72.0063C108.717 72.0063 108 72.7238 108 73.6063C108 74.4887 108.717 75.2063 109.6 75.2063ZM110.4 76.0062H108.8C108.36 76.0062 107.962 76.1838 107.672 76.4713C108.68 77.0238 109.395 78.0213 109.55 79.2063H111.2C111.642 79.2063 112 78.8488 112 78.4062V77.6063C112 76.7238 111.283 76.0062 110.4 76.0062ZM104 76.0062C105.548 76.0062 106.8 74.7538 106.8 73.2062C106.8 71.6587 105.548 70.4062 104 70.4062C102.452 70.4062 101.2 71.6587 101.2 73.2062C101.2 74.7538 102.452 76.0062 104 76.0062ZM105.92 76.8063H105.713C105.193 77.0563 104.615 77.2063 104 77.2063C103.385 77.2063 102.81 77.0563 102.287 76.8063H102.08C100.49 76.8063 99.2 78.0963 99.2 79.6863V80.4062C99.2 81.0688 99.7375 81.6062 100.4 81.6062H107.6C108.262 81.6062 108.8 81.0688 108.8 80.4062V79.6863C108.8 78.0963 107.51 76.8063 105.92 76.8063ZM100.328 76.4713C100.038 76.1838 99.64 76.0062 99.2 76.0062H97.6C96.7175 76.0062 96 76.7238 96 77.6063V78.4062C96 78.8488 96.3575 79.2063 96.8 79.2063H98.4475C98.605 78.0213 99.32 77.0238 100.328 76.4713Z" fill="#525463"/>
<path d="M167.993 75.4062C169.651 75.4062 170.993 74.0643 170.993 72.4062C170.993 70.7482 169.651 69.4062 167.993 69.4062C166.335 69.4062 164.993 70.7482 164.993 72.4062C164.993 74.0643 166.335 75.4062 167.993 75.4062ZM170.05 76.2634H169.828C169.271 76.5312 168.652 76.692 167.993 76.692C167.334 76.692 166.718 76.5312 166.158 76.2634H165.936C164.232 76.2634 162.85 77.6455 162.85 79.3491V80.1205C162.85 80.8304 163.426 81.4062 164.136 81.4062H171.85C172.56 81.4062 173.136 80.8304 173.136 80.1205V79.3491C173.136 77.6455 171.754 76.2634 170.05 76.2634Z" fill="#525463"/>
<path d="M120 130.5C120 129.948 119.552 129.5 119 129.5H118.5C117.395 129.5 116.5 130.395 116.5 131.5V133C116.5 134.105 117.395 135 118.5 135H119C119.552 135 120 134.552 120 134V130.5ZM125.5 135C126.605 135 127.5 134.105 127.5 133V131.5C127.5 130.395 126.605 129.5 125.5 129.5H125C124.448 129.5 124 129.948 124 130.5V134C124 134.552 124.448 135 125 135H125.5ZM122 124C117.537 124 114.143 127.713 114 132V132.5C114 132.776 114.224 133 114.5 133H115C115.276 133 115.5 132.776 115.5 132.5V132C115.5 128.416 118.416 125.5 122 125.5C125.584 125.5 128.5 128.416 128.5 132H128.496C128.499 132.076 128.5 137.179 128.5 137.179C128.5 137.908 127.908 138.5 127.179 138.5H124C124 137.672 123.328 137 122.5 137H121.5C120.672 137 120 137.672 120 138.5C120 139.328 120.672 140 121.5 140H127.179C128.737 140 130 138.737 130 137.179V132C129.857 127.713 126.463 124 122 124Z" fill="#B0B0B0"/>
<path d="M166.212 138.573L162.404 134.613C163.384 133.449 163.92 131.985 163.92 130.46C163.92 126.898 161.022 124 157.46 124C153.898 124 151 126.898 151 130.46C151 134.022 153.898 136.92 157.46 136.92C158.797 136.92 160.072 136.517 161.161 135.751L164.998 139.742C165.158 139.908 165.374 140 165.605 140C165.824 140 166.032 139.917 166.189 139.765C166.524 139.443 166.535 138.909 166.212 138.573ZM157.46 125.685C160.093 125.685 162.235 127.827 162.235 130.46C162.235 133.093 160.093 135.235 157.46 135.235C154.827 135.235 152.685 133.093 152.685 130.46C152.685 127.827 154.827 125.685 157.46 125.685Z" fill="#B0B0B0"/>
<path d="M138 30C139.38 30 140.499 28.8809 140.499 27.5H135.501C135.501 28.8809 136.62 30 138 30ZM146.414 24.152C145.659 23.341 144.247 22.1211 144.247 18.125C144.247 15.0898 142.119 12.6602 139.249 12.0641V11.25C139.249 10.5598 138.69 10 138 10C137.31 10 136.751 10.5598 136.751 11.25V12.0641C133.881 12.6602 131.753 15.0898 131.753 18.125C131.753 22.1211 130.341 23.341 129.586 24.152C129.352 24.4039 129.248 24.7051 129.25 25C129.254 25.6406 129.757 26.25 130.504 26.25H145.496C146.243 26.25 146.746 25.6406 146.75 25C146.752 24.7051 146.648 24.4035 146.414 24.152Z" fill="#B0B0B0"/>
<rect x="138" width="20" height="20" rx="3" fill="#E65739"/>
<path d="M145.674 14H144.256V7.15039L142.164 7.86523V6.66406L145.492 5.43945H145.674V14ZM154.375 14H148.639V13.0215L151.48 9.92188C151.891 9.46484 152.182 9.08398 152.354 8.7793C152.529 8.4707 152.617 8.16211 152.617 7.85352C152.617 7.44727 152.502 7.11914 152.271 6.86914C152.045 6.61914 151.738 6.49414 151.352 6.49414C150.891 6.49414 150.533 6.63477 150.279 6.91602C150.025 7.19727 149.898 7.58203 149.898 8.07031H148.475C148.475 7.55078 148.592 7.08398 148.826 6.66992C149.064 6.25195 149.402 5.92773 149.84 5.69727C150.281 5.4668 150.789 5.35156 151.363 5.35156C152.191 5.35156 152.844 5.56055 153.32 5.97852C153.801 6.39258 154.041 6.9668 154.041 7.70117C154.041 8.12695 153.92 8.57422 153.678 9.04297C153.439 9.50781 153.047 10.0371 152.5 10.6309L150.414 12.8633H154.375V14Z" fill="white"/>
<path fill-rule="evenodd" clip-rule="evenodd" d="M194.005 124C193.803 124 193.633 124.086 193.502 124.215L193.501 124.216L185.963 131.754C185.701 132.016 185.657 132.467 185.963 132.745C186.242 133.05 186.692 133.006 186.954 132.744L194.004 125.711L201.038 132.811L201.039 132.812C201.17 132.944 201.348 133.004 201.543 133.004C201.73 133.004 201.894 132.938 202.027 132.829L202.037 132.821L202.046 132.812C202.308 132.55 202.327 132.088 202.047 131.804L198.481 128.223V125.835C198.481 125.431 198.152 125.125 197.761 125.125C197.375 125.125 197.067 125.443 197.067 125.835V126.806L194.493 124.217C194.363 124.086 194.193 124 194.005 124ZM199.371 131.83C198.973 131.83 198.66 132.142 198.66 132.541V138.595H195.89V136.271C195.89 135.898 195.583 135.568 195.196 135.568H192.831C192.438 135.568 192.112 135.886 192.112 136.271V138.595H189.35V132.751C189.35 132.364 189.032 132.055 188.639 132.055C188.257 132.055 187.944 132.37 187.944 132.751V139.306C187.944 139.687 188.257 140.002 188.639 140.002H192.831C193.213 140.002 193.526 139.687 193.526 139.306V136.982H194.484V139.306C194.484 139.693 194.803 140.002 195.196 140.002H199.371C199.753 140.002 200.065 139.687 200.065 139.306V132.541C200.065 132.148 199.758 131.83 199.371 131.83Z" fill="#B0B0B0"/>
<path d="M229.995 124C224.945 124 220.852 127.325 220.852 131.429C220.852 133.129 221.563 134.686 222.742 135.939C222.209 137.346 221.102 138.539 221.084 138.554C220.849 138.804 220.784 139.168 220.92 139.482C221.056 139.796 221.367 140 221.709 140C223.906 140 225.638 139.082 226.677 138.346C227.709 138.671 228.824 138.857 229.995 138.857C235.045 138.857 239.138 135.532 239.138 131.429C239.138 127.325 235.045 124 229.995 124ZM229.995 137.143C229.042 137.143 228.099 136.996 227.195 136.711L226.384 136.454L225.688 136.946C225.177 137.307 224.477 137.711 223.634 137.982C223.895 137.55 224.149 137.064 224.345 136.546L224.724 135.543L223.988 134.764C223.342 134.075 222.567 132.936 222.567 131.429C222.567 128.279 225.899 125.714 229.995 125.714C234.092 125.714 237.424 128.279 237.424 131.429C237.424 134.579 234.092 137.143 229.995 137.143Z" fill="#B0B0B0"/>
<path fill-rule="evenodd" clip-rule="evenodd" d="M275.132 134.275L275.14 136.381C275.14 136.795 274.99 137.152 274.691 137.451C274.392 137.751 274.035 137.9 273.621 137.9L258.388 137.909C257.974 137.909 257.617 137.759 257.318 137.46C257.018 137.16 256.869 136.804 256.869 136.39L256.869 134.274C257.495 134.274 258.032 134.051 258.48 133.603C258.928 133.155 259.151 132.618 259.151 131.992C259.152 131.365 258.928 130.828 258.48 130.38C258.032 129.933 257.495 129.709 256.869 129.709L256.877 127.602C256.877 127.188 257.027 126.831 257.326 126.532C257.625 126.233 257.982 126.083 258.396 126.083L273.613 126.091C274.027 126.092 274.383 126.241 274.683 126.54C274.982 126.84 275.131 127.196 275.132 127.611L275.132 129.709C274.505 129.709 273.968 129.933 273.52 130.38C273.073 130.828 272.849 131.365 272.849 131.992C272.849 132.618 273.072 133.155 273.52 133.603C273.968 134.051 274.505 134.275 275.132 134.275ZM260.813 135.785L271.187 135.785C271.4 135.785 271.579 135.713 271.724 135.567C271.87 135.422 271.942 135.243 271.942 135.03L271.942 128.954C271.942 128.752 271.867 128.576 271.716 128.425C271.565 128.274 271.388 128.198 271.187 128.198L260.813 128.198C260.601 128.198 260.421 128.271 260.276 128.416C260.131 128.562 260.058 128.741 260.058 128.954L260.058 135.03C260.058 135.232 260.134 135.408 260.285 135.559C260.436 135.71 260.612 135.785 260.813 135.785ZM269.801 130.34L269.801 133.644L262.2 133.644V130.34L269.801 130.34ZM269.801 129.34C270.353 129.34 270.801 129.788 270.801 130.34L270.801 133.644C270.801 134.197 270.353 134.644 269.801 134.644H262.2C261.648 134.644 261.2 134.197 261.2 133.644L261.2 130.34C261.2 129.788 261.648 129.34 262.2 129.34L269.801 129.34Z" fill="#B0B0B0"/>
<path fill-rule="evenodd" clip-rule="evenodd" d="M301.083 126H299.64C298.29 126 297.094 126.791 296.593 128.017L296.105 129.208H294.352C294.123 129.208 293.955 129.419 294.011 129.635L294.187 130.323C294.225 130.476 294.366 130.583 294.528 130.583H295.116C294.722 130.919 294.469 131.408 294.469 131.958V133.333C294.469 133.795 294.649 134.212 294.937 134.534V136.083C294.937 136.59 295.357 137 295.875 137H296.812C297.33 137 297.75 136.59 297.75 136.083V135.167H305.25V136.083C305.25 136.59 305.67 137 306.187 137H307.125C307.643 137 308.062 136.59 308.062 136.083V134.534C308.351 134.212 308.531 133.795 308.531 133.333V132.803C308.042 132.931 307.529 133 307 133C304.831 133 302.931 131.849 301.877 130.125H297.75L298.334 128.698C298.547 128.176 299.064 127.833 299.64 127.833H301.057C301.02 127.561 301 127.283 301 127C301 126.659 301.028 126.325 301.083 126ZM295.875 132.414C295.875 133.328 296.928 133.328 296.928 133.328C296.928 133.328 298.688 133.423 298.688 132.875C298.688 132.327 297.49 131.5 296.928 131.5C296.365 131.5 295.875 131.5 295.875 132.414Z" fill="#B0B0B0"/>
<path d="M313.819 132.93L310.963 129.96C311.698 129.087 312.1 127.988 312.1 126.845C312.1 124.174 309.927 122 307.255 122C304.584 122 302.41 124.174 302.41 126.845C302.41 129.516 304.584 131.69 307.255 131.69C308.258 131.69 309.214 131.387 310.031 130.813L312.909 133.806C313.029 133.931 313.191 134 313.364 134C313.528 134 313.684 133.937 313.802 133.824C314.053 133.582 314.061 133.181 313.819 132.93ZM307.255 123.264C309.23 123.264 310.836 124.87 310.836 126.845C310.836 128.82 309.23 130.426 307.255 130.426C305.281 130.426 303.674 128.82 303.674 126.845C303.674 124.87 305.281 123.264 307.255 123.264Z" fill="#B0B0B0"/>
<path d="M338 131C339.612 131 340.917 129.658 340.917 128C340.917 126.342 339.612 125 338 125C336.388 125 335.083 126.342 335.083 128C335.083 129.658 336.388 131 338 131ZM340 131.857H339.784C339.242 132.125 338.641 132.286 338 132.286C337.359 132.286 336.76 132.125 336.216 131.857H336C334.344 131.857 333 133.239 333 134.943V135.714C333 136.424 333.56 137 334.25 137H341.75C342.44 137 343 136.424 343 135.714V134.943C343 133.239 341.656 131.857 340 131.857Z" fill="#B0B0B0"/>
<path d="M347.277 125.574C347.277 125.844 347.058 126.064 346.787 126.064C346.517 126.064 346.297 125.844 346.297 125.574C346.297 125.303 346.517 125.084 346.787 125.084C347.058 125.084 347.277 125.303 347.277 125.574Z" fill="#B0B0B0"/>
<path d="M346.787 120.361C345.792 120.361 344.986 121.166 344.986 122.162V122.163C344.986 122.434 345.205 122.653 345.475 122.653C345.746 122.653 345.965 122.433 345.965 122.162C345.965 121.71 346.332 121.341 346.787 121.341C347.241 121.341 347.609 121.71 347.609 122.163C347.609 122.616 347.241 122.985 346.787 122.985C346.517 122.985 346.297 123.204 346.297 123.475V124C346.297 124.27 346.517 124.489 346.787 124.489C347.058 124.489 347.277 124.27 347.277 124V123.897C348.033 123.683 348.589 122.987 348.589 122.163C348.589 121.17 347.781 120.361 346.787 120.361Z" fill="#B0B0B0"/>
<path d="M349.936 118H343.639C342.499 118 341.575 118.922 341.575 120.064V129.509C341.575 129.91 342.034 130.144 342.359 129.901L344.327 128.425H349.936C351.076 128.425 352 127.503 352 126.361V120.064C352 118.924 351.078 118 349.936 118V118ZM351.02 126.361C351.02 126.96 350.536 127.445 349.936 127.445H344.164C344.058 127.445 343.955 127.48 343.87 127.543L342.555 128.53V120.064C342.555 119.465 343.039 118.98 343.639 118.98H349.936C350.535 118.98 351.02 119.464 351.02 120.064V126.361Z" fill="#B0B0B0"/>
<path d="M381.311 131.557L382.29 130.577C382.443 130.424 382.709 130.531 382.709 130.752V135.201C382.709 136.012 382.051 136.67 381.24 136.67H370.469C369.658 136.67 369 136.012 369 135.201V124.43C369 123.619 369.658 122.961 370.469 122.961H378.838C379.055 122.961 379.166 123.224 379.013 123.38L378.033 124.359C377.988 124.405 377.926 124.43 377.859 124.43H370.469V135.201H381.24V131.728C381.24 131.664 381.265 131.602 381.311 131.557ZM386.103 125.381L378.067 133.417L375.301 133.723C374.499 133.812 373.817 133.136 373.905 132.328L374.211 129.561L382.247 121.526C382.948 120.825 384.08 120.825 384.778 121.526L386.1 122.848C386.801 123.548 386.801 124.684 386.103 125.381ZM383.08 126.327L381.302 124.549L375.616 130.238L375.393 132.236L377.391 132.013L383.08 126.327ZM385.062 123.888L383.74 122.566C383.615 122.441 383.41 122.441 383.288 122.566L382.342 123.512L384.12 125.289L385.066 124.344C385.188 124.215 385.188 124.013 385.062 123.888Z" fill="#B0B0B0"/>
<path d="M241.437 70H230.563C230.064 70 229.812 70.6062 230.166 70.9603L234.5 75.2955V80.125C234.5 80.3085 234.59 80.4805 234.74 80.5858L236.615 81.8979C236.985 82.1568 237.5 81.8944 237.5 81.437V75.2955L241.835 70.9603C242.188 70.6069 241.938 70 241.437 70Z" fill="#525463"/>
<path d="M79 127.8V127.4C79 127.069 79.2938 126.8 79.6562 126.8H89.5V125.601C89.5 125.066 90.2082 124.8 90.6203 125.176L92.8078 127.176C93.0641 127.41 93.0641 127.79 92.8078 128.025L90.6203 130.024C90.2097 130.4 89.5 130.136 89.5 129.6V128.4H79.6562C79.2938 128.4 79 128.132 79 127.8ZM92.3438 131.6H82.5V130.4C82.5 129.867 81.7928 129.598 81.3797 129.976L79.1922 131.976C78.9359 132.21 78.9359 132.59 79.1922 132.824L81.3797 134.824C81.7906 135.199 82.5 134.935 82.5 134.4V133.2H92.3438C92.7062 133.2 93 132.931 93 132.6V132.2C93 131.868 92.7062 131.6 92.3438 131.6Z" fill="#B0B0B0"/>
<path d="M57.6246 127.5H55.7536L55.2336 126.2C54.6993 124.863 53.424 124 51.9843 124H48.0155C46.5761 124 45.3005 124.863 44.7658 126.2L44.2458 127.5H42.3752C42.1311 127.5 41.9521 127.729 42.0114 127.966L42.1989 128.716C42.2405 128.883 42.3905 129 42.5627 129H43.1899C42.7702 129.367 42.4999 129.899 42.4999 130.5V132C42.4999 132.504 42.6924 132.958 42.9999 133.31V135C42.9999 135.552 43.4477 136 43.9999 136H44.9999C45.5521 136 45.9999 135.552 45.9999 135V134H53.9999V135C53.9999 135.552 54.4477 136 54.9999 136H55.9999C56.5521 136 56.9999 135.552 56.9999 135V133.31C57.3074 132.959 57.4999 132.504 57.4999 132V130.5C57.4999 129.899 57.2296 129.367 56.8102 129H57.4374C57.6096 129 57.7596 128.883 57.8011 128.716L57.9886 127.966C58.0477 127.729 57.8686 127.5 57.6246 127.5ZM46.6227 126.943C46.8505 126.373 47.4021 126 48.0155 126H51.9843C52.5977 126 53.1493 126.373 53.3771 126.943L53.9999 128.5H45.9999L46.6227 126.943ZM45.1227 131.994C45.1227 131.994 43.9999 131.994 43.9999 130.997C43.9999 130 44.5227 130 45.1227 130C45.7227 130 47 130.902 47 131.5C47 132.098 45.1227 131.994 45.1227 131.994ZM54.8773 131.994C54.8773 131.994 53 132.098 53 131.5C53 130.902 54.2773 130 54.8773 130C55.6406 130 56 130 55.9999 130.997C56 132 54.8773 131.994 54.8773 131.994Z" fill="#B0B0B0"/>
<path d="M19.7143 129.071H13.9286V123.286C13.9286 122.576 13.3528 122 12.6429 122H11.3571C10.6472 122 10.0714 122.576 10.0714 123.286V129.071H4.28571C3.57576 129.071 3 129.647 3 130.357V131.643C3 132.353 3.57576 132.929 4.28571 132.929H10.0714V138.714C10.0714 139.424 10.6472 140 11.3571 140H12.6429C13.3528 140 13.9286 139.424 13.9286 138.714V132.929H19.7143C20.4242 132.929 21 132.353 21 131.643V130.357C21 129.647 20.4242 129.071 19.7143 129.071Z" fill="#B0B0B0"/>
<path d="M276.348 207C276.141 207 275.933 206.921 275.775 206.762C275.458 206.445 275.458 205.933 275.775 205.616L281.391 200L275.775 194.384C275.458 194.067 275.458 193.554 275.775 193.238C276.092 192.921 276.605 192.921 276.921 193.238L283.11 199.427C283.427 199.743 283.427 200.256 283.11 200.573L276.921 206.762C276.763 206.921 276.556 207 276.348 207Z" fill="#4BAF4F"/>
<g clip-path="url(#clip1)">
<path d="M187.183 193.272L183.001 197.454L178.819 193.272C178.317 192.77 177.502 192.77 177 193.272L176.273 194C175.771 194.502 175.771 195.316 176.273 195.818L180.455 200L176.273 204.182C175.771 204.684 175.771 205.498 176.273 206L177 206.728C177.502 207.23 178.317 207.23 178.819 206.728L183.001 202.546L187.183 206.728C187.685 207.23 188.499 207.23 189.001 206.728L189.728 206C190.23 205.498 190.23 204.684 189.728 204.182L185.546 200L189.728 195.818C190.23 195.316 190.23 194.502 189.728 194L189.001 193.272C188.499 192.77 187.685 192.77 187.183 193.272Z" fill="white"/>
</g>
<path d="M154 191.281C149.184 191.281 145.281 195.184 145.281 200C145.281 204.816 149.184 208.719 154 208.719C158.816 208.719 162.719 204.816 162.719 200C162.719 195.184 158.816 191.281 154 191.281ZM154 207.031C150.115 207.031 146.969 203.885 146.969 200C146.969 196.115 150.115 192.969 154 192.969C157.885 192.969 161.031 196.115 161.031 200C161.031 203.885 157.885 207.031 154 207.031ZM156.173 203.361L153.188 201.192C153.079 201.111 153.016 200.984 153.016 200.851V195.078C153.016 194.846 153.205 194.656 153.438 194.656H154.562C154.795 194.656 154.984 194.846 154.984 195.078V200.06L157.333 201.768C157.523 201.905 157.561 202.169 157.424 202.359L156.763 203.27C156.626 203.456 156.362 203.498 156.173 203.361Z" fill="white"/>
<path d="M118.208 200.692C118.069 200.554 118 200.346 118 200.208C118 200.069 118.069 199.862 118.208 199.723L119.177 198.754C119.454 198.477 119.869 198.477 120.146 198.754L120.215 198.823L124.023 202.908C124.162 203.046 124.369 203.046 124.508 202.908L133.785 193.285H133.854C134.131 193.008 134.546 193.008 134.823 193.285L135.792 194.254C136.069 194.531 136.069 194.946 135.792 195.223L124.715 206.715C124.577 206.854 124.438 206.923 124.231 206.923C124.023 206.923 123.885 206.854 123.746 206.715L118.346 200.9L118.208 200.692Z" fill="white"/>
<path d="M212.647 199.093L213.001 199.447L213.354 199.093L215.424 197.023C215.478 196.97 215.564 196.97 215.617 197.023L215.977 197.383C216.031 197.437 216.031 197.523 215.977 197.576L213.907 199.646L213.554 200L213.907 200.354L215.977 202.424C216.031 202.477 216.031 202.563 215.977 202.617L215.617 202.977C215.564 203.03 215.478 203.03 215.424 202.977L213.354 200.907L213.001 200.553L212.647 200.907L210.577 202.977C210.524 203.03 210.437 203.03 210.384 202.977L210.024 202.617C209.971 202.563 209.971 202.477 210.024 202.424L212.094 200.354L212.448 200L212.094 199.646L210.024 197.576C209.971 197.523 209.971 197.437 210.024 197.383L210.384 197.023C210.437 196.97 210.524 196.97 210.577 197.023L212.647 199.093Z" stroke="#338EFE"/>
<circle cx="213" cy="200" r="9" stroke="#338EFE" stroke-width="2"/>
<g clip-path="url(#clip2)">
<path d="M248 204.5C245.63 204.5 243.711 202.665 243.535 200.34L240.256 197.807C239.825 198.347 239.429 198.919 239.109 199.544C239.037 199.685 239 199.842 239 200C239 200.159 239.037 200.315 239.109 200.456C240.804 203.763 244.159 206 248 206C248.841 206 249.652 205.875 250.434 205.673L248.813 204.418C248.545 204.47 248.273 204.497 248 204.5ZM257.807 206.316L254.352 203.646C255.402 202.761 256.265 201.677 256.891 200.456C256.963 200.314 257 200.158 257 200C257 199.841 256.963 199.685 256.891 199.544C255.197 196.237 251.842 194 248 194C246.391 194.002 244.808 194.407 243.396 195.178L239.421 192.105C239.369 192.065 239.31 192.035 239.246 192.018C239.183 192 239.117 191.996 239.052 192.004C238.986 192.012 238.924 192.033 238.866 192.065C238.809 192.098 238.759 192.141 238.719 192.193L238.105 192.983C238.024 193.087 237.988 193.22 238.004 193.352C238.021 193.483 238.089 193.603 238.193 193.684L256.58 207.895C256.631 207.935 256.691 207.965 256.754 207.982C256.817 208 256.884 208.004 256.949 207.996C257.014 207.988 257.077 207.967 257.134 207.935C257.191 207.902 257.241 207.859 257.281 207.807L257.895 207.017C257.977 206.912 258.013 206.78 257.996 206.648C257.98 206.517 257.912 206.397 257.807 206.316ZM252.066 201.878L250.838 200.929C250.941 200.63 250.996 200.316 251 200C251.006 199.537 250.904 199.079 250.701 198.663C250.498 198.246 250.2 197.884 249.831 197.603C249.462 197.323 249.033 197.133 248.578 197.049C248.123 196.965 247.654 196.989 247.209 197.118C247.398 197.374 247.5 197.683 247.5 198C247.496 198.106 247.479 198.21 247.452 198.312L245.152 196.535C245.951 195.867 246.959 195.501 248 195.5C248.591 195.5 249.177 195.616 249.723 195.842C250.269 196.068 250.765 196.399 251.183 196.817C251.601 197.235 251.932 197.731 252.158 198.277C252.384 198.824 252.501 199.409 252.5 200C252.5 200.676 252.335 201.306 252.066 201.878V201.878Z" fill="#338EFE"/>
</g>
<path fill-rule="evenodd" clip-rule="evenodd" d="M13.7526 270.065C15.551 270.446 17.1887 271.41 18.4081 272.818C19.7571 274.375 20.5 276.372 20.5 278.441C20.5 283.161 16.6869 287 12 287C7.31308 287 3.5 283.161 3.5 278.441C3.5 276.389 4.23223 274.405 5.56186 272.853C6.78284 271.428 8.4339 270.449 10.2474 270.065V269.565C10.2474 269.253 10.4985 269 10.8082 269H13.1918C13.5015 269 13.7526 269.253 13.7526 269.565V270.065ZM12.4381 270.324H11.5619V272.971H12.4381V270.324ZM4.81443 278.441C4.81443 282.431 8.03786 285.676 12 285.676C15.9621 285.676 19.1856 282.431 19.1856 278.441C19.1856 276.692 18.5577 275.004 17.4175 273.688C16.4478 272.568 15.1657 271.78 13.7526 271.423V273.729C13.7526 274.041 13.5015 274.294 13.1918 274.294H10.8082C10.4985 274.294 10.2474 274.041 10.2474 273.729V271.423C8.82148 271.783 7.52861 272.583 6.55702 273.717C5.43331 275.029 4.81443 276.707 4.81443 278.441ZM7.87679 276.579H8.70751L10.0956 280.338H9.01246L8.78638 279.602H7.79266L7.57184 280.338H6.48349L7.87679 276.579ZM8.29219 277.654L7.94518 278.914H8.62343L8.29219 277.654ZM13.003 276.579L10.2953 280.338H11.3942L14.1072 276.579H13.003ZM16.5495 279.208C16.5969 279.15 16.6345 279.078 16.6626 278.994L17.4986 279.496C17.446 279.634 17.3662 279.758 17.2593 279.867C17.1523 279.977 17.0306 280.068 16.8939 280.142C16.7572 280.216 16.6117 280.273 16.4575 280.312C16.3033 280.351 16.1526 280.37 16.0054 280.37C15.7459 280.37 15.5076 280.314 15.2903 280.203C15.0729 280.092 14.8863 279.945 14.7304 279.761C14.5743 279.578 14.4525 279.369 14.365 279.136C14.2773 278.904 14.2335 278.667 14.2335 278.427C14.2335 278.198 14.2738 277.972 14.3545 277.749C14.4351 277.527 14.5534 277.328 14.7094 277.151C14.8653 276.975 15.0546 276.832 15.2772 276.722C15.4997 276.613 15.7531 276.558 16.037 276.558C16.3699 276.558 16.6608 276.633 16.9097 276.783C17.1586 276.933 17.3426 277.132 17.4618 277.379L16.6784 277.94C16.6469 277.848 16.6056 277.772 16.5549 277.712C16.504 277.652 16.4488 277.605 16.3893 277.569C16.3296 277.534 16.2666 277.509 16.2 277.495C16.1334 277.481 16.072 277.474 16.016 277.474C15.8863 277.474 15.7749 277.503 15.6821 277.561C15.5892 277.62 15.5121 277.696 15.4508 277.789C15.3894 277.883 15.3447 277.989 15.3166 278.107C15.2885 278.225 15.2745 278.342 15.2745 278.459C15.2745 278.589 15.2911 278.715 15.3245 278.835C15.3577 278.955 15.4068 279.061 15.4717 279.152C15.5365 279.244 15.6154 279.317 15.7083 279.372C15.8011 279.427 15.9072 279.454 16.0264 279.454C16.0859 279.454 16.1473 279.446 16.2104 279.43C16.2735 279.414 16.334 279.388 16.3918 279.351C16.4496 279.314 16.5022 279.266 16.5495 279.208Z" fill="#B0B0B0"/>
<path fill-rule="evenodd" clip-rule="evenodd" d="M3.18937 285.008C2.98053 285.192 2.93789 285.478 3.09418 285.646L3.31352 285.882C3.46982 286.05 3.76616 286.037 3.975 285.853L20.8106 270.992C21.0195 270.808 21.0621 270.522 20.9058 270.354L20.6865 270.118C20.5302 269.95 20.2338 269.963 20.025 270.147L3.18937 285.008Z" fill="#E65739"/>
<path fill-rule="evenodd" clip-rule="evenodd" d="M49.7526 270.065C51.551 270.446 53.1887 271.41 54.4081 272.818C55.7571 274.375 56.5 276.372 56.5 278.441C56.5 283.161 52.6869 287 48 287C43.3131 287 39.5 283.161 39.5 278.441C39.5 276.389 40.2322 274.405 41.5619 272.853C42.7828 271.428 44.4339 270.449 46.2474 270.065V269.565C46.2474 269.253 46.4985 269 46.8082 269H49.1918C49.5015 269 49.7526 269.253 49.7526 269.565V270.065ZM48.4381 270.324H47.5619V272.971H48.4381V270.324ZM40.8144 278.441C40.8144 282.431 44.0379 285.676 48 285.676C51.9621 285.676 55.1856 282.431 55.1856 278.441C55.1856 276.692 54.5577 275.004 53.4175 273.688C52.4478 272.568 51.1657 271.78 49.7526 271.423V273.729C49.7526 274.041 49.5015 274.294 49.1918 274.294H46.8082C46.4985 274.294 46.2474 274.041 46.2474 273.729V271.423C44.8215 271.783 43.5286 272.583 42.557 273.717C41.4333 275.029 40.8144 276.707 40.8144 278.441ZM43.8768 276.579H44.7075L46.0956 280.338H45.0125L44.7864 279.602H43.7927L43.5718 280.338H42.4835L43.8768 276.579ZM44.2922 277.654L43.9452 278.914H44.6234L44.2922 277.654ZM49.003 276.579L46.2953 280.338H47.3942L50.1072 276.579H49.003ZM52.5495 279.208C52.5969 279.15 52.6345 279.078 52.6626 278.994L53.4986 279.496C53.446 279.634 53.3662 279.758 53.2593 279.867C53.1523 279.977 53.0306 280.068 52.8939 280.142C52.7572 280.216 52.6117 280.273 52.4575 280.312C52.3033 280.351 52.1526 280.37 52.0054 280.37C51.7459 280.37 51.5076 280.314 51.2903 280.203C51.0729 280.092 50.8863 279.945 50.7304 279.761C50.5743 279.578 50.4525 279.369 50.365 279.136C50.2773 278.904 50.2335 278.667 50.2335 278.427C50.2335 278.198 50.2738 277.972 50.3545 277.749C50.4351 277.527 50.5534 277.328 50.7094 277.151C50.8653 276.975 51.0546 276.832 51.2772 276.722C51.4997 276.613 51.7531 276.558 52.037 276.558C52.3699 276.558 52.6608 276.633 52.9097 276.783C53.1586 276.933 53.3426 277.132 53.4618 277.379L52.6784 277.94C52.6469 277.848 52.6056 277.772 52.5549 277.712C52.504 277.652 52.4488 277.605 52.3893 277.569C52.3296 277.534 52.2666 277.509 52.2 277.495C52.1334 277.481 52.072 277.474 52.016 277.474C51.8863 277.474 51.7749 277.503 51.6821 277.561C51.5892 277.62 51.5121 277.696 51.4508 277.789C51.3894 277.883 51.3447 277.989 51.3166 278.107C51.2885 278.225 51.2745 278.342 51.2745 278.459C51.2745 278.589 51.2911 278.715 51.3245 278.835C51.3577 278.955 51.4068 279.061 51.4717 279.152C51.5365 279.244 51.6154 279.317 51.7083 279.372C51.8011 279.427 51.9072 279.454 52.0264 279.454C52.0859 279.454 52.1473 279.446 52.2104 279.43C52.2735 279.414 52.334 279.388 52.3918 279.351C52.4496 279.314 52.5022 279.266 52.5495 279.208Z" fill="#525463"/>
<path d="M18.4337 243.524V240.453C18.4337 240.309 18.3633 240.172 18.2493 240.088C18.132 240.004 17.9811 239.977 17.8436 240.021L8.69389 242.928C8.50613 242.988 8.37873 243.162 8.37873 243.36V246.435V246.438V252.315C7.89928 251.983 7.28572 251.802 6.64199 251.802C5.96137 251.802 5.31429 252.007 4.82143 252.376C4.29169 252.775 4 253.314 4 253.901C4 254.488 4.29169 255.028 4.82143 255.427C5.31429 255.795 5.95802 256 6.64199 256C7.32595 256 7.96969 255.795 8.46255 255.427C8.99229 255.028 9.28398 254.488 9.28398 253.901V246.766L17.5285 244.145V249.395C17.049 249.063 16.4355 248.882 15.7917 248.882C15.1111 248.882 14.464 249.087 13.9712 249.455C13.4414 249.854 13.1497 250.394 13.1497 250.981C13.1497 251.568 13.4414 252.107 13.9712 252.506C14.464 252.875 15.1078 253.08 15.7917 253.08C16.4757 253.08 17.1194 252.875 17.6123 252.506C18.142 252.107 18.4337 251.568 18.4337 250.981V243.528C18.4337 243.524 18.4337 243.524 18.4337 243.524ZM6.64199 255.095C5.69986 255.095 4.90525 254.548 4.90525 253.901C4.90525 253.254 5.69986 252.708 6.64199 252.708C7.58412 252.708 8.37873 253.254 8.37873 253.901C8.37873 254.552 7.58412 255.095 6.64199 255.095ZM9.28398 245.814V243.689L17.5285 241.07V243.196L9.28398 245.814ZM15.7951 252.174C14.8529 252.174 14.0583 251.628 14.0583 250.981C14.0583 250.334 14.8529 249.787 15.7951 249.787C16.7372 249.787 17.5318 250.334 17.5318 250.981C17.5285 251.628 16.7338 252.174 15.7951 252.174Z" fill="#B0B0B0"/>
<path d="M15.7951 252.174C14.8529 252.174 14.0583 251.628 14.0583 250.981C14.0583 250.334 14.8529 249.787 15.7951 249.787C16.7372 249.787 17.5318 250.334 17.5318 250.981C17.5285 251.628 16.7338 252.174 15.7951 252.174Z" fill="#B0B0B0"/>
<path d="M6.64199 255.095C5.69986 255.095 4.90525 254.548 4.90525 253.901C4.90525 253.254 5.69986 252.708 6.64199 252.708C7.58412 252.708 8.37873 253.254 8.37873 253.901C8.37873 254.552 7.58412 255.095 6.64199 255.095Z" fill="#B0B0B0"/>
<path fill-rule="evenodd" clip-rule="evenodd" d="M3.18937 255.008C2.98053 255.192 2.93789 255.478 3.09418 255.646L3.31352 255.882C3.46982 256.05 3.76616 256.037 3.975 255.853L20.8106 240.992C21.0195 240.808 21.0621 240.522 20.9058 240.354L20.6865 240.118C20.5302 239.95 20.2338 239.963 20.025 240.147L3.18937 255.008Z" fill="#E65739"/>
<path d="M54.4337 243.524V240.453C54.4337 240.309 54.3633 240.172 54.2493 240.088C54.132 240.004 53.9811 239.977 53.8436 240.021L44.6939 242.928C44.5061 242.988 44.3787 243.162 44.3787 243.36V246.435V246.438V252.315C43.8993 251.983 43.2857 251.802 42.642 251.802C41.9614 251.802 41.3143 252.007 40.8214 252.376C40.2917 252.775 40 253.314 40 253.901C40 254.488 40.2917 255.028 40.8214 255.427C41.3143 255.795 41.958 256 42.642 256C43.326 256 43.9697 255.795 44.4625 255.427C44.9923 255.028 45.284 254.488 45.284 253.901V246.766L53.5285 244.145V249.395C53.049 249.063 52.4355 248.882 51.7917 248.882C51.1111 248.882 50.464 249.087 49.9712 249.455C49.4414 249.854 49.1497 250.394 49.1497 250.981C49.1497 251.568 49.4414 252.107 49.9712 252.506C50.464 252.875 51.1078 253.08 51.7917 253.08C52.4757 253.08 53.1194 252.875 53.6123 252.506C54.142 252.107 54.4337 251.568 54.4337 250.981V243.528C54.4337 243.524 54.4337 243.524 54.4337 243.524ZM42.642 255.095C41.6999 255.095 40.9052 254.548 40.9052 253.901C40.9052 253.254 41.6999 252.708 42.642 252.708C43.5841 252.708 44.3787 253.254 44.3787 253.901C44.3787 254.552 43.5841 255.095 42.642 255.095ZM45.284 245.814V243.689L53.5285 241.07V243.196L45.284 245.814ZM51.7951 252.174C50.8529 252.174 50.0583 251.628 50.0583 250.981C50.0583 250.334 50.8529 249.787 51.7951 249.787C52.7372 249.787 53.5318 250.334 53.5318 250.981C53.5285 251.628 52.7338 252.174 51.7951 252.174Z" fill="#525463"/>
<path d="M51.7951 252.174C50.8529 252.174 50.0583 251.628 50.0583 250.981C50.0583 250.334 50.8529 249.787 51.7951 249.787C52.7372 249.787 53.5318 250.334 53.5318 250.981C53.5285 251.628 52.7338 252.174 51.7951 252.174Z" fill="#525463"/>
<path d="M42.642 255.095C41.6999 255.095 40.9052 254.548 40.9052 253.901C40.9052 253.254 41.6999 252.708 42.642 252.708C43.5841 252.708 44.3787 253.254 44.3787 253.901C44.3787 254.552 43.5841 255.095 42.642 255.095Z" fill="#525463"/>
<path fill-rule="evenodd" clip-rule="evenodd" d="M12.6616 212.013C12.6616 213.674 11.4755 215.025 10.0176 215.025C8.55989 215.025 7.37392 213.674 7.37392 212.013C7.37392 210.352 8.55989 209 10.0176 209C11.4755 209 12.6616 210.352 12.6616 212.013ZM11.6065 212.013C11.6065 210.933 10.8937 210.055 10.0176 210.055C9.14161 210.055 8.42901 210.933 8.42901 212.013C8.42901 213.092 9.14161 213.97 10.0176 213.97C10.8937 213.97 11.6065 213.092 11.6065 212.013ZM6.23068 217.411C6.8113 217.188 7.2524 216.72 7.47282 216.093C7.68238 215.497 7.66521 214.824 7.4242 214.197C7.18305 213.572 6.74442 213.061 6.1892 212.759C5.60569 212.442 4.96478 212.39 4.38511 212.614C3.21892 213.062 2.68375 214.503 3.19228 215.827C3.59849 216.88 4.54593 217.545 5.50379 217.545C5.74838 217.545 5.99365 217.502 6.23068 217.411ZM4.17692 215.448C3.87727 214.668 4.14053 213.838 4.76414 213.598C4.87675 213.555 4.99582 213.533 5.11735 213.533C5.30494 213.533 5.49871 213.584 5.68521 213.686C6.02056 213.868 6.28849 214.185 6.43955 214.577C6.59048 214.969 6.60394 215.383 6.47732 215.743C6.36128 216.073 6.13922 216.316 5.8522 216.426L5.85165 216.426C5.22886 216.666 4.47754 216.227 4.17692 215.448ZM15.0369 217.415C14.2269 216.151 12.8474 215.397 11.3467 215.397C9.84612 215.397 8.46651 216.151 7.65669 217.415L5.70497 220.459C5.38115 220.965 5.23173 221.548 5.27279 222.147C5.31386 222.746 5.54168 223.303 5.93156 223.759C6.32171 224.216 6.83724 224.527 7.4224 224.661C8.00756 224.795 8.60741 224.738 9.157 224.496L9.19285 224.48C10.5759 223.884 12.1567 223.889 13.5363 224.496C13.8921 224.653 14.2691 224.732 14.6495 224.732C14.8563 224.732 15.0643 224.708 15.2705 224.661C15.8556 224.528 16.3712 224.216 16.7615 223.76C17.1515 223.303 17.3794 222.746 17.4206 222.147C17.4618 221.548 17.3124 220.965 16.9886 220.459L15.0369 217.415ZM15.9596 223.074C15.4631 223.654 14.66 223.838 13.961 223.53C13.1302 223.165 12.2384 222.982 11.3463 222.982C10.455 222.982 9.56336 223.165 8.73307 223.53L8.70945 223.54C8.0158 223.834 7.22451 223.648 6.73356 223.074C6.23767 222.493 6.18122 221.672 6.59321 221.029L8.54507 217.984C9.16003 217.025 10.2073 216.452 11.3467 216.452C12.4861 216.452 13.5335 217.025 14.1486 217.984L16.1002 221.029C16.5123 221.672 16.4558 222.494 15.9596 223.074ZM14.5838 215.765H14.5839C14.8082 215.84 15.037 215.875 15.2648 215.875C16.328 215.875 17.3642 215.102 17.7595 213.912C17.9872 213.228 17.9723 212.504 17.7174 211.874C17.4507 211.215 16.9564 210.737 16.3256 210.527C15.6947 210.317 15.012 210.405 14.4038 210.773C13.8227 211.125 13.3775 211.696 13.1502 212.38C12.6703 213.824 13.3134 215.343 14.5838 215.765ZM14.1515 212.713C14.3 212.266 14.5837 211.898 14.9505 211.675C15.2898 211.47 15.6601 211.418 15.9928 211.528C16.3254 211.639 16.5905 211.902 16.7393 212.27C16.9001 212.667 16.907 213.132 16.7583 213.579C16.4618 214.471 15.6356 215.003 14.9167 214.764C14.1983 214.525 13.855 213.605 14.1515 212.713ZM20.1514 215.413L20.1518 215.414C21.1559 216.157 21.2874 217.689 20.4452 218.828C19.9086 219.552 19.1058 219.946 18.3342 219.946C17.8914 219.946 17.4588 219.817 17.0927 219.545C16.0888 218.802 15.9571 217.271 16.7994 216.131C17.6424 214.993 19.146 214.671 20.1514 215.413ZM17.7206 218.697C18.2577 219.095 19.0994 218.872 19.5972 218.2C20.0932 217.529 20.0607 216.66 19.5244 216.262C19.3437 216.128 19.1286 216.065 18.9039 216.065C18.4597 216.065 17.9776 216.313 17.6476 216.759C17.1512 217.43 17.1839 218.3 17.7206 218.697Z" fill="#B0B0B0"/>
<path fill-rule="evenodd" clip-rule="evenodd" d="M3.18937 225.008C2.98053 225.192 2.93789 225.478 3.09418 225.646L3.31352 225.882C3.46982 226.05 3.76616 226.037 3.975 225.853L20.8106 210.992C21.0195 210.808 21.0621 210.522 20.9058 210.354L20.6865 210.118C20.5302 209.95 20.2338 209.963 20.025 210.147L3.18937 225.008Z" fill="#E65739"/>
<path fill-rule="evenodd" clip-rule="evenodd" d="M48.6616 212.013C48.6616 213.674 47.4755 215.025 46.0176 215.025C44.5599 215.025 43.3739 213.674 43.3739 212.013C43.3739 210.352 44.5599 209 46.0176 209C47.4755 209 48.6616 210.352 48.6616 212.013ZM47.6065 212.013C47.6065 210.933 46.8937 210.055 46.0176 210.055C45.1416 210.055 44.429 210.933 44.429 212.013C44.429 213.092 45.1416 213.97 46.0176 213.97C46.8937 213.97 47.6065 213.092 47.6065 212.013ZM42.2307 217.411C42.8113 217.188 43.2524 216.72 43.4728 216.093C43.6824 215.497 43.6652 214.824 43.4242 214.197C43.1831 213.572 42.7444 213.061 42.1892 212.759C41.6057 212.442 40.9648 212.39 40.3851 212.614C39.2189 213.062 38.6837 214.503 39.1923 215.827C39.5985 216.88 40.5459 217.545 41.5038 217.545C41.7484 217.545 41.9936 217.502 42.2307 217.411ZM40.1769 215.448C39.8773 214.668 40.1405 213.838 40.7641 213.598C40.8768 213.555 40.9958 213.533 41.1174 213.533C41.3049 213.533 41.4987 213.584 41.6852 213.686C42.0206 213.868 42.2885 214.185 42.4396 214.577C42.5905 214.969 42.6039 215.383 42.4773 215.743C42.3613 216.073 42.1392 216.316 41.8522 216.426L41.8516 216.426C41.2289 216.666 40.4775 216.227 40.1769 215.448ZM51.0369 217.415C50.2269 216.151 48.8474 215.397 47.3467 215.397C45.8461 215.397 44.4665 216.151 43.6567 217.415L41.705 220.459C41.3811 220.965 41.2317 221.548 41.2728 222.147C41.3139 222.746 41.5417 223.303 41.9316 223.759C42.3217 224.216 42.8372 224.527 43.4224 224.661C44.0076 224.795 44.6074 224.738 45.157 224.496L45.1928 224.48C46.5759 223.884 48.1567 223.889 49.5363 224.496C49.8921 224.653 50.2691 224.732 50.6495 224.732C50.8563 224.732 51.0643 224.708 51.2705 224.661C51.8556 224.528 52.3712 224.216 52.7615 223.76C53.1515 223.303 53.3794 222.746 53.4206 222.147C53.4618 221.548 53.3124 220.965 52.9886 220.459L51.0369 217.415ZM51.9596 223.074C51.4631 223.654 50.66 223.838 49.961 223.53C49.1302 223.165 48.2384 222.982 47.3463 222.982C46.455 222.982 45.5634 223.165 44.7331 223.53L44.7094 223.54C44.0158 223.834 43.2245 223.648 42.7336 223.074C42.2377 222.493 42.1812 221.672 42.5932 221.029L44.5451 217.984C45.16 217.025 46.2073 216.452 47.3467 216.452C48.4861 216.452 49.5335 217.025 50.1486 217.984L52.1002 221.029C52.5123 221.672 52.4558 222.494 51.9596 223.074ZM50.5838 215.765H50.5839C50.8082 215.84 51.037 215.875 51.2648 215.875C52.328 215.875 53.3642 215.102 53.7595 213.912C53.9872 213.228 53.9723 212.504 53.7174 211.874C53.4507 211.215 52.9564 210.737 52.3256 210.527C51.6947 210.317 51.012 210.405 50.4038 210.773C49.8227 211.125 49.3775 211.696 49.1502 212.38C48.6703 213.824 49.3134 215.343 50.5838 215.765ZM50.1515 212.713C50.3 212.266 50.5837 211.898 50.9505 211.675C51.2898 211.47 51.6601 211.418 51.9928 211.528C52.3254 211.639 52.5905 211.902 52.7393 212.27C52.9001 212.667 52.907 213.132 52.7583 213.579C52.4618 214.471 51.6356 215.003 50.9167 214.764C50.1983 214.525 49.855 213.605 50.1515 212.713ZM56.1514 215.413L56.1518 215.414C57.1559 216.157 57.2874 217.689 56.4452 218.828C55.9086 219.552 55.1058 219.946 54.3342 219.946C53.8914 219.946 53.4588 219.817 53.0927 219.545C52.0888 218.802 51.9571 217.271 52.7994 216.131C53.6424 214.993 55.146 214.671 56.1514 215.413ZM53.7206 218.697C54.2577 219.095 55.0994 218.872 55.5972 218.2C56.0932 217.529 56.0607 216.66 55.5244 216.262C55.3437 216.128 55.1286 216.065 54.9039 216.065C54.4597 216.065 53.9776 216.313 53.6476 216.759C53.1512 217.43 53.1839 218.3 53.7206 218.697Z" fill="#525463"/>
<path d="M21.9438 186.843H20.3328H6.90723H1.4603C1.20622 186.843 1 187.04 1 187.283V190.56C1 190.803 1.20622 191 1.4603 191H6.90723H20.3328H21.9438C22.1979 191 22.4041 190.803 22.4041 190.56V187.283C22.4041 187.04 22.1979 186.843 21.9438 186.843ZM7.36754 187.724H19.8725V190.119H7.36754V187.724ZM21.4835 190.119H20.7931V187.724H21.4835V190.119ZM21.8354 181.615C21.4914 180.752 21.7556 179.722 22.4786 179.111C22.6692 178.949 22.9604 178.967 23.1283 179.149C23.2967 179.331 23.2789 179.609 23.0887 179.77C22.6538 180.138 22.4884 180.782 22.6956 181.301C22.8027 181.569 23.0003 181.817 23.2102 182.08C23.4434 182.373 23.6846 182.675 23.8405 183.048C24.2477 184.026 23.85 185.25 22.9346 185.833C22.8561 185.883 22.7674 185.907 22.6796 185.907C22.5311 185.907 22.385 185.839 22.2963 185.711C22.1552 185.509 22.2126 185.236 22.424 185.101C22.9816 184.745 23.2338 183.97 22.9853 183.375C22.8766 183.113 22.683 182.871 22.4783 182.614C22.2377 182.313 21.9898 182.002 21.8354 181.615Z" fill="#B0B0B0"/>
<path fill-rule="evenodd" clip-rule="evenodd" d="M3.18937 195.008C2.98053 195.192 2.93789 195.478 3.09418 195.646L3.31352 195.882C3.46982 196.05 3.76616 196.037 3.975 195.853L20.8106 180.992C21.0195 180.808 21.0621 180.522 20.9058 180.354L20.6865 180.118C20.5302 179.95 20.2338 179.963 20.025 180.147L3.18937 195.008Z" fill="#E65739"/>
<path d="M57.9438 186.843H56.3328H42.9072H37.4603C37.2062 186.843 37 187.04 37 187.283V190.56C37 190.803 37.2062 191 37.4603 191H42.9072H56.3328H57.9438C58.1979 191 58.4041 190.803 58.4041 190.56V187.283C58.4041 187.04 58.1979 186.843 57.9438 186.843ZM43.3675 187.724H55.8725V190.119H43.3675V187.724ZM57.4835 190.119H56.7931V187.724H57.4835V190.119ZM57.8354 181.615C57.4914 180.752 57.7556 179.722 58.4786 179.111C58.6692 178.949 58.9604 178.967 59.1283 179.149C59.2967 179.331 59.2789 179.609 59.0887 179.77C58.6538 180.138 58.4884 180.782 58.6956 181.301C58.8027 181.569 59.0003 181.817 59.2102 182.08C59.4434 182.373 59.6846 182.675 59.8405 183.048C60.2477 184.026 59.85 185.25 58.9346 185.833C58.8561 185.883 58.7674 185.907 58.6796 185.907C58.5311 185.907 58.385 185.839 58.2963 185.711C58.1552 185.509 58.2126 185.236 58.424 185.101C58.9816 184.745 59.2338 183.97 58.9853 183.375C58.8766 183.113 58.683 182.871 58.4783 182.614C58.2377 182.313 57.9898 182.002 57.8354 181.615Z" fill="#525463"/>
<defs>
<clipPath id="clip0">
<rect width="10" height="7.33333" fill="white" transform="translate(5 12.25)"/>
</clipPath>
<clipPath id="clip1">
<rect width="18" height="18" fill="white" transform="translate(174 191)"/>
</clipPath>
<clipPath id="clip2">
<rect width="20" height="20" fill="white" transform="translate(238 190)"/>
</clipPath>
</defs>
</svg>
