<svg width="20" height="20" viewBox="0 0 20 20" fill="none" xmlns="http://www.w3.org/2000/svg">
<path d="M3 7.8003V7.40034C3 7.069 3.29381 6.80041 3.65625 6.80041H13.5V5.60053C13.5 5.06642 14.2082 4.79957 14.6203 5.1763L16.8078 7.17609C17.0641 7.41039 17.0641 7.79025 16.8078 8.02453L14.6203 10.0243C14.2097 10.3996 13.5 10.1365 13.5 9.60011V8.40024H3.65625C3.29381 8.40024 3 8.13164 3 7.8003ZM16.3438 11.5999H6.5V10.4C6.5 9.86723 5.79284 9.59811 5.3797 9.9758L3.1922 11.9756C2.93593 12.2099 2.93593 12.5897 3.1922 12.824L5.3797 14.8238C5.79062 15.1994 6.5 14.9355 6.5 14.3996V13.1997H16.3438C16.7062 13.1997 17 12.9311 17 12.5998V12.1998C17 11.8685 16.7062 11.5999 16.3438 11.5999Z" fill="#B0B0B0"/>
</svg>
