<svg width="20" height="20" viewBox="0 0 20 20" fill="none" xmlns="http://www.w3.org/2000/svg">
<path d="M9.9952 2C4.9452 2 0.852346 5.325 0.852346 9.42857C0.852346 11.1286 1.56306 12.6857 2.74163 13.9393C2.20949 15.3464 1.10235 16.5393 1.08449 16.5536C0.848774 16.8036 0.784489 17.1679 0.920203 17.4821C1.05592 17.7964 1.36663 18 1.70949 18C3.90592 18 5.63806 17.0821 6.67735 16.3464C7.70949 16.6714 8.82378 16.8571 9.9952 16.8571C15.0452 16.8571 19.1381 13.5321 19.1381 9.42857C19.1381 5.325 15.0452 2 9.9952 2ZM9.9952 15.1429C9.04163 15.1429 8.09878 14.9964 7.1952 14.7107L6.38449 14.4536L5.68806 14.9464C5.17735 15.3071 4.47735 15.7107 3.63449 15.9821C3.8952 15.55 4.14877 15.0643 4.3452 14.5464L4.72377 13.5429L3.98806 12.7643C3.34163 12.075 2.56663 10.9357 2.56663 9.42857C2.56663 6.27857 5.89878 3.71429 9.9952 3.71429C14.0916 3.71429 17.4238 6.27857 17.4238 9.42857C17.4238 12.5786 14.0916 15.1429 9.9952 15.1429Z" fill="#338EFE"/>
</svg>
