<svg width="20" height="20" viewBox="0 0 20 20" fill="none" xmlns="http://www.w3.org/2000/svg">
<path fill-rule="evenodd" clip-rule="evenodd" d="M10.0049 2C9.80275 2 9.6329 2.08581 9.50197 2.21548L9.50111 2.21633L1.96346 9.75394C1.70116 10.016 1.6574 10.4669 1.9634 10.7448C2.2424 11.0505 2.69183 11.0062 2.95408 10.7444L10.0038 3.71139L17.0379 10.8114L17.0387 10.8122C17.1703 10.9438 17.3485 11.0035 17.5425 11.0035C17.73 11.0035 17.8938 10.938 18.0273 10.8294L18.0373 10.8212L18.0465 10.8121C18.3077 10.5502 18.327 10.0881 18.0466 9.80441L14.4807 6.22324V3.83481C14.4807 3.43066 14.1523 3.12513 13.7611 3.12513C13.3746 3.12513 13.0667 3.4426 13.0667 3.83481V4.80639L10.4926 2.21708C10.3632 2.08639 10.193 2 10.0049 2ZM15.3711 9.8298C14.9734 9.8298 14.66 10.1419 14.66 10.5413V16.5947H11.89V14.2707C11.89 13.8977 11.5833 13.5682 11.1955 13.5682H8.8312C8.43848 13.5682 8.11165 13.8858 8.11165 14.2707V16.5947H5.34993V10.7505C5.34993 10.3639 5.03164 10.0552 4.6388 10.0552C4.25694 10.0552 3.94449 10.3699 3.94449 10.7505V17.3061C3.94449 17.6868 4.25693 18.0015 4.6388 18.0015H8.8312C9.21307 18.0015 9.52551 17.6868 9.52551 17.3061V14.9822H10.4844V17.3061C10.4844 17.6928 10.8029 18.0015 11.1955 18.0015H15.3711C15.753 18.0015 16.0654 17.6868 16.0654 17.3061V10.5413C16.0654 10.148 15.7581 9.8298 15.3711 9.8298Z" fill="#B0B0B0"/>
</svg>
