<svg width="20" height="20" viewBox="0 0 20 20" fill="none" xmlns="http://www.w3.org/2000/svg">
<g clip-path="url(#clip0)">
<path d="M6 13C7.61198 13 8.91667 11.658 8.91667 10C8.91667 8.34196 7.61198 7 6 7C4.38802 7 3.08333 8.34196 3.08333 10C3.08333 11.658 4.38802 13 6 13ZM8 13.8571H7.78385C7.24219 14.125 6.64062 14.2857 6 14.2857C5.35938 14.2857 4.76042 14.125 4.21615 13.8571H4C2.34375 13.8571 1 15.2393 1 16.9429V17.7143C1 18.4241 1.5599 19 2.25 19H9.75C10.4401 19 11 18.4241 11 17.7143V16.9429C11 15.2393 9.65625 13.8571 8 13.8571Z" fill="#B0B0B0"/>
<path d="M15.2774 7.57379C15.2774 7.84438 15.0581 8.06369 14.7875 8.06369C14.517 8.06369 14.2976 7.84438 14.2976 7.57379C14.2976 7.30333 14.517 7.08389 14.7875 7.08389C15.0581 7.08389 15.2774 7.30333 15.2774 7.57379Z" fill="#B0B0B0"/>
<path d="M14.7868 2.36133C13.7923 2.36133 12.9856 3.16609 12.9856 4.16247V4.16311C12.9856 4.43358 13.2049 4.65275 13.4755 4.65275C13.7461 4.65275 13.9654 4.43306 13.9654 4.16247C13.9654 3.70957 14.3317 3.34113 14.7874 3.34113C15.2406 3.34113 15.6093 3.70983 15.6093 4.16311C15.6093 4.61627 15.2406 4.98497 14.7874 4.98497C14.5168 4.98497 14.2975 5.2044 14.2975 5.47487V5.99959C14.2975 6.27019 14.5168 6.48949 14.7874 6.48949C15.0579 6.48949 15.2773 6.27019 15.2773 5.99959V5.89715C16.0335 5.6832 16.5891 4.98675 16.5891 4.16311C16.5891 3.16953 15.7809 2.36133 14.7868 2.36133Z" fill="#B0B0B0"/>
<path d="M17.9359 0H11.6391C10.499 0 9.57498 0.922388 9.57498 2.06408V11.5093C9.57498 11.91 10.0345 12.1444 10.3588 11.9012L12.3271 10.425H17.9359C19.076 10.425 20 9.50264 20 8.36094V2.06408C20 0.924046 19.0776 0 17.9359 0V0ZM19.0202 8.36094C19.0202 8.9603 18.5355 9.44522 17.9359 9.44522H12.1638C12.0578 9.44522 11.9547 9.47967 11.8699 9.5432L10.5548 10.5295V2.06408C10.5548 1.46472 11.0394 0.979798 11.6391 0.979798H17.9359C18.5353 0.979798 19.0202 1.46447 19.0202 2.06408V8.36094Z" fill="#B0B0B0"/>
</g>
<defs>
<clipPath id="clip0">
<rect width="20" height="20" fill="white"/>
</clipPath>
</defs>
</svg>
