<svg width="24" height="24" viewBox="0 0 24 24" fill="none" xmlns="http://www.w3.org/2000/svg">
<path fill-rule="evenodd" clip-rule="evenodd" d="M12.6616 6.013C12.6616 7.67399 11.4755 9.0253 10.0176 9.0253C8.55989 9.0253 7.37392 7.67399 7.37392 6.013C7.37392 4.35159 8.55989 3 10.0176 3C11.4755 3 12.6616 4.35159 12.6616 6.013ZM11.6065 6.013C11.6065 4.93345 10.8937 4.0551 10.0176 4.0551C9.14161 4.0551 8.42901 4.93345 8.42901 6.013C8.42901 7.09213 9.14161 7.97021 10.0176 7.97021C10.8937 7.97021 11.6065 7.09213 11.6065 6.013ZM6.23068 11.4107C6.8113 11.1877 7.2524 10.7198 7.47282 10.0932C7.68238 9.49689 7.66521 8.8237 7.4242 8.19748C7.18305 7.57168 6.74442 7.06081 6.1892 6.75883C5.60569 6.44173 4.96478 6.3901 4.38511 6.61353C3.21892 7.06191 2.68375 8.50304 3.19228 9.82675C3.59849 10.8803 4.54593 11.5454 5.50379 11.5454C5.74838 11.5454 5.99365 11.502 6.23068 11.4107ZM4.17692 9.44773C3.87727 8.6677 4.14053 7.83796 4.76414 7.59818C4.87675 7.55478 4.99582 7.53322 5.11735 7.53322C5.30494 7.53322 5.49871 7.58445 5.68521 7.68593C6.02056 7.86817 6.28849 8.18458 6.43955 8.57665C6.59048 8.969 6.60394 9.38318 6.47732 9.74312C6.36128 10.073 6.13922 10.3155 5.8522 10.4258L5.85165 10.4261C5.22886 10.6661 4.47754 10.2271 4.17692 9.44773ZM15.0369 11.4147C14.2269 10.1511 12.8474 9.39664 11.3467 9.39664C9.84612 9.39664 8.46651 10.1511 7.65669 11.4147L5.70497 14.4594C5.38115 14.9646 5.23173 15.5482 5.27279 16.1468C5.31386 16.7455 5.54168 17.3031 5.93156 17.7594C6.32171 18.2156 6.83724 18.5274 7.4224 18.6611C8.00756 18.7947 8.60741 18.7378 9.157 18.4962L9.19285 18.4803C10.5759 17.8841 12.1567 17.8895 13.5363 18.4962C13.8921 18.6526 14.2691 18.7317 14.6495 18.7317C14.8563 18.7317 15.0643 18.7082 15.2705 18.6613C15.8556 18.5276 16.3712 18.2159 16.7615 17.7597C17.1515 17.3035 17.3794 16.7458 17.4206 16.147C17.4618 15.5482 17.3124 14.9646 16.9886 14.4593L15.0369 11.4147ZM15.9596 17.0739C15.4631 17.6542 14.66 17.8377 13.961 17.5304C13.1302 17.1649 12.2384 16.9823 11.3463 16.9823C10.455 16.9823 9.56336 17.1648 8.73307 17.5298L8.70945 17.5402C8.0158 17.8336 7.22451 17.6478 6.73356 17.0739C6.23767 16.4934 6.18122 15.6716 6.59321 15.0288L8.54507 11.9841C9.16003 11.0247 10.2073 10.4519 11.3467 10.4519C12.4861 10.4519 13.5335 11.0247 14.1486 11.9841L16.1002 15.0286C16.5123 15.6717 16.4558 16.4937 15.9596 17.0739ZM14.5838 9.76537H14.5839C14.8082 9.8398 15.037 9.87537 15.2648 9.87537C16.328 9.87537 17.3642 9.10152 17.7595 7.91225C17.9872 7.22767 17.9723 6.50381 17.7174 5.87416C17.4507 5.21512 16.9564 4.73666 16.3256 4.52682C15.6947 4.31726 15.012 4.4046 14.4038 4.77292C13.8227 5.12489 13.3775 5.69563 13.1502 6.38021C12.6703 7.82436 13.3134 9.34295 14.5838 9.76537ZM14.1515 6.71296C14.3 6.26596 14.5837 5.89764 14.9505 5.67544C15.2898 5.46986 15.6601 5.41754 15.9928 5.52809C16.3254 5.63878 16.5905 5.90217 16.7393 6.26994C16.9001 6.66737 16.907 7.13236 16.7583 7.57937C16.4618 8.47146 15.6356 9.00292 14.9167 8.76411C14.1983 8.52515 13.855 7.60505 14.1515 6.71296ZM20.1514 9.4134L20.1518 9.41381C21.1559 10.1573 21.2874 11.6889 20.4452 12.8282C19.9086 13.5525 19.1058 13.9463 18.3342 13.9463C17.8914 13.9463 17.4588 13.8167 17.0927 13.5455C16.0888 12.8023 15.9571 11.2706 16.7994 10.1314C17.6424 8.99262 19.146 8.67072 20.1514 9.4134ZM17.7206 12.6975C18.2577 13.0953 19.0994 12.8724 19.5972 12.2005C20.0932 11.5294 20.0607 10.6598 19.5244 10.2621C19.3437 10.1285 19.1286 10.065 18.9039 10.065C18.4597 10.065 17.9776 10.313 17.6476 10.7588C17.1512 11.4303 17.1839 12.3002 17.7206 12.6975Z" fill="#525463"/>
</svg>
