<svg width="24" height="24" viewBox="0 0 24 24" fill="none" xmlns="http://www.w3.org/2000/svg">
<path d="M21.9438 10.843H20.3328H6.90723H1.4603C1.20622 10.843 1 11.0402 1 11.2833V14.5597C1 14.8027 1.20622 15 1.4603 15H6.90723H20.3328H21.9438C22.1979 15 22.4041 14.8027 22.4041 14.5597V11.2833C22.4041 11.0402 22.1979 10.843 21.9438 10.843ZM7.36754 11.7236H19.8725V14.1194H7.36754V11.7236ZM21.4835 14.1194H20.7931V11.7236H21.4835V14.1194ZM21.8354 5.61455C21.4914 4.75214 21.7556 3.72243 22.4786 3.1107C22.6692 2.94897 22.9604 2.96687 23.1283 3.14857C23.2967 3.33056 23.2789 3.60883 23.0887 3.76998C22.6538 4.13807 22.4884 4.78179 22.6956 5.30076C22.8027 5.56905 23.0003 5.81738 23.2102 6.08009C23.4434 6.37275 23.6846 6.67538 23.8405 7.04846C24.2477 8.02622 23.85 9.24967 22.9346 9.83322C22.8561 9.88341 22.7674 9.90719 22.6796 9.90719C22.5311 9.90719 22.385 9.8385 22.2963 9.71111C22.1552 9.50886 22.2126 9.23558 22.424 9.10056C22.9816 8.74479 23.2338 7.97045 22.9853 7.37458C22.8766 7.11333 22.683 6.87087 22.4783 6.61403C22.2377 6.31316 21.9898 6.00172 21.8354 5.61455Z" fill="#B0B0B0"/>
<path fill-rule="evenodd" clip-rule="evenodd" d="M3.18937 19.0079C2.98053 19.1922 2.93789 19.4782 3.09418 19.6463L3.31352 19.8821C3.46982 20.0502 3.76616 20.037 3.975 19.8526L20.8106 4.9921C21.0195 4.80777 21.0621 4.52177 20.9058 4.35372L20.6865 4.11788C20.5302 3.94983 20.2338 3.96305 20.025 4.14738L3.18937 19.0079Z" fill="#E65739"/>
</svg>
