<svg width="20" height="20" viewBox="0 0 20 20" fill="none" xmlns="http://www.w3.org/2000/svg">
<path fill-rule="evenodd" clip-rule="evenodd" d="M7.08296 6H5.63955C4.29013 6 3.09423 6.79148 2.59296 8.01667L2.10546 9.20833H0.351749C0.122941 9.20833 -0.0449309 9.41859 0.0107334 9.63544L0.186515 10.3229C0.22548 10.4759 0.366105 10.5833 0.527531 10.5833H1.11552C0.722062 10.9193 0.468644 11.4078 0.468644 11.9583V13.3333C0.468644 13.7951 0.649113 14.2119 0.937395 14.5345V16.0833C0.937395 16.5895 1.35722 17 1.8749 17H2.8124C3.33007 17 3.7499 16.5895 3.7499 16.0833V15.1667H11.2499V16.0833C11.2499 16.5895 11.6697 17 12.1874 17H13.1249C13.6426 17 14.0624 16.5895 14.0624 16.0833V14.5345C14.3507 14.2122 14.5312 13.7954 14.5312 13.3333V12.8029C14.0424 12.9315 13.5292 13 13 13C10.8312 13 8.93108 11.8492 7.87704 10.125H3.7499L4.33379 8.69758C4.54736 8.17565 5.06445 7.83333 5.63955 7.83333H7.0574C7.01956 7.56098 7 7.28277 7 7C7 6.65929 7.0284 6.32521 7.08296 6ZM1.8749 12.4138C1.8749 13.3276 2.92753 13.3276 2.92753 13.3276C2.92753 13.3276 4.68751 13.4233 4.68751 12.875C4.68751 12.3267 3.49003 11.5 2.92753 11.5C2.36503 11.5 1.8749 11.5 1.8749 12.4138Z" fill="#B0B0B0"/>
<path d="M19.8195 12.9301L16.9635 9.9597C17.6978 9.08675 18.1001 7.98841 18.1001 6.845C18.1001 4.17351 15.9266 2 13.2552 2C10.5837 2 8.41016 4.17351 8.41016 6.845C8.41016 9.51648 10.5837 11.69 13.2552 11.69C14.2581 11.69 15.2138 11.3875 16.0309 10.8133L18.9086 13.8062C19.0289 13.9311 19.1907 14 19.3641 14C19.5282 14 19.6838 13.9374 19.802 13.8237C20.0531 13.5821 20.0611 13.1814 19.8195 12.9301ZM13.2552 3.26391C15.2298 3.26391 16.8362 4.87034 16.8362 6.845C16.8362 8.81965 15.2298 10.4261 13.2552 10.4261C11.2805 10.4261 9.67407 8.81965 9.67407 6.845C9.67407 4.87034 11.2805 3.26391 13.2552 3.26391Z" fill="#B0B0B0"/>
</svg>
