<svg width="16" height="16" viewBox="0 0 16 16" fill="none" xmlns="http://www.w3.org/2000/svg">
<path d="M8.00001 7.00625C9.54751 7.00625 10.8 5.75375 10.8 4.20625C10.8 2.65875 9.54751 1.40625 8.00001 1.40625C6.45251 1.40625 5.20001 2.65875 5.20001 4.20625C5.20001 5.75375 6.45251 7.00625 8.00001 7.00625ZM9.92001 7.80625H9.71251C9.19251 8.05625 8.61501 8.20625 8.00001 8.20625C7.38501 8.20625 6.81001 8.05625 6.28751 7.80625H6.08001C4.49001 7.80625 3.20001 9.09625 3.20001 10.6863V11.4062C3.20001 12.0688 3.73751 12.6062 4.40001 12.6062H11.6C12.2625 12.6062 12.8 12.0688 12.8 11.4062V10.6863C12.8 9.09625 11.51 7.80625 9.92001 7.80625Z" fill="#B0B0B0"/>
</svg>
