<svg width="20" height="20" viewBox="0 0 20 20" fill="none" xmlns="http://www.w3.org/2000/svg">
<path d="M3 9.00781C4.10313 9.00781 5 8.11094 5 7.00781C5 5.90469 4.10313 5.00781 3 5.00781C1.89688 5.00781 1 5.90469 1 7.00781C1 8.11094 1.89688 9.00781 3 9.00781ZM17 9.00781C18.1031 9.00781 19 8.11094 19 7.00781C19 5.90469 18.1031 5.00781 17 5.00781C15.8969 5.00781 15 5.90469 15 7.00781C15 8.11094 15.8969 9.00781 17 9.00781ZM18 10.0078H16C15.45 10.0078 14.9531 10.2297 14.5906 10.5891C15.85 11.2797 16.7437 12.5266 16.9375 14.0078H19C19.5531 14.0078 20 13.5609 20 13.0078V12.0078C20 10.9047 19.1031 10.0078 18 10.0078ZM10 10.0078C11.9344 10.0078 13.5 8.44219 13.5 6.50781C13.5 4.57344 11.9344 3.00781 10 3.00781C8.06563 3.00781 6.5 4.57344 6.5 6.50781C6.5 8.44219 8.06563 10.0078 10 10.0078ZM12.4 11.0078H12.1406C11.4906 11.3203 10.7688 11.5078 10 11.5078C9.23125 11.5078 8.5125 11.3203 7.85938 11.0078H7.6C5.6125 11.0078 4 12.6203 4 14.6078V15.5078C4 16.3359 4.67188 17.0078 5.5 17.0078H14.5C15.3281 17.0078 16 16.3359 16 15.5078V14.6078C16 12.6203 14.3875 11.0078 12.4 11.0078ZM5.40938 10.5891C5.04688 10.2297 4.55 10.0078 4 10.0078H2C0.896875 10.0078 0 10.9047 0 12.0078V13.0078C0 13.5609 0.446875 14.0078 1 14.0078H3.05938C3.25625 12.5266 4.15 11.2797 5.40938 10.5891Z" fill="#338EFE"/>
</svg>
