<svg width="20" height="20" viewBox="0 0 20 20" fill="none" xmlns="http://www.w3.org/2000/svg">
<path d="M9.99484 2C4.94484 2 0.85198 5.325 0.85198 9.42857C0.85198 11.1286 1.56269 12.6857 2.74127 13.9393C2.20912 15.3464 1.10198 16.5393 1.08412 16.5536C0.848408 16.8036 0.784123 17.1679 0.919837 17.4821C1.05555 17.7964 1.36627 18 1.70912 18C3.90555 18 5.63769 17.0821 6.67698 16.3464C7.70912 16.6714 8.82341 16.8571 9.99484 16.8571C15.0448 16.8571 19.1377 13.5321 19.1377 9.42857C19.1377 5.325 15.0448 2 9.99484 2ZM9.99484 15.1429C9.04127 15.1429 8.09841 14.9964 7.19484 14.7107L6.38412 14.4536L5.68769 14.9464C5.17698 15.3071 4.47698 15.7107 3.63412 15.9821C3.89484 15.55 4.14841 15.0643 4.34484 14.5464L4.72341 13.5429L3.98769 12.7643C3.34127 12.075 2.56627 10.9357 2.56627 9.42857C2.56627 6.27857 5.89841 3.71429 9.99484 3.71429C14.0913 3.71429 17.4234 6.27857 17.4234 9.42857C17.4234 12.5786 14.0913 15.1429 9.99484 15.1429Z" fill="#B0B0B0"/>
</svg>
