<svg width="16" height="16" viewBox="0 0 16 16" fill="none" xmlns="http://www.w3.org/2000/svg">
<path d="M7 4.59088V10.6797C7 10.8572 7.14639 11.0011 7.32695 11.0011H8.67304C8.85361 11.0011 9 10.8572 9 10.6797V4.59088H10.3448C10.9273 4.59088 11.2191 3.89844 10.8072 3.49344L8.46238 1.1883C8.207 0.937234 7.79297 0.937234 7.53762 1.1883L5.19283 3.49344C4.7809 3.89842 5.07265 4.59088 5.65523 4.59088H7Z" fill="#525463"/>
<path d="M9.25 14.25C9.25 14.9404 8.69036 15.5 8 15.5C7.30964 15.5 6.75 14.9404 6.75 14.25C6.75 13.5596 7.30964 13 8 13C8.69036 13 9.25 13.5596 9.25 14.25Z" fill="#525463"/>
</svg>
