<svg width="16" height="16" viewBox="0 0 16 16" fill="none" xmlns="http://www.w3.org/2000/svg">
<path d="M7.46045 14.7175C3.48746 8.95788 2.75 8.36676 2.75 6.25C2.75 3.3505 5.1005 1 8 1C10.8995 1 13.25 3.3505 13.25 6.25C13.25 8.36676 12.5125 8.95788 8.53955 14.7175C8.27882 15.0942 7.72115 15.0941 7.46045 14.7175ZM8 8.4375C9.20813 8.4375 10.1875 7.45813 10.1875 6.25C10.1875 5.04187 9.20813 4.0625 8 4.0625C6.79187 4.0625 5.8125 5.04187 5.8125 6.25C5.8125 7.45813 6.79187 8.4375 8 8.4375Z" fill="#525463"/>
</svg>
