<svg width="24" height="24" viewBox="0 0 24 24" fill="none" xmlns="http://www.w3.org/2000/svg">
<path d="M18.4337 7.52431V4.45316C18.4337 4.30899 18.3633 4.17153 18.2493 4.08771C18.132 4.00389 17.9811 3.97707 17.8436 4.02065L8.69389 6.92751C8.50613 6.98786 8.37873 7.16221 8.37873 7.36002V10.4345V10.4379V16.3153C7.89928 15.9834 7.28572 15.8023 6.64199 15.8023C5.96137 15.8023 5.31429 16.0068 4.82143 16.3756C4.29169 16.7746 4 17.3144 4 17.9012C4 18.4879 4.29169 19.0277 4.82143 19.4267C5.31429 19.7955 5.95802 20 6.64199 20C7.32595 20 7.96969 19.7955 8.46255 19.4267C8.99229 19.0277 9.28398 18.4879 9.28398 17.9012V10.7664L17.5285 8.14457V13.395C17.049 13.0631 16.4355 12.882 15.7917 12.882C15.1111 12.882 14.464 13.0866 13.9712 13.4554C13.4414 13.8544 13.1497 14.3942 13.1497 14.9809C13.1497 15.5676 13.4414 16.1074 13.9712 16.5064C14.464 16.8752 15.1078 17.0797 15.7917 17.0797C16.4757 17.0797 17.1194 16.8752 17.6123 16.5064C18.142 16.1074 18.4337 15.5676 18.4337 14.9809V7.52766C18.4337 7.52431 18.4337 7.52431 18.4337 7.52431ZM6.64199 19.0948C5.69986 19.0948 4.90525 18.5482 4.90525 17.9012C4.90525 17.2541 5.69986 16.7076 6.64199 16.7076C7.58412 16.7076 8.37873 17.2541 8.37873 17.9012C8.37873 18.5516 7.58412 19.0948 6.64199 19.0948ZM9.28398 9.81426V7.68859L17.5285 5.07007V7.19574L9.28398 9.81426ZM15.7951 16.1745C14.8529 16.1745 14.0583 15.628 14.0583 14.9809C14.0583 14.3338 14.8529 13.7873 15.7951 13.7873C16.7372 13.7873 17.5318 14.3338 17.5318 14.9809C17.5285 15.628 16.7338 16.1745 15.7951 16.1745Z" fill="#525463"/>
<path d="M15.7951 16.1745C14.8529 16.1745 14.0583 15.628 14.0583 14.9809C14.0583 14.3338 14.8529 13.7873 15.7951 13.7873C16.7372 13.7873 17.5318 14.3338 17.5318 14.9809C17.5285 15.628 16.7338 16.1745 15.7951 16.1745Z" fill="#525463"/>
<path d="M6.64199 19.0948C5.69986 19.0948 4.90525 18.5482 4.90525 17.9012C4.90525 17.2541 5.69986 16.7076 6.64199 16.7076C7.58412 16.7076 8.37873 17.2541 8.37873 17.9012C8.37873 18.5516 7.58412 19.0948 6.64199 19.0948Z" fill="#525463"/>
</svg>
