<svg width="20" height="20" viewBox="0 0 20 20" fill="none" xmlns="http://www.w3.org/2000/svg">
<circle cx="10" cy="10" r="9.5" stroke="#525463"/>
<path d="M10.125 9.375V9.875H10.625H13.2143C13.234 9.875 13.25 9.89104 13.25 9.91071V10.0893C13.25 10.109 13.234 10.125 13.2143 10.125H10.625H10.125V10.625V13.2143C10.125 13.234 10.109 13.25 10.0893 13.25H9.91071C9.89104 13.25 9.875 13.234 9.875 13.2143V10.625V10.125H9.375H6.78571C6.76604 10.125 6.75 10.109 6.75 10.0893V9.91071C6.75 9.89104 6.76604 9.875 6.78571 9.875H9.375H9.875V9.375V6.78571C9.875 6.76604 9.89104 6.75 9.91071 6.75H10.0893C10.109 6.75 10.125 6.76604 10.125 6.78571V9.375Z" fill="#E8EBF0" stroke="#525463"/>
</svg>
