<svg width="16" height="16" viewBox="0 0 16 16" fill="none" xmlns="http://www.w3.org/2000/svg">
<path d="M2.4 7.20625C3.2825 7.20625 4 6.48875 4 5.60625C4 4.72375 3.2825 4.00625 2.4 4.00625C1.5175 4.00625 0.8 4.72375 0.8 5.60625C0.8 6.48875 1.5175 7.20625 2.4 7.20625ZM13.6 7.20625C14.4825 7.20625 15.2 6.48875 15.2 5.60625C15.2 4.72375 14.4825 4.00625 13.6 4.00625C12.7175 4.00625 12 4.72375 12 5.60625C12 6.48875 12.7175 7.20625 13.6 7.20625ZM14.4 8.00625H12.8C12.36 8.00625 11.9625 8.18375 11.6725 8.47125C12.68 9.02375 13.395 10.0213 13.55 11.2063H15.2C15.6425 11.2063 16 10.8488 16 10.4062V9.60625C16 8.72375 15.2825 8.00625 14.4 8.00625ZM8 8.00625C9.5475 8.00625 10.8 6.75375 10.8 5.20625C10.8 3.65875 9.5475 2.40625 8 2.40625C6.4525 2.40625 5.2 3.65875 5.2 5.20625C5.2 6.75375 6.4525 8.00625 8 8.00625ZM9.92 8.80625H9.7125C9.1925 9.05625 8.615 9.20625 8 9.20625C7.385 9.20625 6.81 9.05625 6.2875 8.80625H6.08C4.49 8.80625 3.2 10.0963 3.2 11.6863V12.4062C3.2 13.0688 3.7375 13.6062 4.4 13.6062H11.6C12.2625 13.6062 12.8 13.0688 12.8 12.4062V11.6863C12.8 10.0963 11.51 8.80625 9.92 8.80625ZM4.3275 8.47125C4.0375 8.18375 3.64 8.00625 3.2 8.00625H1.6C0.7175 8.00625 0 8.72375 0 9.60625V10.4062C0 10.8488 0.3575 11.2063 0.8 11.2063H2.4475C2.605 10.0213 3.32 9.02375 4.3275 8.47125Z" fill="#525463"/>
</svg>
