<svg width="12" height="14" viewBox="0 0 12 14" fill="none" xmlns="http://www.w3.org/2000/svg">
<path d="M8.63964 -1.46886e-07L9.11959 -1.25907e-07C9.5172 -1.08527e-07 9.83951 0.293809 9.83951 0.65625L9.83951 10.5L11.2794 10.5C11.9203 10.5 12.2405 11.2082 11.7884 11.6203L9.38869 13.8078C9.10753 14.0641 8.6517 14.0641 8.37057 13.8078L5.97082 11.6203C5.52051 11.2097 5.83626 10.5 6.47987 10.5L7.91971 10.5L7.91971 0.65625C7.91971 0.293808 8.24203 -1.64266e-07 8.63964 -1.46886e-07ZM4.08012 13.3438L4.08012 3.5L5.51997 3.5C6.15932 3.5 6.48227 2.79284 6.02905 2.3797L3.6293 0.192199C3.34814 -0.0640668 2.89231 -0.0640668 2.61118 0.192199L0.211434 2.3797C-0.239329 2.79062 0.0774382 3.5 0.72048 3.5L2.16033 3.5L2.16033 13.3438C2.16033 13.7062 2.48264 14 2.88025 14L3.3602 14C3.75781 14 4.08012 13.7062 4.08012 13.3438Z" fill="#525463"/>
</svg>
