<svg width="16" height="16" viewBox="0 0 16 16" fill="none" xmlns="http://www.w3.org/2000/svg">
<path d="M9 7.41025L9 1.32142C9 1.14391 8.85361 0.999993 8.67304 0.999993L7.32695 0.999993C7.14639 0.999993 7 1.14391 7 1.32142L7 7.41025L5.65523 7.41025C5.07265 7.41025 4.7809 8.10269 5.19283 8.50769L7.53762 10.8128C7.793 11.0639 8.20703 11.0639 8.46238 10.8128L10.8072 8.50768C11.2191 8.10271 10.9273 7.41025 10.3448 7.41025L9 7.41025Z" fill="#525463"/>
<path d="M9.25 14.25C9.25 14.9404 8.69036 15.5 8 15.5C7.30964 15.5 6.75 14.9404 6.75 14.25C6.75 13.5596 7.30964 13 8 13C8.69036 13 9.25 13.5596 9.25 14.25Z" fill="#525463"/>
</svg>
