<svg width="32" height="32" viewBox="0 0 32 32" fill="none" xmlns="http://www.w3.org/2000/svg">
<circle cx="16" cy="16.0004" r="16" fill="#2CA7E0"/>
<path fill-rule="evenodd" clip-rule="evenodd" d="M22.802 12.3462C22.3015 12.5682 21.7637 12.7182 21.1991 12.7856C21.7752 12.4402 22.2178 11.8933 22.4262 11.2415C21.8869 11.5614 21.2896 11.7937 20.6539 11.9188C20.1448 11.3764 19.4194 11.0375 18.6167 11.0375C17.0754 11.0375 15.8257 12.2871 15.8257 13.8284C15.8257 14.0471 15.8503 14.2601 15.898 14.4644C13.5784 14.348 11.5218 13.2369 10.1453 11.5483C9.90508 11.9605 9.76743 12.4399 9.76743 12.9514C9.76743 13.9197 10.2601 14.774 11.009 15.2745C10.5515 15.26 10.1212 15.1344 9.74489 14.9254C9.74463 14.9371 9.74463 14.9487 9.74463 14.9605C9.74463 16.3128 10.7067 17.4407 11.9835 17.6972C11.7493 17.761 11.5027 17.7951 11.2482 17.7951C11.0683 17.7951 10.8935 17.7776 10.7231 17.7451C11.0782 18.8538 12.1089 19.6608 13.3303 19.6832C12.3751 20.4319 11.1717 20.878 9.86403 20.878C9.63875 20.878 9.4166 20.8648 9.19824 20.839C10.4334 21.6308 11.9004 22.093 13.4765 22.093C18.6102 22.093 21.4175 17.8401 21.4175 14.152C21.4175 14.031 21.4147 13.9106 21.4094 13.7909C21.9547 13.3974 22.4279 12.9059 22.802 12.3462Z" fill="white"/>
</svg>
