<svg width="32" height="32" viewBox="0 0 32 32" fill="none" xmlns="http://www.w3.org/2000/svg">
<circle cx="16" cy="16" r="16" fill="#0072FF"/>
<path d="M22.0069 18.6246C20.6876 17.3333 20.856 17.5298 22.456 15.3123C23.4104 13.9649 23.8034 13.1228 23.6911 12.7579C23.635 12.5333 22.8771 12.5895 22.8771 12.5895H20.5192C20.5192 12.5895 20.1543 12.5895 20.0139 12.8421C19.7613 13.3193 19.649 13.9088 19.1437 14.779C18.0771 16.6597 17.656 16.7719 17.4876 16.6597C17.0946 16.379 17.1788 15.5649 17.1788 14.9755C17.1788 13.1509 17.4315 12.393 16.6736 12.1684C16.5051 12.1123 16.3648 12.1123 16.1122 12.0842C15.8034 12.0562 15.4946 12.0562 15.2139 12.0562C14.5122 12.0562 13.9788 12.0842 13.6139 12.2526C13.3332 12.393 13.1367 12.7018 13.2771 12.7298C13.4455 12.7579 13.7823 12.8421 13.9788 13.0947C14.2315 13.4316 14.2034 14.2176 14.2034 14.2176C14.2034 14.2176 14.3437 16.379 13.8665 16.6316C13.5578 16.8281 13.1086 16.4351 12.1823 14.7228C11.7051 13.8526 11.649 13.2632 11.3402 12.8702C11.1437 12.6176 10.7788 12.5333 10.7788 12.5333H8.53321C8.53321 12.5333 8.14022 12.5053 8.08408 12.6176C7.9718 12.7579 8.08408 13.0386 8.08408 13.0386C8.08408 13.0386 9.8525 17.3895 11.8455 19.579C13.6139 21.6562 15.6911 21.5439 15.6911 21.5439C15.6911 21.5439 16.8981 21.6 17.0665 21.2912C17.1788 21.179 17.2069 20.8421 17.2069 20.8421C17.2069 20.8421 17.1788 19.4947 17.7683 19.2983C18.3578 19.1018 19.0876 20.5895 19.8736 21.1509C20.463 21.6 20.6315 21.5439 20.9122 21.5439C21.4736 21.5439 23.0174 21.5439 23.0174 21.5439C23.0174 21.5439 24.1122 21.4316 23.6069 20.5053C23.5227 20.4491 23.27 19.8597 22.0069 18.6246Z" fill="white"/>
</svg>
