<svg width="20" height="20" viewBox="0 0 20 20" fill="none" xmlns="http://www.w3.org/2000/svg">
<path fill-rule="evenodd" clip-rule="evenodd" d="M19.1321 12.2746L19.1406 14.3813C19.1406 14.7954 18.9909 15.1519 18.6916 15.4513C18.3922 15.7507 18.0356 15.9004 17.6216 15.9003L2.38839 15.9087C1.97443 15.9088 1.6177 15.7591 1.31832 15.4597C1.01898 15.1604 0.869258 14.8037 0.869229 14.3896L0.869171 12.2745C1.49603 12.2744 2.0329 12.0507 2.48055 11.603C2.9282 11.1554 3.152 10.6182 3.152 9.99165C3.15212 9.36485 2.92823 8.82789 2.48064 8.3803C2.03301 7.93268 1.49576 7.70891 0.869141 7.70879L0.877637 5.60208C0.877696 5.18782 1.02727 4.83124 1.32658 4.53192C1.62566 4.23284 1.98248 4.08304 2.39671 4.08301L17.6132 4.09144C18.0272 4.09156 18.3839 4.2411 18.6832 4.54048C18.9824 4.83968 19.132 5.19632 19.1323 5.61052L19.1324 7.70888C18.5058 7.709 17.9686 7.93271 17.5209 8.38042C17.0732 8.8281 16.8493 9.36503 16.8494 9.99188C16.8494 10.6184 17.0731 11.1555 17.5207 11.6032C17.9683 12.0507 18.5056 12.2746 19.1321 12.2746ZM4.814 13.7851L15.1875 13.7853C15.4003 13.7854 15.5793 13.7126 15.7248 13.5672C15.8702 13.4218 15.943 13.2427 15.943 13.0299L15.943 6.95353C15.943 6.75199 15.8675 6.57564 15.7165 6.42472C15.5654 6.27362 15.3891 6.19807 15.1875 6.19801L4.81394 6.19798C4.60125 6.19801 4.42211 6.27091 4.27663 6.4164C4.13126 6.56176 4.05853 6.74073 4.05841 6.9535L4.05874 13.0299C4.05853 13.2315 4.13411 13.4077 4.28512 13.5587C4.43628 13.7099 4.61248 13.7855 4.814 13.7851ZM13.8017 8.34001L13.8018 11.6444L6.20041 11.6444V8.34013L13.8017 8.34001ZM13.8017 7.34001C14.354 7.34 14.8017 7.7877 14.8017 8.33998L14.8018 11.6443C14.8018 12.1966 14.3541 12.6444 13.8018 12.6444H6.20041C5.64813 12.6444 5.20041 12.1966 5.20041 11.6444L5.20041 8.34013C5.20041 7.78785 5.64812 7.34014 6.2004 7.34013L13.8017 7.34001Z" fill="#B0B0B0"/>
</svg>
