<svg width="16" height="16" viewBox="0 0 16 16" fill="none" xmlns="http://www.w3.org/2000/svg">
<path d="M11.75 4.375H4.25C3.55964 4.375 3 4.96262 3 5.6875V11.8125C3 12.5374 3.55964 13.125 4.25 13.125C7.36113 13.125 9.49721 13.125 11.75 13.125C12.4404 13.125 13 12.5374 13 11.8125V5.6875C13 4.96262 12.4404 4.375 11.75 4.375ZM11.3333 10.2812C11.3333 10.4021 11.2401 10.5 11.125 10.5H4.875C4.7599 10.5 4.66667 10.4021 4.66667 10.2812V9.84375C4.66667 9.72289 4.7599 9.625 4.875 9.625H11.125C11.2401 9.625 11.3333 9.72289 11.3333 9.84375V10.2812ZM11.3333 7.65625C11.3333 7.77711 11.2401 7.875 11.125 7.875H4.875C4.7599 7.875 4.66667 7.77711 4.66667 7.65625V7.21875C4.66667 7.09789 4.7599 7 4.875 7H11.125C11.2401 7 11.3333 7.09789 11.3333 7.21875V7.65625ZM6.75 2.1875H9.25V4.375H10.5V2.1875C10.5 1.46262 9.94036 0.875 9.25 0.875H6.75C6.05964 0.875 5.5 1.46262 5.5 2.1875V4.375H6.75V2.1875Z" fill="#B0B0B0"/>
</svg>
