<svg width="20" height="20" viewBox="0 0 20 20" fill="none" xmlns="http://www.w3.org/2000/svg">
<path d="M14.2857 8.92857H11.0714V5.71429C11.0714 5.31987 10.7516 5 10.3571 5H9.64286C9.24844 5 8.92857 5.31987 8.92857 5.71429V8.92857H5.71429C5.31987 8.92857 5 9.24844 5 9.64286V10.3571C5 10.7516 5.31987 11.0714 5.71429 11.0714H8.92857V14.2857C8.92857 14.6801 9.24844 15 9.64286 15H10.3571C10.7516 15 11.0714 14.6801 11.0714 14.2857V11.0714H14.2857C14.6801 11.0714 15 10.7516 15 10.3571V9.64286C15 9.24844 14.6801 8.92857 14.2857 8.92857Z" fill="white"/>
</svg>
