<svg width="32" height="32" viewBox="0 0 32 32" fill="none" xmlns="http://www.w3.org/2000/svg">
<rect x="0.5" y="0.5" width="31" height="31" rx="15.5" fill="white" stroke="#E8EBF0"/>
<path d="M18.6396 9L19.1196 9C19.5172 9 19.8395 9.29381 19.8395 9.65625L19.8395 19.5L21.2794 19.5C21.9203 19.5 22.2405 20.2082 21.7884 20.6203L19.3887 22.8078C19.1075 23.0641 18.6517 23.0641 18.3706 22.8078L15.9708 20.6203C15.5205 20.2097 15.8363 19.5 16.4799 19.5L17.9197 19.5L17.9197 9.65625C17.9197 9.29381 18.242 9 18.6396 9ZM14.0801 22.3438L14.0801 12.5L15.52 12.5C16.1593 12.5 16.4823 11.7928 16.029 11.3797L13.6293 9.1922C13.3481 8.93593 12.8923 8.93593 12.6112 9.1922L10.2114 11.3797C9.76067 11.7906 10.0774 12.5 10.7205 12.5L12.1603 12.5L12.1603 22.3438C12.1603 22.7062 12.4826 23 12.8803 23L13.3602 23C13.7578 23 14.0801 22.7062 14.0801 22.3438Z" fill="#525463"/>
</svg>
