<svg width="20" height="20" viewBox="0 0 20 20" fill="none" xmlns="http://www.w3.org/2000/svg">
<path d="M17.6246 7.5H15.7536L15.2336 6.2C14.6993 4.86344 13.424 4 11.9843 4H8.01551C6.57614 4 5.30051 4.86344 4.76582 6.2L4.24582 7.5H2.3752C2.13114 7.5 1.95207 7.72938 2.01145 7.96594L2.19895 8.71594C2.24051 8.88281 2.39051 9 2.5627 9H3.18989C2.7702 9.36656 2.49989 9.89937 2.49989 10.5V12C2.49989 12.5037 2.69239 12.9584 2.99989 13.3103V15C2.99989 15.5522 3.4477 16 3.99989 16H4.99989C5.55207 16 5.99989 15.5522 5.99989 15V14H13.9999V15C13.9999 15.5522 14.4477 16 14.9999 16H15.9999C16.5521 16 16.9999 15.5522 16.9999 15V13.3103C17.3074 12.9587 17.4999 12.5041 17.4999 12V10.5C17.4999 9.89937 17.2296 9.36656 16.8102 9H17.4374C17.6096 9 17.7596 8.88281 17.8011 8.71594L17.9886 7.96594C18.0477 7.72938 17.8686 7.5 17.6246 7.5ZM6.6227 6.94281C6.85051 6.37344 7.40207 6 8.01551 6H11.9843C12.5977 6 13.1493 6.37344 13.3771 6.94281L13.9999 8.5H5.99989L6.6227 6.94281ZM5.1227 11.9937C5.1227 11.9937 3.99989 11.9937 3.99989 10.9969C3.99989 10 4.5227 10 5.1227 10C5.7227 10 7 10.9019 7 11.5C7 12.0981 5.1227 11.9937 5.1227 11.9937ZM14.8773 11.9937C14.8773 11.9937 13 12.0981 13 11.5C13 10.9019 14.2773 10 14.8773 10C15.6406 10 16 10 15.9999 10.9969C16 12 14.8773 11.9937 14.8773 11.9937Z" fill="#B0B0B0"/>
</svg>
