<svg width="20" height="20" viewBox="0 0 20 20" fill="none" xmlns="http://www.w3.org/2000/svg">
<circle cx="10" cy="10" r="9.5" stroke="#525463"/>
<path d="M6.78571 9.875H6.80621H6.82661H6.8469H6.86709H6.88718H6.90717H6.92705H6.94683H6.96652H6.9861H7.00558H7.02496H7.04424H7.06343H7.08251H7.1015H7.12039H7.13919H7.15788H7.17649H7.19499H7.2134H7.23172H7.24994H7.26807H7.2861H7.30404H7.32189H7.33964H7.35731H7.37488H7.39236H7.40975H7.42705H7.44426H7.46139H7.47842H7.49536H7.51222H7.52899H7.54567H7.56227H7.57878H7.5952H7.61154H7.62779H7.64396H7.66004H7.67604H7.69196H7.7078H7.72355H7.73922H7.75481H7.77031H7.78574H7.80109H7.81635H7.83154H7.84665H7.86168H7.87663H7.8915H7.9063H7.92102H7.93566H7.95023H7.96472H7.97914H7.99348H8.00775H8.02194H8.03606H8.05011H8.06408H8.07799H8.09182H8.10558H8.11927H8.13288H8.14643H8.15991H8.17332H8.18666H8.19993H8.21314H8.22627H8.23934H8.25235H8.26529H8.27816H8.29096H8.3037H8.31638H8.329H8.34154H8.35403H8.36645H8.37882H8.39111H8.40335H8.41553H8.42765H8.4397H8.4517H8.46363H8.47551H8.48733H8.49909H8.5108H8.52245H8.53404H8.54557H8.55705H8.56847H8.57984H8.59115H8.60241H8.61361H8.62476H8.63586H8.64691H8.6579H8.66884H8.67974H8.69058H8.70137H8.71211H8.7228H8.73344H8.74403H8.75458H8.76507H8.77552H8.78593H8.79628H8.80659H8.81686H8.82708H8.83725H8.84738H8.85747H8.86751H8.87751H8.88747H8.89738H8.90726H8.91709H8.92688H8.93663H8.94634H8.95601H8.96564H8.97523H8.98479H8.99431H9.00378H9.01323H9.02263H9.032H9.04133H9.05063H9.05989H9.06912H9.07832H9.08748H9.0966H9.1057H9.11476H9.12379H9.13279H9.14176H9.15069H9.1596H9.16848H9.17732H9.18614H9.19493H9.2037H9.21243H9.22114H9.22982H9.23847H9.2471H9.2557H9.26428H9.27283H9.28136H9.28986H9.29834H9.3068H9.31524H9.32365H9.33204H9.34041H9.34876H9.35709H9.3654H9.37369H9.38196H9.39021H9.39845H9.40666H9.41486H9.42304H9.43121H9.43935H9.44749H9.45561H9.46371H9.4718H9.47987H9.48793H9.49598H9.50402H9.51204H9.52005H9.52805H9.53604H9.54401H9.55198H9.55994H9.56789H9.57583H9.58376H9.59168H9.5996H9.60751H9.61541H9.62331H9.6312H9.63908H9.64696H9.65484H9.66271H9.67057H9.67844H9.6863H9.69416H9.70201H9.70987H9.71772H9.72557H9.73343H9.74128H9.74913H9.75699H9.76484H9.7727H9.78056H9.78842H9.79629H9.80416H9.81203H9.81991H9.82779H9.83568H9.84357H9.85147H9.85938H9.86729H9.87521H9.88314H9.89107H9.89902H9.90697H9.91494H9.92291H9.9309H9.93889H9.9469H9.95491H9.96294H9.97099H9.97904H9.98711H9.99519H10.0033H10.0114H10.0195H10.0277H10.0358H10.044H10.0522H10.0604H10.0686H10.0769H10.0851H10.0934H10.1017H10.11H10.1184H10.1267H10.1351H10.1435H10.152H10.1604H10.1689H10.1774H10.1859H10.1944H10.203H10.2116H10.2202H10.2288H10.2375H10.2462H10.2549H10.2637H10.2725H10.2813H10.2901H10.299H10.3079H10.3168H10.3257H10.3347H10.3437H10.3528H10.3619H10.371H10.3801H10.3893H10.3985H10.4078H10.4171H10.4264H10.4357H10.4451H10.4545H10.464H10.4735H10.483H10.4926H10.5022H10.5119H10.5216H10.5313H10.5411H10.5509H10.5608H10.5707H10.5806H10.5906H10.6006H10.6107H10.6208H10.6309H10.6411H10.6514H10.6617H10.672H10.6824H10.6928H10.7033H10.7138H10.7244H10.735H10.7457H10.7564H10.7672H10.778H10.7889H10.7998H10.8108H10.8218H10.8329H10.844H10.8552H10.8664H10.8777H10.889H10.9004H10.9119H10.9234H10.935H10.9466H10.9583H10.97H10.9818H10.9937H11.0056H11.0175H11.0296H11.0417H11.0538H11.066H11.0783H11.0906H11.103H11.1155H11.128H11.1406H11.1533H11.166H11.1788H11.1916H11.2045H11.2175H11.2305H11.2436H11.2568H11.2701H11.2834H11.2967H11.3102H11.3237H11.3373H11.351H11.3647H11.3785H11.3924H11.4063H11.4203H11.4344H11.4486H11.4628H11.4771H11.4915H11.506H11.5205H11.5351H11.5498H11.5646H11.5794H11.5943H11.6093H11.6244H11.6396H11.6548H11.6701H11.6855H11.701H11.7165H11.7322H11.7479H11.7637H11.7796H11.7955H11.8116H11.8277H11.8439H11.8602H11.8766H11.8931H11.9096H11.9263H11.943H11.9598H11.9767H11.9937H12.0108H12.028H12.0453H12.0626H12.0801H12.0976H12.1152H12.1329H12.1507H12.1686H12.1866H12.2047H12.2229H12.2412H12.2596H12.278H12.2966H12.3152H12.334H12.3528H12.3718H12.3908H12.41H12.4292H12.4486H12.468H12.4875H12.5072H12.5269H12.5468H12.5667H12.5867H12.6069H12.6271H12.6475H12.668H12.6885H12.7092H12.7299H12.7508H12.7718H12.7929H12.8141H12.8354H12.8568H12.8783H12.8999H12.9217H12.9435H12.9655H12.9875H13.0097H13.032H13.0544H13.0769H13.0995H13.1222H13.1451H13.168H13.1911H13.2143C13.234 9.875 13.25 9.89104 13.25 9.91071V10.0893C13.25 10.109 13.234 10.125 13.2143 10.125H13.1939H13.1737H13.1536H13.1335H13.1136H13.0937H13.074H13.0544H13.0348H13.0154H12.996H12.9768H12.9576H12.9386H12.9196H12.9008H12.882H12.8633H12.8447H12.8263H12.8079H12.7896H12.7714H12.7533H12.7352H12.7173H12.6995H12.6817H12.6641H12.6465H12.6291H12.6117H12.5944H12.5772H12.56H12.543H12.5261H12.5092H12.4924H12.4758H12.4592H12.4426H12.4262H12.4099H12.3936H12.3774H12.3613H12.3453H12.3294H12.3135H12.2978H12.2821H12.2665H12.2509H12.2355H12.2201H12.2048H12.1896H12.1745H12.1594H12.1444H12.1295H12.1147H12.1H12.0853H12.0707H12.0562H12.0417H12.0273H12.013H11.9988H11.9846H11.9705H11.9565H11.9426H11.9287H11.9149H11.9012H11.8875H11.8739H11.8604H11.8469H11.8335H11.8202H11.8069H11.7938H11.7806H11.7676H11.7546H11.7417H11.7288H11.716H11.7033H11.6906H11.678H11.6654H11.6529H11.6405H11.6281H11.6158H11.6036H11.5914H11.5793H11.5672H11.5552H11.5433H11.5314H11.5196H11.5078H11.4961H11.4844H11.4728H11.4612H11.4497H11.4383H11.4269H11.4156H11.4043H11.3931H11.3819H11.3708H11.3597H11.3487H11.3377H11.3268H11.3159H11.3051H11.2943H11.2836H11.2729H11.2623H11.2517H11.2412H11.2307H11.2202H11.2098H11.1995H11.1892H11.1789H11.1687H11.1585H11.1484H11.1383H11.1282H11.1182H11.1083H11.0983H11.0885H11.0786H11.0688H11.0591H11.0493H11.0396H11.03H11.0204H11.0108H11.0013H10.9918H10.9823H10.9729H10.9635H10.9541H10.9448H10.9355H10.9262H10.917H10.9078H10.8987H10.8895H10.8804H10.8714H10.8623H10.8533H10.8444H10.8354H10.8265H10.8176H10.8087H10.7999H10.7911H10.7823H10.7736H10.7648H10.7561H10.7475H10.7388H10.7302H10.7216H10.713H10.7044H10.6959H10.6874H10.6789H10.6704H10.662H10.6535H10.6451H10.6367H10.6284H10.62H10.6117H10.6034H10.5951H10.5868H10.5785H10.5703H10.562H10.5538H10.5456H10.5374H10.5293H10.5211H10.5129H10.5048H10.4967H10.4886H10.4805H10.4724H10.4643H10.4563H10.4482H10.4401H10.4321H10.4241H10.4161H10.4081H10.4H10.392H10.3841H10.3761H10.3681H10.3601H10.3521H10.3442H10.3362H10.3283H10.3203H10.3124H10.3044H10.2965H10.2885H10.2806H10.2726H10.2647H10.2567H10.2488H10.2409H10.2329H10.225H10.217H10.2091H10.2011H10.1931H10.1852H10.1772H10.1692H10.1613H10.1533H10.1453H10.1373H10.1293H10.1213H10.1133H10.1052H10.0972H10.0892H10.0811H10.073H10.065H10.0569H10.0488H10.0407H10.0326H10.0244H10.0163H10.0081H9.99998H9.9918H9.9836H9.97539H9.96716H9.95892H9.95066H9.94238H9.93409H9.92578H9.91745H9.90911H9.90074H9.89236H9.88396H9.87554H9.86709H9.85863H9.85014H9.84164H9.83311H9.82456H9.81599H9.80739H9.79877H9.79013H9.78146H9.77276H9.76405H9.7553H9.74653H9.73773H9.72891H9.72006H9.71118H9.70227H9.69333H9.68437H9.67537H9.66635H9.6573H9.64821H9.63909H9.62994H9.62076H9.61155H9.60231H9.59303H9.58371H9.57437H9.56499H9.55557H9.54612H9.53663H9.52711H9.51755H9.50795H9.49831H9.48864H9.47893H9.46918H9.45939H9.44956H9.4397H9.42979H9.41984H9.40985H9.39982H9.38974H9.37962H9.36946H9.35926H9.34901H9.33872H9.32839H9.31801H9.30758H9.29711H9.28659H9.27603H9.26541H9.25475H9.24405H9.23329H9.22249H9.21163H9.20073H9.18978H9.17877H9.16772H9.15661H9.14545H9.13424H9.12298H9.11167H9.1003H9.08887H9.0774H9.06586H9.05428H9.04264H9.03094H9.01918H9.00737H8.9955H8.98358H8.97159H8.95955H8.94745H8.93529H8.92307H8.91079H8.89845H8.88605H8.87358H8.86106H8.84847H8.83582H8.82311H8.81033H8.79749H8.78459H8.77162H8.75859H8.74549H8.73232H8.71909H8.70579H8.69242H8.67899H8.66549H8.65192H8.63828H8.62457H8.61079H8.59694H8.58302H8.56903H8.55497H8.54084H8.52663H8.51235H8.498H8.48358H8.46908H8.45451H8.43986H8.42513H8.41034H8.39546H8.38051H8.36548H8.35037H8.33519H8.31993H8.30459H8.28917H8.27367H8.25809H8.24244H8.2267H8.21088H8.19497H8.17899H8.16292H8.14678H8.13054H8.11423H8.09783H8.08135H8.06478H8.04812H8.03138H8.01456H7.99764H7.98065H7.96356H7.94638H7.92912H7.91177H7.89433H7.8768H7.85918H7.84147H7.82367H7.80578H7.78779H7.76972H7.75155H7.73329H7.71494H7.69649H7.67795H7.65931H7.64058H7.62175H7.60283H7.58381H7.5647H7.54549H7.52618H7.50677H7.48727H7.46766H7.44796H7.42816H7.40825H7.38825H7.36815H7.34794H7.32764H7.30723H7.28672H7.2661H7.24538H7.22456H7.20364H7.18261H7.16147H7.14023H7.11889H7.09743H7.07588H7.05421H7.03244H7.01056H6.98857H6.96647H6.94426H6.92194H6.89952H6.87698H6.85433H6.83157H6.8087H6.78571C6.76604 10.125 6.75 10.109 6.75 10.0893V9.91071C6.75 9.89104 6.76604 9.875 6.78571 9.875Z" stroke="#525463"/>
</svg>
