<svg width="16" height="97" viewBox="0 0 16 97" fill="none" xmlns="http://www.w3.org/2000/svg">
<path d="M10 95C10 96.1046 9.10457 97 8 97C6.89543 97 6 96.1046 6 95C6 93.8954 6.89543 93 8 93C9.10457 93 10 93.8954 10 95Z" fill="#525463"/>
<path d="M9 85.4102L9 8.32143C9 8.14392 8.8536 7.99999 8.67304 7.99999L7.32695 7.99999C7.14639 7.99999 7 8.14392 7 8.32143L7 85.4102L5.65523 85.4102C5.07265 85.4102 4.7809 86.1027 5.19283 86.5077L7.53762 88.8128C7.793 89.0639 8.20703 89.0639 8.46238 88.8128L10.8072 86.5077C11.2191 86.1027 10.9273 85.4102 10.3448 85.4102L9 85.4102Z" fill="#525463"/>
<path d="M10 2C10 3.10457 9.10457 4 8 4C6.89543 4 6 3.10457 6 2C6 0.89543 6.89543 0 8 0C9.10457 0 10 0.89543 10 2Z" fill="#525463"/>
</svg>
