<svg width="16" height="16" viewBox="0 0 16 16" fill="none" xmlns="http://www.w3.org/2000/svg">
<path d="M8.65601 11.4318C8.65601 11.7926 8.3636 12.085 8.00281 12.085C7.64219 12.085 7.34961 11.7926 7.34961 11.4318C7.34961 11.0711 7.64219 10.7786 8.00281 10.7786C8.3636 10.7786 8.65601 11.0711 8.65601 11.4318Z" fill="#B0B0B0"/>
<path d="M8.00114 4.48169C6.67518 4.48169 5.59961 5.5547 5.59961 6.88321V6.88407C5.59961 7.24469 5.89202 7.53692 6.25281 7.53692C6.6136 7.53692 6.90601 7.244 6.90601 6.88321C6.90601 6.27935 7.39437 5.78809 8.00199 5.78809C8.60619 5.78809 9.09779 6.27969 9.09779 6.88407C9.09779 7.48827 8.60619 7.97987 8.00199 7.97987C7.6412 7.97987 7.34879 8.27245 7.34879 8.63307V9.33271C7.34879 9.6935 7.6412 9.98591 8.00199 9.98591C8.36261 9.98591 8.65518 9.6935 8.65518 9.33271V9.19612C9.66339 8.91085 10.4042 7.98226 10.4042 6.88407C10.4042 5.5593 9.32658 4.48169 8.00114 4.48169Z" fill="#B0B0B0"/>
<circle cx="8" cy="8" r="7.5" stroke="#B0B0B0"/>
</svg>
