<svg width="24" height="24" viewBox="0 0 24 24" fill="none" xmlns="http://www.w3.org/2000/svg">
<g clip-path="url(#clip0)">
<path d="M12.7607 15.0382C12.3567 15.4426 12.3563 16.101 12.7607 16.5071C12.9566 16.7029 13.217 16.8108 13.4944 16.8108C13.7719 16.8108 14.032 16.7032 14.2289 16.5071L18.0045 12.7325C18.0982 12.6366 18.1726 12.5249 18.2283 12.3924C18.2795 12.2654 18.3058 12.134 18.3058 12.0001C18.3058 11.8662 18.2798 11.7347 18.2248 11.5984C18.1712 11.4722 18.0961 11.3604 18.0013 11.266L14.2288 7.4935C14.033 7.29735 13.7721 7.18941 13.4944 7.18941C13.2166 7.18941 12.9557 7.29766 12.7607 7.4935C12.3559 7.89827 12.3559 8.55694 12.7607 8.96164L14.7609 10.9619H1.03781C0.465637 10.962 0 11.428 0 11.9998C0 12.5717 0.465637 13.0376 1.03781 13.0376H14.7609L12.7607 15.0382Z" fill="#3C3E4B"/>
<path d="M20.5406 2.70509H8.86956C6.96135 2.70509 5.40944 4.257 5.40944 6.16452L5.41154 9.83428H5.61907C5.80899 10.0879 6.11136 10.2532 6.44795 10.2532C6.79458 10.2532 7.09867 10.0875 7.28649 9.82913L7.48607 9.82633V6.16445C7.48607 5.40236 8.10671 4.78172 8.8695 4.78172H20.5406C21.3031 4.78172 21.924 5.40236 21.924 6.16445V17.8358C21.924 18.5986 21.3031 19.2185 20.5406 19.2185H8.86956C8.10677 19.2185 7.48614 18.5986 7.48614 17.8358L7.48442 14.1643H7.27618C7.08626 13.9111 6.7839 13.7464 6.44763 13.7464C6.10894 13.7464 5.80486 13.9135 5.61532 14.1702L5.40912 14.1733V17.8358C5.40912 19.743 6.96103 21.2948 8.86925 21.2948H20.5406C22.4484 21.2948 24 19.7429 24 17.8358V6.16445C24 4.25694 22.4484 2.70509 20.5406 2.70509Z" fill="#3C3E4B"/>
</g>
<defs>
<clipPath id="clip0">
<rect width="24" height="24" fill="white"/>
</clipPath>
</defs>
</svg>
