<svg width="135" height="21" viewBox="0 0 135 21" fill="none" xmlns="http://www.w3.org/2000/svg">
<path d="M14.443 6.473H14.335L12.877 9.47L9.016 16.598L5.155 9.47L3.697 6.473H3.589V20H0.214V1.154H4.237L9.07 10.361H9.178L13.957 1.154H17.818V20H14.443V6.473ZM28.548 20.324C27.504 20.324 26.568 20.153 25.74 19.811C24.93 19.451 24.237 18.956 23.661 18.326C23.103 17.678 22.671 16.904 22.365 16.004C22.059 15.086 21.906 14.06 21.906 12.926C21.906 11.81 22.05 10.802 22.338 9.902C22.644 9.002 23.076 8.237 23.634 7.607C24.192 6.959 24.876 6.464 25.686 6.122C26.496 5.762 27.414 5.582 28.44 5.582C29.538 5.582 30.492 5.771 31.302 6.149C32.112 6.527 32.778 7.04 33.3 7.688C33.822 8.336 34.209 9.092 34.461 9.956C34.731 10.802 34.866 11.711 34.866 12.683V13.817H25.497V14.168C25.497 15.194 25.785 16.022 26.361 16.652C26.937 17.264 27.792 17.57 28.926 17.57C29.79 17.57 30.492 17.39 31.032 17.03C31.59 16.67 32.085 16.211 32.517 15.653L34.38 17.732C33.804 18.542 33.012 19.181 32.004 19.649C31.014 20.099 29.862 20.324 28.548 20.324ZM28.494 8.174C27.576 8.174 26.847 8.48 26.307 9.092C25.767 9.704 25.497 10.496 25.497 11.468V11.684H31.275V11.441C31.275 10.469 31.032 9.686 30.546 9.092C30.078 8.48 29.394 8.174 28.494 8.174ZM44.4136 20.324C43.3696 20.324 42.4336 20.153 41.6056 19.811C40.7956 19.451 40.1026 18.956 39.5266 18.326C38.9686 17.678 38.5366 16.904 38.2306 16.004C37.9246 15.086 37.7716 14.06 37.7716 12.926C37.7716 11.81 37.9156 10.802 38.2036 9.902C38.5096 9.002 38.9416 8.237 39.4996 7.607C40.0576 6.959 40.7416 6.464 41.5516 6.122C42.3616 5.762 43.2796 5.582 44.3056 5.582C45.4036 5.582 46.3576 5.771 47.1676 6.149C47.9776 6.527 48.6436 7.04 49.1656 7.688C49.6876 8.336 50.0746 9.092 50.3266 9.956C50.5966 10.802 50.7316 11.711 50.7316 12.683V13.817H41.3626V14.168C41.3626 15.194 41.6506 16.022 42.2266 16.652C42.8026 17.264 43.6576 17.57 44.7916 17.57C45.6556 17.57 46.3576 17.39 46.8976 17.03C47.4556 16.67 47.9506 16.211 48.3826 15.653L50.2456 17.732C49.6696 18.542 48.8776 19.181 47.8696 19.649C46.8796 20.099 45.7276 20.324 44.4136 20.324ZM44.3596 8.174C43.4416 8.174 42.7126 8.48 42.1726 9.092C41.6326 9.704 41.3626 10.496 41.3626 11.468V11.684H47.1406V11.441C47.1406 10.469 46.8976 9.686 46.4116 9.092C45.9436 8.48 45.2596 8.174 44.3596 8.174ZM58.9833 20C57.7953 20 56.8863 19.694 56.2563 19.082C55.6443 18.452 55.3383 17.561 55.3383 16.409V8.66H53.2593V5.906H54.3393C54.8613 5.906 55.2123 5.789 55.3923 5.555C55.5903 5.303 55.6893 4.934 55.6893 4.448V2.045H58.7943V5.906H61.6833V8.66H58.7943V17.246H61.4673V20H58.9833ZM79.9359 6.473H79.8279L78.3699 9.47L74.5089 16.598L70.6479 9.47L69.1899 6.473H69.0819V20H65.7069V1.154H69.7299L74.5629 10.361H74.6709L79.4499 1.154H83.3109V20H79.9359V6.473ZM94.0409 20.324C92.9969 20.324 92.0609 20.153 91.2329 19.811C90.4229 19.451 89.7299 18.956 89.1539 18.326C88.5959 17.678 88.1639 16.904 87.8579 16.004C87.5519 15.086 87.3989 14.06 87.3989 12.926C87.3989 11.81 87.5429 10.802 87.8309 9.902C88.1369 9.002 88.5689 8.237 89.1269 7.607C89.6849 6.959 90.3689 6.464 91.1789 6.122C91.9889 5.762 92.9069 5.582 93.9329 5.582C95.0309 5.582 95.9849 5.771 96.7949 6.149C97.6049 6.527 98.2709 7.04 98.7929 7.688C99.3149 8.336 99.7019 9.092 99.9539 9.956C100.224 10.802 100.359 11.711 100.359 12.683V13.817H90.9899V14.168C90.9899 15.194 91.2779 16.022 91.8539 16.652C92.4299 17.264 93.2849 17.57 94.4189 17.57C95.2829 17.57 95.9849 17.39 96.5249 17.03C97.0829 16.67 97.5779 16.211 98.0099 15.653L99.8729 17.732C99.2969 18.542 98.5049 19.181 97.4969 19.649C96.5069 20.099 95.3549 20.324 94.0409 20.324ZM93.9869 8.174C93.0689 8.174 92.3399 8.48 91.7999 9.092C91.2599 9.704 90.9899 10.496 90.9899 11.468V11.684H96.7679V11.441C96.7679 10.469 96.5249 9.686 96.0389 9.092C95.5709 8.48 94.8869 8.174 93.9869 8.174ZM116.954 20H103.886V16.706L109.799 11.522C110.807 10.64 111.545 9.848 112.013 9.146C112.481 8.426 112.715 7.652 112.715 6.824V6.473C112.715 5.645 112.445 5.015 111.905 4.583C111.365 4.133 110.708 3.908 109.934 3.908C108.962 3.908 108.224 4.187 107.72 4.745C107.216 5.285 106.856 5.942 106.64 6.716L103.562 5.528C103.76 4.898 104.039 4.304 104.399 3.746C104.759 3.17 105.209 2.666 105.749 2.234C106.307 1.802 106.955 1.46 107.693 1.208C108.431 0.955999 109.277 0.829999 110.231 0.829999C111.221 0.829999 112.103 0.973999 112.877 1.262C113.651 1.532 114.299 1.919 114.821 2.423C115.361 2.927 115.766 3.521 116.036 4.205C116.324 4.889 116.468 5.636 116.468 6.446C116.468 7.238 116.342 7.958 116.09 8.606C115.838 9.254 115.496 9.875 115.064 10.469C114.632 11.045 114.128 11.603 113.552 12.143C112.976 12.665 112.364 13.196 111.716 13.736L107.747 17.003H116.954V20ZM128.607 20V16.355H120.075V13.331L127.581 1.154H131.982V13.601H134.439V16.355H131.982V20H128.607ZM122.991 13.601H128.607V4.61H128.391L122.991 13.601Z" fill="#4BAF4F"/>
</svg>
