<svg width="15" height="39" viewBox="0 0 15 39" fill="none" xmlns="http://www.w3.org/2000/svg">
<path fill-rule="evenodd" clip-rule="evenodd" d="M7.34559 13.7347C7.65748 13.7347 7.91062 13.9909 7.91062 14.3078V17.7466C7.91062 18.0636 7.65748 18.3198 7.34559 18.3198C7.03369 18.3198 6.78055 18.0636 6.78055 17.7466V14.3078C6.78055 13.9909 7.03369 13.7347 7.34559 13.7347ZM7.91062 36.4306L9.77522 34.5393C9.88823 34.4246 10.0012 34.3673 10.1707 34.3673C10.3403 34.3673 10.4533 34.4246 10.5663 34.5393C10.7923 34.7691 10.7923 35.1124 10.5663 35.3422L7.74111 38.2079C7.6281 38.3225 7.48684 38.3793 7.34559 38.3793C7.20433 38.3793 7.06307 38.3225 6.95006 38.2079L4.1249 35.3422C3.89889 35.1124 3.89889 34.7691 4.1249 34.5393C4.23791 34.4246 4.35092 34.3673 4.52043 34.3673C4.68994 34.3673 4.80294 34.4246 4.91595 34.5393L6.78055 36.4306V28.636C6.78055 28.2927 7.00657 28.0628 7.34559 28.0628C7.6846 28.0628 7.91062 28.2927 7.91062 28.636V36.4306ZM5.27966 31.1465C5.56783 31.2548 5.71869 31.5809 5.61981 31.8726C5.51867 32.1678 5.19547 32.3288 4.90109 32.2274C4.25978 31.9976 2.76075 31.362 1.55327 29.7962C0.085885 27.8916 0.00113006 25.8478 0 25.1973V14.3078C0.00113006 13.7421 0.0683689 11.3028 1.94993 9.24127C4.07275 6.91664 6.87361 6.85876 7.34542 6.85704C7.81326 6.85704 10.6305 6.90575 12.7556 9.24127C14.6332 11.3046 14.6914 13.745 14.6908 14.3078V25.1973C14.6937 25.8387 14.6191 27.7575 13.2805 29.611C12.0301 31.3425 10.4022 32.0102 9.79087 32.2268C9.49819 32.3294 9.17386 32.1707 9.07159 31.8738C8.96988 31.5763 9.12753 31.2473 9.42021 31.1436C9.96151 30.9459 11.2441 30.3928 12.2685 29.0391C13.4754 27.4452 13.5568 25.755 13.5608 25.1973V14.3078C13.5608 13.8498 13.5127 11.7281 11.8595 9.96113C10.0649 8.04342 7.74433 8.00331 7.34542 8.00331C6.9595 8.00445 4.48183 8.05603 2.67204 10.1382C1.04135 12.0141 1.10746 14.2109 1.13006 14.6585V25.1973C1.13571 25.7579 1.22329 27.3965 2.38161 28.968C3.42127 30.379 4.74457 30.9493 5.27966 31.1465ZM6.21547 1.14627C6.21547 0.513528 6.72173 0 7.34553 0C7.96932 0 8.47559 0.513528 8.47559 1.14627C8.47559 1.78016 7.96932 2.29254 7.34553 2.29254C6.72173 2.29254 6.21547 1.78016 6.21547 1.14627ZM6.21547 4.58507C6.21547 3.95119 6.72173 3.43881 7.34553 3.43881C7.96932 3.43881 8.47559 3.95119 8.47559 4.58507C8.47559 5.21781 7.96932 5.73134 7.34553 5.73134C6.72173 5.73134 6.21547 5.21781 6.21547 4.58507Z" fill="#4BAF4F"/>
</svg>
