<svg width="20" height="20" viewBox="0 0 20 20" fill="none" xmlns="http://www.w3.org/2000/svg">
<path d="M10 13C10.825 13 11.5 12.325 11.5 11.5C11.5 10.675 10.825 10 10 10C9.175 10 8.5 10.675 8.5 11.5C8.5 12.325 9.175 13 10 13ZM14.5 6.25H13.75V4.75C13.75 2.68 12.07 1 10 1C7.93 1 6.25 2.68 6.25 4.75V6.25H6.9625H7.675V4.75C7.675 3.4675 8.7175 2.425 10 2.425C11.2825 2.425 12.325 3.4675 12.325 4.75V6.25H7.675H6.25H5.5C4.675 6.25 4 6.925 4 7.75V15.25C4 16.075 4.675 16.75 5.5 16.75H14.5C15.325 16.75 16 16.075 16 15.25V7.75C16 6.925 15.325 6.25 14.5 6.25ZM14.5 15.25H5.5V7.75H14.5V15.25Z" fill="#B0B0B0"/>
</svg>
