<svg width="16" height="16" viewBox="0 0 16 16" fill="none" xmlns="http://www.w3.org/2000/svg">
<path d="M13.1874 6.875H10.2855L7.61698 2.20465C7.5814 2.14247 7.53002 2.09079 7.46804 2.05486C7.40607 2.01892 7.3357 2 7.26405 2L5.60097 2C5.33107 2 5.13632 2.25822 5.21046 2.51771L6.45536 6.875H3.84368L2.74681 5.4125C2.67013 5.31018 2.54952 5.25 2.42181 5.25H1.40644C1.14212 5.25 0.948136 5.49832 1.01237 5.75477L1.81243 8.5L1.01237 11.2452C0.948136 11.5017 1.14212 11.75 1.40644 11.75H2.42181C2.54978 11.75 2.67013 11.6898 2.74681 11.5875L3.84368 10.125H6.45536L5.21046 14.482C5.13632 14.7415 5.33107 15 5.60097 15H7.26405C7.4098 15 7.54437 14.9218 7.61673 14.7954L10.2855 10.125H13.1874C14.085 10.125 15.6249 9.39756 15.6249 8.5C15.6249 7.60244 14.085 6.875 13.1874 6.875Z" fill="#525463"/>
</svg>
