<svg width="20" height="20" viewBox="0 0 20 20" fill="none" xmlns="http://www.w3.org/2000/svg">
<path d="M2 9.8032C2.73695 8.35762 3.85924 7.14393 5.24282 6.29627C6.6264 5.44862 8.2174 5 9.84 5C11.4626 5 13.0536 5.44862 14.4372 6.29627C15.8208 7.14393 16.943 8.35762 17.68 9.8032C16.943 11.2488 15.8208 12.4625 14.4372 13.3101C13.0536 14.1578 11.4626 14.6064 9.84 14.6064C8.2174 14.6064 6.6264 14.1578 5.24282 13.3101C3.85924 12.4625 2.73695 11.2488 2 9.8032ZM9.84 13.0032C10.6887 13.0032 11.5026 12.6661 12.1027 12.0659C12.7029 11.4658 13.04 10.6519 13.04 9.8032C13.04 8.95451 12.7029 8.14058 12.1027 7.54046C11.5026 6.94034 10.6887 6.6032 9.84 6.6032C8.99131 6.6032 8.17737 6.94034 7.57726 7.54046C6.97714 8.14058 6.64 8.95451 6.64 9.8032C6.64 10.6519 6.97714 11.4658 7.57726 12.0659C8.17737 12.6661 8.99131 13.0032 9.84 13.0032ZM9.84 11.4032C9.41565 11.4032 9.00869 11.2346 8.70863 10.9346C8.40857 10.6345 8.24 10.2275 8.24 9.8032C8.24 9.37885 8.40857 8.97189 8.70863 8.67183C9.00869 8.37177 9.41565 8.2032 9.84 8.2032C10.2643 8.2032 10.6713 8.37177 10.9714 8.67183C11.2714 8.97189 11.44 9.37885 11.44 9.8032C11.44 10.2275 11.2714 10.6345 10.9714 10.9346C10.6713 11.2346 10.2643 11.4032 9.84 11.4032Z" fill="#B0B0B0"/>
</svg>
