<svg width="18" height="16" viewBox="0 0 18 16" fill="none" xmlns="http://www.w3.org/2000/svg">
<path d="M16.5408 5.35969L11.9667 4.69375L9.92264 0.556562C9.73889 0.186875 9.38045 0 9.02201 0C8.66576 0 8.30983 0.184375 8.12545 0.556562L6.08076 4.69344L1.50639 5.35875C0.686077 5.4775 0.357327 6.48656 0.952014 7.06469L4.26108 10.2834L3.47795 14.8297C3.3667 15.4791 3.88514 16 4.46576 16C4.61983 16 4.77826 15.9634 4.93045 15.8828L9.02264 13.7366L13.1145 15.8834C13.2664 15.9631 13.4245 15.9994 13.578 15.9994C14.1592 15.9994 14.6786 15.4803 14.5673 14.8306L13.7851 10.2841L17.0948 7.06594C17.6898 6.48781 17.3611 5.47844 16.5408 5.35969ZM12.7364 9.20969L12.1701 9.76031L12.3039 10.5378L12.9139 14.0831L9.72233 12.4084L9.02295 12.0416L9.02389 2.12937L10.6186 5.35719L10.968 6.06437L11.7495 6.17812L15.3192 6.69781L12.7364 9.20969Z" fill="#4BAF4F"/>
</svg>
