<svg xmlns="http://www.w3.org/2000/svg" width="18" height="16" viewBox="0 0 16.75 16">
  <title>star-half-alt-white</title>
  <path d="M16.54,5.36,12,4.69,9.92.56A1,1,0,0,0,9,0a1,1,0,0,0-.89.56L6.08,4.69l-4.57.67A1,1,0,0,0,1,7.06l3.31,3.22-.78,4.55a1,1,0,0,0,1,1.17,1,1,0,0,0,.46-.12L9,13.74l4.09,2.14a1,1,0,0,0,.47.12,1,1,0,0,0,1-1.17l-.78-4.55,3.3-3.21A1,1,0,0,0,16.54,5.36Zm-3.8,3.85-.57.55.13.78.61,3.54L9.72,12.41,9,12V2.13l1.6,3.23.35.7.78.12,3.57.52ZM2.72,6.7l3.57-.52.79-.12.35-.7L9,2.13V12l-.7.37L5.13,14.08l.61-3.54.13-.78-.56-.55Z" transform="translate(-0.65)" style="fill: #4baf4f"/>
</svg>
